<svg width="80" height="80" viewBox="0 0 80 80" fill="none" xmlns="http://www.w3.org/2000/svg">
<path fill-rule="evenodd" clip-rule="evenodd" d="M10 0C4.47715 0 0 4.47715 0 10V70C0 75.5229 4.47715 80 10 80H70C75.5229 80 80 75.5229 80 70V10C80 4.47715 75.5229 0 70 0H10ZM59.563 23.5706C61.7047 24.1473 63.3936 25.8359 63.9697 27.9779C65.0409 31.8903 64.9997 40.0452 64.9997 40.0452C64.9997 40.0452 64.9997 48.1586 63.9703 52.0712C63.3936 54.2129 61.705 55.9015 59.563 56.478C55.6503 57.5079 40 57.5079 40 57.5079C40 57.5079 24.3903 57.5079 20.4367 56.4371C18.2947 55.8603 16.6064 54.1717 16.0297 52.03C15 48.1586 15 40.004 15 40.004C15 40.004 15 31.8903 16.0297 27.9779C16.6058 25.8362 18.3359 24.1061 20.4364 23.53C24.3491 22.5 39.9994 22.5 39.9994 22.5C39.9994 22.5 55.6503 22.5 59.563 23.5706ZM48.031 40.004L35.0165 32.5082V47.4997L48.031 40.004Z" fill="#264796"/>
</svg>
