<svg width="80" height="80" viewBox="0 0 80 80" fill="none" xmlns="http://www.w3.org/2000/svg">
<path fill-rule="evenodd" clip-rule="evenodd" d="M10 0C4.47715 0 0 4.47715 0 10V70C0 75.5229 4.47715 80 10 80H70C75.5229 80 80 75.5229 80 70V10C80 4.47715 75.5229 0 70 0H10ZM42.8423 43.1642V61.8538H35.8215V43.1642H29.9511V35.8784H35.8215V30.5059C35.8215 24.2729 39.3753 20.8782 44.5661 20.8782C47.052 20.8782 49.1878 21.0768 49.81 21.1634V27.6801L46.2121 27.6817C43.3866 27.6817 42.8423 29.1188 42.8423 31.2275V35.8784H49.5731L48.695 43.1642H42.8423Z" fill="#264796"/>
</svg>
