<svg width="80" height="80" viewBox="0 0 80 80" fill="none" xmlns="http://www.w3.org/2000/svg">
<rect width="80" height="80" rx="10" fill="url(#paint0_linear_979_44341)"/>
<path d="M42.9702 51.1641H37.0833V55.6884H42.9702V51.1641Z" fill="white"/>
<path d="M36.1685 52H44.0356C45.427 52 46.5509 51.1064 46.5509 50H33.5996C33.6531 51.1064 34.777 52 36.1685 52Z" fill="white"/>
<path d="M43.9335 54H36.0664C34.6749 54 33.551 55.1447 33.551 56.562H46.5023C46.5023 55.1447 45.3784 54 43.9335 54Z" fill="white"/>
<path d="M15.2646 27.9424C13.445 27.9424 12 30.9949 12 34.7561C12 38.5173 13.445 41.5699 15.2646 41.5699H19.1714V27.9424H15.2646Z" fill="#FEFCFD"/>
<path d="M22.4359 34.7561C22.4359 38.5173 20.9909 41.5699 19.1713 41.5699C17.3517 41.5699 15.9067 38.5173 15.9067 34.7561C15.9067 30.9949 17.3517 27.9424 19.1713 27.9424C20.9909 27.9424 22.4359 30.9949 22.4359 34.7561Z" fill="#F0E6E7"/>
<path d="M64.7354 27.9424C66.555 27.9424 68 30.9949 68 34.7561C68 38.5173 66.555 41.5699 64.7354 41.5699H60.8286V27.9424H64.7354Z" fill="#FEFCFD"/>
<path d="M57.6177 34.7561C57.6177 38.5173 59.0627 41.5699 60.8823 41.5699C62.7019 41.5699 64.1468 38.5173 64.1468 34.7561C64.1468 30.9949 62.7019 27.9424 60.8823 27.9424C59.0627 27.9424 57.6177 30.9949 57.6177 34.7561Z" fill="#F0E6E7"/>
<path d="M31.892 19.8755L28.5204 21.1293L24.7207 10.4453C24.3995 9.46416 24.8812 8.42847 25.791 8.10141C26.7543 7.77435 27.7712 8.26494 28.0923 9.19161L31.892 19.8755Z" fill="#FEFCFD"/>
<path d="M49.553 19.8755L52.9246 21.1293L56.7244 10.4453C57.0455 9.46416 56.5638 8.42847 55.654 8.10141C54.6907 7.77435 53.6738 8.26494 53.3527 9.19161L49.553 19.8755Z" fill="#FEFCFD"/>
<path fill-rule="evenodd" clip-rule="evenodd" d="M50.9835 50H27.9973C24.1395 50 20.8175 47.2509 19.9602 43.4021L18.0849 28.2818C16.9597 23.0034 20.8711 18 26.122 18H52.8588C58.1097 18 62.0211 23.0034 60.896 28.2818L59.0206 43.4021C58.1633 47.2509 54.8413 50 50.9835 50ZM49.9275 26.0898H30.1259C26.4867 26.0898 23.5432 29.1424 23.5432 32.8491C23.5432 36.5558 26.4867 39.5538 30.1259 39.6083H49.9275C53.5667 39.6083 56.5637 36.6103 56.5637 32.8491C56.5101 29.1424 53.5667 26.0898 49.9275 26.0898ZM34.0864 45.1684C34.0864 44.4053 34.6751 43.8057 35.4244 43.8057C36.1736 43.8057 36.7623 44.4053 36.7623 45.1684C36.7623 45.9316 36.1736 46.5312 35.4244 46.5312C34.6751 46.5312 34.0864 45.9316 34.0864 45.1684ZM38.689 45.1684C38.689 44.4053 39.2776 43.8057 40.0269 43.8057C40.7761 43.8057 41.3648 44.4053 41.3648 45.1684C41.3648 45.9316 40.7761 46.5312 40.0269 46.5312C39.2776 46.5312 38.689 45.9316 38.689 45.1684ZM43.238 45.1684C43.238 44.4053 43.8267 43.8057 44.5759 43.8057C45.3252 43.8057 45.9138 44.4053 45.9138 45.1684C45.9138 45.9316 45.3252 46.5312 44.5759 46.5312C43.8267 46.5312 43.238 45.9316 43.238 45.1684Z" fill="#FEFCFD"/>
<path d="M30.1261 29.3613C28.2529 29.3613 26.7009 30.8876 26.7009 32.85C26.7009 34.8123 28.1994 36.3386 30.1261 36.3386C31.9992 36.3386 33.5512 34.8123 33.5512 32.85C33.5512 30.8876 31.9992 29.3613 30.1261 29.3613ZM49.9276 29.3613C48.0545 29.3613 46.5025 30.8876 46.5025 32.85C46.5025 34.8123 48.001 36.3386 49.9276 36.3386C51.8007 36.3386 53.3528 34.8123 53.3528 32.85C53.3528 30.8876 51.8007 29.3613 49.9276 29.3613Z" fill="#FEFCFD"/>
<path d="M58.8648 80.0003H21.1348V63.2498C21.1348 59.2161 24.3458 56 28.2526 56H51.7469C55.7072 56 58.8648 59.2706 58.8648 63.2498V80.0003Z" fill="white"/>
<defs>
<linearGradient id="paint0_linear_979_44341" x1="60" y1="27.7778" x2="35.5556" y2="62.2222" gradientUnits="userSpaceOnUse">
<stop stop-color="#37AEE2"/>
<stop offset="1" stop-color="#1E96C8"/>
</linearGradient>
</defs>
</svg>
