<svg width="80" height="80" viewBox="0 0 80 80" fill="none" xmlns="http://www.w3.org/2000/svg">
<rect width="80" height="80" rx="10" fill="#FF0000"/>
<path d="M63.9697 27.9779C63.3936 25.8359 61.7047 24.1473 59.563 23.5706C55.6503 22.5 39.9994 22.5 39.9994 22.5C39.9994 22.5 24.3491 22.5 20.4364 23.53C18.3359 24.1061 16.6058 25.8362 16.0297 27.9779C15 31.8903 15 40.004 15 40.004C15 40.004 15 48.1586 16.0297 52.03C16.6064 54.1717 18.2947 55.8603 20.4367 56.4371C24.3903 57.5079 40 57.5079 40 57.5079C40 57.5079 55.6503 57.5079 59.563 56.478C61.705 55.9015 63.3936 54.2129 63.9703 52.0712C64.9997 48.1586 64.9997 40.0452 64.9997 40.0452C64.9997 40.0452 65.0409 31.8903 63.9697 27.9779V27.9779ZM35.0165 47.4997V32.5082L48.031 40.004L35.0165 47.4997Z" fill="white"/>
</svg>
