<svg width="120" height="120" viewBox="0 0 120 120" fill="none" xmlns="http://www.w3.org/2000/svg">
<path d="M97.5 60C97.5 59 97.5 58 97.5 57.5L110.5 48L110 44.5C110 44 109 39.5 105.5 33.5C102 27.5 99 25 98.5 24.5L96 22.5L81 29C79.5 28 78 27 76.5 26.5L74.5 10L71.5 9C71 9 66.5 7.5 60 7.5C53.5 7.5 49 9 48.5 9L45.5 10L43.5 26.5C42 27 40.5 28 39 29L24 22.5L21.5 24.5C21 25 18 28 14.5 34C11.5 39.5 10 44 10 44.5L9.5 47.5L22.5 57C22.5 58 22.5 59 22.5 59.5C22.5 60 22.5 61.5 22.5 62L9.5 71.5L10 75.5C10 76 11 80.5 14.5 86.5C18 92 21 95.5 21.5 95.5L24 97.5L39 91C40.5 92 42 93 43.5 93.5L45.5 110L48.5 111C49 111 53.5 112.5 60 112.5C66.5 112.5 71 111 71.5 111L74.5 110L76.5 94C78 93 79.5 92.5 81 91.5L96 98L98.5 96C99 95.5 102.5 92.5 105.5 87C108.5 81.5 110 77 110 76L110.5 73L97.5 63.5C97.5 62 97.5 61 97.5 60ZM99 76.5C98.5 78 97.5 79.5 96.5 81.5C95.5 83.5 94.5 85 93.5 86L79.5 80L77 82C75 84 72.5 85 69.5 86L66.5 87L65 102.5C62 103 57 103 54 102.5L52.5 87L50 85.5C47.5 84.5 45 83 42.5 81.5L40 79.5L26 85.5C25 84.5 24 83 23 81C22 79 21 77.5 20.5 76L33 67L32.5 64C32.5 62.5 32 61 32 60C32 59 32 57 32.5 56L33 53L21 43.5C21.5 42 22.5 40.5 23.5 38.5C24.5 36.5 25.5 35 26.5 34L40.5 40L43 38C45 37 47.5 35.5 50 34.5L53 33.5L54.5 18C57.5 17.5 62.5 17.5 65.5 18L67 33.5L70 34.5C72.5 35.5 75 37 77.5 38.5L80 40.5L94 34.5C95 35.5 96 37 97 39C98 41 99 42.5 99.5 44L87 53L87.5 56C87.5 57.5 88 59 88 60C88 61 88 63 87.5 64L87 67L99 76.5Z" fill="white"/>
<path d="M60 70C65.5228 70 70 65.5228 70 60C70 54.4772 65.5228 50 60 50C54.4772 50 50 54.4772 50 60C50 65.5228 54.4772 70 60 70Z" fill="white"/>
</svg>
