<svg width="80" height="80" viewBox="0 0 80 80" fill="none" xmlns="http://www.w3.org/2000/svg">
<path fill-rule="evenodd" clip-rule="evenodd" d="M10 0C4.47715 0 0 4.47715 0 10V70C0 75.5229 4.47715 80 10 80H70C75.5229 80 80 75.5229 80 70V10C80 4.47715 75.5229 0 70 0H10ZM57.9867 21.4278C58.9322 21.4278 59.7555 21.7979 60.3052 22.4701C60.9376 23.2433 61.1477 24.3502 60.897 25.5871L54.6558 56.4052C54.275 58.2852 52.968 59.5002 51.3266 59.5002H51.3262C50.4861 59.4999 49.6261 59.1772 48.8382 58.566L48.8193 58.5513L48.752 58.497C48.7513 58.4963 48.7503 58.496 48.7496 58.4953L41.661 52.7876L36.7738 57.2875C35.9471 58.0483 35.0026 58.4507 34.0423 58.4507C32.5194 58.4507 31.2116 57.4159 30.629 55.7501L26.356 43.5312L18.4548 41.2701C18.4468 41.2679 18.4389 41.2656 18.4309 41.2632C18.4265 41.2618 18.4221 41.2605 18.4177 41.2591C16.3557 40.6031 16.0182 39.4625 16.0007 38.8411C15.9832 38.2197 16.2555 37.062 18.277 36.2906L56.3686 21.7498C56.9282 21.5359 57.4727 21.4278 57.9867 21.4278ZM44.2431 35.3142L28.9993 43.1018L32.6011 53.4011L34.4313 45.9874C34.4856 45.7673 34.5958 45.5651 34.7513 45.4L44.2431 35.3142ZM34.7973 55.5053C34.8608 55.4576 34.9243 55.4058 34.9875 55.3477L39.5843 51.1152L36.4954 48.6279L34.7973 55.5053ZM52.0716 55.8819L58.3129 25.0636C58.4234 24.5167 58.3341 24.2252 58.2641 24.1397C58.2109 24.0741 58.0674 24.0645 57.9867 24.0645C57.8552 24.0645 57.6307 24.0903 57.309 24.2132L19.229 38.7495L27.2377 41.0408L49.8139 29.5072C50.3848 29.2154 51.0828 29.3767 51.468 29.8897C51.8529 30.4026 51.8131 31.1177 51.3736 31.5846L37.6472 46.17L42.4266 50.0187C42.428 50.0194 42.4294 50.0204 42.4304 50.0214L50.4628 56.4889C50.7762 56.7303 51.0825 56.8632 51.3262 56.8632C51.8196 56.8632 52.0115 56.1769 52.0716 55.8819Z" fill="#264796"/>
</svg>
