<svg width="360" height="87" viewBox="0 0 360 87" fill="none" xmlns="http://www.w3.org/2000/svg">
<path d="M150.056 69.8849C149.71 70.2647 149.319 70.6859 148.884 71.1491C148.448 71.6121 147.993 72.0868 147.519 72.5725C147.044 73.058 146.573 73.5351 146.104 74.0037C145.635 74.473 145.193 74.9083 144.781 75.3101C145.26 75.6449 145.768 76.0579 146.305 76.5491C146.841 77.0401 147.365 77.565 147.879 78.1232C148.393 78.6814 148.875 79.2508 149.328 79.8311C149.779 80.4114 150.157 80.9636 150.458 81.4888H148.549C148.214 80.9636 147.828 80.4371 147.393 79.9063C146.958 79.3762 146.497 78.8682 146.011 78.3828C145.526 77.8965 145.035 77.4476 144.538 77.0349C144.041 76.6218 143.558 76.2698 143.09 75.9801V81.4888H141.465V69.8849H143.09V75.0083C143.48 74.6402 143.91 74.2247 144.378 73.7613C144.848 73.2979 145.311 72.8322 145.768 72.3632C146.226 71.8947 146.658 71.4449 147.066 71.0154C147.474 70.5858 147.818 70.2084 148.097 69.8849H150.056ZM154.845 80.3668C155.214 80.3668 155.54 80.3584 155.825 80.3415C156.11 80.3254 156.347 80.2945 156.536 80.2495V77.6542C156.425 77.5983 156.244 77.5509 155.992 77.5115C155.741 77.473 155.438 77.4533 155.079 77.4533C154.845 77.4533 154.597 77.4701 154.334 77.5035C154.072 77.5373 153.832 77.6072 153.614 77.7129C153.396 77.819 153.215 77.964 153.071 78.1485C152.925 78.3326 152.853 78.5753 152.853 78.8763C152.853 79.4345 153.031 79.8227 153.389 80.0405C153.746 80.2583 154.232 80.3668 154.845 80.3668V80.3668ZM154.712 72.5637C155.337 72.5637 155.863 72.6453 156.294 72.8069C156.724 72.9688 157.069 73.1979 157.332 73.4933C157.594 73.7891 157.781 74.1407 157.893 74.5482C158.005 74.956 158.06 75.405 158.06 75.896V81.3381C157.928 81.3602 157.74 81.3908 157.5 81.4301C157.26 81.4691 156.989 81.5057 156.688 81.5391C156.386 81.5724 156.06 81.603 155.708 81.6311C155.356 81.6584 155.007 81.6733 154.662 81.6733C154.17 81.6733 153.718 81.623 153.304 81.5218C152.892 81.4213 152.535 81.263 152.233 81.0452C151.932 80.8269 151.696 80.5396 151.53 80.1832C151.362 79.8255 151.278 79.3959 151.278 78.8936C151.278 78.4137 151.376 78.0002 151.571 77.6542C151.766 77.3086 152.032 77.0293 152.367 76.8175C152.702 76.605 153.093 76.4486 153.539 76.3482C153.986 76.2477 154.455 76.1975 154.946 76.1975C155.102 76.1975 155.265 76.2059 155.431 76.2228C155.599 76.2392 155.758 76.2617 155.909 76.2898C156.06 76.3176 156.191 76.3425 156.303 76.365C156.414 76.3872 156.492 76.404 156.536 76.4152V75.9801C156.536 75.7229 156.509 75.4689 156.453 75.2181C156.396 74.9673 156.297 74.7439 156.152 74.5482C156.007 74.3533 155.809 74.1962 155.557 74.0796C155.306 73.9622 154.98 73.9036 154.577 73.9036C154.064 73.9036 153.614 73.9397 153.229 74.0125C152.844 74.0844 152.556 74.1608 152.367 74.2383L152.183 72.9495C152.384 72.8595 152.718 72.7732 153.187 72.6895C153.656 72.6056 154.165 72.5637 154.712 72.5637V72.5637ZM161.628 72.782V75.3435C161.628 76.0021 161.795 76.4623 162.131 76.7251C162.466 76.9875 162.923 77.1181 163.503 77.1181C163.927 77.1181 164.282 77.096 164.566 77.0514C164.851 77.0068 165.106 76.9566 165.329 76.9007V72.782H166.887V81.4888H165.329V78.1063C165.24 78.1288 165.123 78.1565 164.977 78.1903C164.833 78.2236 164.667 78.2542 164.483 78.2823C164.299 78.3101 164.106 78.3354 163.906 78.3579C163.704 78.3796 163.51 78.3908 163.319 78.3908C162.839 78.3908 162.401 78.3406 162.005 78.2405C161.609 78.1401 161.268 77.9729 160.984 77.7378C160.699 77.5035 160.475 77.1936 160.314 76.8087C160.151 76.4233 160.07 75.9403 160.07 75.3603V72.782H161.628ZM169.081 77.1514C169.081 76.3815 169.194 75.7092 169.416 75.1341C169.639 74.5594 169.935 74.082 170.304 73.7027C170.672 73.3232 171.096 73.0384 171.577 72.8483C172.057 72.659 172.548 72.5637 173.05 72.5637C174.223 72.5637 175.121 72.9294 175.747 73.6609C176.372 74.3918 176.684 75.5054 176.684 77.0011C176.684 77.0683 176.684 77.1546 176.684 77.2608C176.684 77.3669 176.679 77.4649 176.667 77.5537H170.705C170.773 78.4579 171.035 79.1443 171.493 79.6133C171.95 80.0819 172.665 80.3166 173.637 80.3166C174.183 80.3166 174.644 80.2695 175.019 80.1743C175.392 80.0795 175.674 79.9874 175.864 79.8982L176.081 81.2039C175.892 81.3044 175.56 81.4105 175.085 81.5218C174.611 81.6335 174.072 81.6893 173.469 81.6893C172.71 81.6893 172.054 81.5752 171.501 81.3462C170.949 81.1175 170.493 80.8016 170.136 80.4006C169.779 79.9983 169.514 79.5213 169.341 78.9687C169.168 78.4161 169.081 77.8109 169.081 77.1514V77.1514ZM175.06 76.2979C175.071 75.595 174.896 75.0175 174.532 74.5651C174.17 74.1129 173.671 73.8871 173.034 73.8871C172.677 73.8871 172.361 73.9567 172.088 74.0961C171.814 74.2359 171.582 74.4171 171.392 74.6402C171.203 74.8636 171.054 75.12 170.949 75.4105C170.843 75.7012 170.773 75.9965 170.74 76.2979H175.06ZM182.714 81.6893C182.01 81.6893 181.394 81.5776 180.863 81.3546C180.333 81.1312 179.887 80.8189 179.524 80.4166C179.16 80.0156 178.889 79.5382 178.711 78.9856C178.532 78.433 178.444 77.8214 178.444 77.1514C178.444 76.4823 178.541 75.8683 178.736 75.3101C178.932 74.7519 179.208 74.2693 179.564 73.8622C179.923 73.4543 180.361 73.1364 180.879 72.9077C181.399 72.6787 181.977 72.5637 182.613 72.5637C183.004 72.5637 183.394 72.5975 183.785 72.6646C184.176 72.7309 184.55 72.8379 184.908 72.9829L184.556 74.3054C184.321 74.1937 184.051 74.1045 183.743 74.0374C183.436 73.9707 183.11 73.9373 182.763 73.9373C181.893 73.9373 181.226 74.2106 180.763 74.7576C180.299 75.3049 180.068 76.1022 180.068 77.1514C180.068 77.6208 180.121 78.0504 180.227 78.4411C180.333 78.8317 180.5 79.1668 180.729 79.4461C180.959 79.725 181.252 79.94 181.608 80.0907C181.966 80.2414 182.401 80.3166 182.915 80.3166C183.327 80.3166 183.701 80.2776 184.036 80.1992C184.372 80.1213 184.634 80.0373 184.823 79.9481L185.042 81.2541C184.952 81.31 184.823 81.363 184.657 81.4133C184.489 81.4635 184.3 81.5081 184.087 81.5471C183.875 81.5865 183.649 81.6198 183.409 81.648C183.169 81.6753 182.936 81.6893 182.714 81.6893V81.6893ZM192.863 72.782V74.0876H190.032V81.4888H188.474V74.0876H185.645V72.782H192.863ZM195.994 80.3166C196.062 80.3278 196.156 80.3391 196.279 80.3503C196.401 80.3612 196.541 80.37 196.697 80.3752C196.854 80.3809 197.019 80.3861 197.191 80.3917C197.364 80.3973 197.529 80.4006 197.685 80.4006C198.009 80.4006 198.319 80.3781 198.616 80.3334C198.911 80.2888 199.168 80.2105 199.385 80.0992C199.602 79.9874 199.776 79.8391 199.905 79.6555C200.033 79.471 200.097 79.2339 200.097 78.9434C200.097 78.6645 200.039 78.433 199.921 78.2486C199.804 78.0641 199.645 77.9166 199.444 77.8049C199.243 77.6936 199.006 77.6152 198.732 77.5706C198.459 77.526 198.166 77.5035 197.853 77.5035H195.994V80.3166ZM197.652 76.3482C197.954 76.3482 198.23 76.3288 198.481 76.2898C198.732 76.2504 198.95 76.1806 199.134 76.0805C199.319 75.9801 199.463 75.8458 199.569 75.6782C199.675 75.511 199.729 75.2988 199.729 75.0424C199.729 74.7744 199.662 74.5618 199.527 74.4059C199.394 74.2496 199.217 74.1298 198.999 74.0459C198.782 73.9622 198.537 73.9068 198.264 73.8783C197.99 73.8505 197.713 73.8365 197.434 73.8365C197.178 73.8365 196.918 73.8421 196.655 73.8534C196.393 73.8646 196.173 73.8758 195.994 73.8871V76.3482H197.652ZM197.618 81.6391C196.96 81.6391 196.352 81.6086 195.793 81.5471C195.235 81.486 194.794 81.4161 194.47 81.3381V72.8651C194.794 72.7871 195.235 72.7173 195.793 72.6558C196.352 72.5943 196.96 72.5637 197.618 72.5637C198.076 72.5637 198.523 72.6035 198.959 72.6811C199.394 72.7595 199.779 72.8904 200.115 73.0749C200.449 73.2585 200.719 73.5102 200.926 73.8281C201.132 74.1459 201.236 74.5401 201.236 75.0083C201.236 75.4331 201.129 75.7959 200.917 76.0974C200.705 76.3984 200.421 76.633 200.064 76.8002C200.544 76.9678 200.926 77.2161 201.211 77.5457C201.496 77.8748 201.638 78.3354 201.638 78.9265C201.638 79.4518 201.535 79.887 201.328 80.233C201.121 80.5786 200.837 80.8579 200.475 81.0705C200.111 81.2823 199.684 81.4301 199.193 81.5137C198.702 81.5977 198.177 81.6391 197.618 81.6391V81.6391ZM211.334 77.1354C211.334 77.8274 211.235 78.4523 211.033 79.0105C210.832 79.5687 210.549 80.0485 210.187 80.4508C209.825 80.8527 209.392 81.1621 208.89 81.3795C208.387 81.5977 207.84 81.7062 207.248 81.7062C206.656 81.7062 206.109 81.5977 205.606 81.3795C205.104 81.1621 204.672 80.8527 204.309 80.4508C203.947 80.0485 203.665 79.5687 203.463 79.0105C203.262 78.4523 203.162 77.8274 203.162 77.1354C203.162 76.4542 203.262 75.8317 203.463 75.2684C203.665 74.7041 203.947 74.2219 204.309 73.8199C204.672 73.4177 205.104 73.1082 205.606 72.8904C206.109 72.6726 206.656 72.5637 207.248 72.5637C207.84 72.5637 208.387 72.6726 208.89 72.8904C209.392 73.1082 209.825 73.4177 210.187 73.8199C210.549 74.2219 210.832 74.7041 211.033 75.2684C211.235 75.8317 211.334 76.4542 211.334 77.1354ZM209.71 77.1354C209.71 76.1528 209.49 75.374 209.048 74.7997C208.608 74.2247 208.008 73.9373 207.248 73.9373C206.488 73.9373 205.889 74.2247 205.448 74.7997C205.007 75.374 204.786 76.1528 204.786 77.1354C204.786 78.1176 205.007 78.896 205.448 79.471C205.889 80.0461 206.488 80.3334 207.248 80.3334C208.008 80.3334 208.608 80.0461 209.048 79.471C209.49 78.896 209.71 78.1176 209.71 77.1354V77.1354ZM218.921 80.3166C218.988 80.3278 219.082 80.3391 219.205 80.3503C219.328 80.3612 219.467 80.37 219.624 80.3752C219.78 80.3809 219.945 80.3861 220.119 80.3917C220.292 80.3973 220.456 80.4006 220.613 80.4006C220.937 80.4006 221.246 80.3781 221.542 80.3334C221.838 80.2888 222.094 80.2105 222.312 80.0992C222.529 79.9874 222.702 79.8391 222.831 79.6555C222.96 79.471 223.023 79.2339 223.023 78.9434C223.023 78.6645 222.966 78.433 222.847 78.2486C222.731 78.0641 222.572 77.9166 222.371 77.8049C222.169 77.6936 221.932 77.6152 221.659 77.5706C221.385 77.526 221.092 77.5035 220.78 77.5035H218.921V80.3166ZM220.579 76.3482C220.88 76.3482 221.157 76.3288 221.408 76.2898C221.659 76.2504 221.876 76.1806 222.06 76.0805C222.246 75.9801 222.39 75.8458 222.497 75.6782C222.603 75.511 222.655 75.2988 222.655 75.0424C222.655 74.7744 222.588 74.5618 222.454 74.4059C222.321 74.2496 222.144 74.1298 221.927 74.0459C221.709 73.9622 221.464 73.9068 221.19 73.8783C220.917 73.8505 220.64 73.8365 220.361 73.8365C220.104 73.8365 219.845 73.8421 219.583 73.8534C219.319 73.8646 219.099 73.8758 218.921 73.8871V76.3482H220.579ZM220.545 81.6391C219.887 81.6391 219.278 81.6086 218.72 81.5471C218.162 81.486 217.721 81.4161 217.397 81.3381V72.8651C217.721 72.7871 218.162 72.7173 218.72 72.6558C219.278 72.5943 219.887 72.5637 220.545 72.5637C221.004 72.5637 221.449 72.6035 221.885 72.6811C222.321 72.7595 222.705 72.8904 223.041 73.0749C223.375 73.2585 223.646 73.5102 223.853 73.8281C224.06 74.1459 224.162 74.5401 224.162 75.0083C224.162 75.4331 224.056 75.7959 223.844 76.0974C223.633 76.3984 223.348 76.633 222.99 76.8002C223.47 76.9678 223.853 77.2161 224.137 77.5457C224.422 77.8748 224.565 78.3354 224.565 78.9265C224.565 79.4518 224.461 79.887 224.255 80.233C224.048 80.5786 223.763 80.8579 223.401 81.0705C223.038 81.2823 222.61 81.4301 222.119 81.5137C221.628 81.5977 221.103 81.6391 220.545 81.6391V81.6391ZM233.625 76.7504C233.971 76.9956 234.345 77.3054 234.747 77.6791C235.15 78.0537 235.543 78.4579 235.928 78.8936C236.313 79.3284 236.674 79.7724 237.008 80.2245C237.343 80.6762 237.627 81.0982 237.863 81.4888H236.02C235.774 81.1091 235.487 80.7209 235.158 80.3254C234.829 79.9288 234.485 79.5462 234.128 79.1781C233.771 78.8096 233.408 78.4692 233.039 78.1565C232.67 77.8443 232.324 77.5819 232.001 77.3701V81.4888H230.443V72.782H232.001V76.5158C232.27 76.2593 232.575 75.9607 232.922 75.62C233.269 75.2796 233.618 74.9332 233.968 74.5815C234.32 74.2299 234.647 73.8951 234.948 73.5773C235.249 73.2585 235.495 72.9937 235.685 72.782H237.494C237.249 73.05 236.961 73.3538 236.631 73.6946C236.302 74.0345 235.961 74.3838 235.61 74.7407C235.258 75.0983 234.909 75.4524 234.563 75.804C234.217 76.1557 233.905 76.4711 233.625 76.7504V76.7504ZM242.383 80.3668C242.753 80.3668 243.079 80.3584 243.364 80.3415C243.648 80.3254 243.885 80.2945 244.075 80.2495V77.6542C243.964 77.5983 243.783 77.5509 243.53 77.5115C243.279 77.473 242.976 77.4533 242.618 77.4533C242.383 77.4533 242.135 77.4701 241.873 77.5035C241.61 77.5373 241.37 77.6072 241.153 77.7129C240.935 77.819 240.753 77.964 240.609 78.1485C240.463 78.3326 240.391 78.5753 240.391 78.8763C240.391 79.4345 240.569 79.8227 240.927 80.0405C241.284 80.2583 241.77 80.3668 242.383 80.3668V80.3668ZM242.249 72.5637C242.875 72.5637 243.402 72.6453 243.832 72.8069C244.262 72.9688 244.609 73.1979 244.87 73.4933C245.133 73.7891 245.32 74.1407 245.432 74.5482C245.543 74.956 245.599 75.405 245.599 75.896V81.3381C245.466 81.3602 245.279 81.3908 245.038 81.4301C244.798 81.4691 244.528 81.5057 244.226 81.5391C243.925 81.5724 243.597 81.603 243.246 81.6311C242.895 81.6584 242.546 81.6733 242.199 81.6733C241.708 81.6733 241.256 81.623 240.843 81.5218C240.43 81.4213 240.072 81.263 239.772 81.0452C239.47 80.8269 239.235 80.5396 239.068 80.1832C238.9 79.8255 238.817 79.3959 238.817 78.8936C238.817 78.4137 238.915 78.0002 239.11 77.6542C239.306 77.3086 239.57 77.0293 239.905 76.8175C240.24 76.605 240.631 76.4486 241.077 76.3482C241.524 76.2477 241.993 76.1975 242.484 76.1975C242.64 76.1975 242.802 76.2059 242.97 76.2228C243.137 76.2392 243.296 76.2617 243.447 76.2898C243.597 76.3176 243.729 76.3425 243.841 76.365C243.952 76.3872 244.031 76.404 244.075 76.4152V75.9801C244.075 75.7229 244.047 75.4689 243.991 75.2181C243.935 74.9673 243.835 74.7439 243.69 74.5482C243.544 74.3533 243.347 74.1962 243.095 74.0796C242.844 73.9622 242.518 73.9036 242.116 73.9036C241.602 73.9036 241.153 73.9397 240.768 74.0125C240.382 74.0844 240.095 74.1608 239.905 74.2383L239.721 72.9495C239.922 72.8595 240.256 72.7732 240.726 72.6895C241.195 72.6056 241.703 72.5637 242.249 72.5637V72.5637ZM258.913 72.782C258.69 73.0612 258.439 73.3654 258.159 73.6946C257.88 74.0237 257.59 74.3641 257.289 74.7157C256.987 75.0677 256.683 75.4162 256.376 75.7626C256.068 76.1083 255.775 76.4374 255.496 76.7504C255.832 77.0739 256.177 77.4255 256.535 77.8049C256.892 78.1847 257.241 78.5777 257.582 78.9856C257.922 79.3927 258.249 79.8118 258.561 80.2414C258.873 80.671 259.147 81.0865 259.383 81.4888H257.641C257.406 81.1207 257.135 80.7325 256.829 80.3254C256.521 79.9175 256.203 79.5245 255.873 79.1443C255.543 78.765 255.215 78.4105 254.886 78.0814C254.556 77.7519 254.252 77.4818 253.973 77.2692V81.4888H252.482V77.2692C252.204 77.4818 251.899 77.7519 251.57 78.0814C251.24 78.4105 250.911 78.765 250.582 79.1443C250.253 79.5245 249.934 79.9175 249.627 80.3254C249.32 80.7325 249.049 81.1207 248.814 81.4888H247.09C247.324 81.0865 247.595 80.6742 247.901 80.2495C248.209 79.8255 248.533 79.4096 248.874 79.0021C249.214 78.5946 249.563 78.2011 249.919 77.8214C250.277 77.442 250.623 77.0907 250.957 76.7665C250.68 76.4542 250.386 76.1251 250.079 75.7786C249.772 75.4331 249.468 75.0839 249.166 74.7327C248.865 74.381 248.574 74.0402 248.296 73.7111C248.017 73.3816 247.759 73.0717 247.526 72.782H249.249C249.652 73.2838 250.116 73.8421 250.64 74.4561C251.165 75.0698 251.78 75.7786 252.482 76.5828V72.782H253.973V76.5828C254.676 75.7786 255.29 75.0698 255.815 74.4561C256.34 73.8421 256.803 73.2838 257.204 72.782H258.913ZM259.885 80.2161H260.822C261.191 79.6804 261.484 79.1279 261.702 78.5584C261.92 77.989 262.084 77.3998 262.196 76.7918C262.307 76.1838 262.38 75.5472 262.413 74.8829C262.447 74.219 262.469 73.5182 262.481 72.782H268.191V80.2161H269.363V83.9165H267.89V81.4888H261.358V83.9165H259.885V80.2161ZM266.634 80.2161V74.0876H263.904C263.893 74.6121 263.865 75.1398 263.819 75.6702C263.775 76.2002 263.703 76.7251 263.602 77.2439C263.501 77.7631 263.359 78.2711 263.175 78.7682C262.991 79.2645 262.76 79.7475 262.481 80.2161H266.634ZM278.741 77.1354C278.741 77.8274 278.641 78.4523 278.44 79.0105C278.239 79.5687 277.957 80.0485 277.594 80.4508C277.232 80.8527 276.799 81.1621 276.296 81.3795C275.794 81.5977 275.247 81.7062 274.655 81.7062C274.064 81.7062 273.516 81.5977 273.014 81.3795C272.511 81.1621 272.079 80.8527 271.716 80.4508C271.353 80.0485 271.07 79.5687 270.87 79.0105C270.669 78.4523 270.569 77.8274 270.569 77.1354C270.569 76.4542 270.669 75.8317 270.87 75.2684C271.07 74.7041 271.353 74.2219 271.716 73.8199C272.079 73.4177 272.511 73.1082 273.014 72.8904C273.516 72.6726 274.064 72.5637 274.655 72.5637C275.247 72.5637 275.794 72.6726 276.296 72.8904C276.799 73.1082 277.232 73.4177 277.594 73.8199C277.957 74.2219 278.239 74.7041 278.44 75.2684C278.641 75.8317 278.741 76.4542 278.741 77.1354ZM277.118 77.1354C277.118 76.1528 276.896 75.374 276.456 74.7997C276.015 74.2247 275.415 73.9373 274.655 73.9373C273.896 73.9373 273.296 74.2247 272.855 74.7997C272.414 75.374 272.193 76.1528 272.193 77.1354C272.193 78.1176 272.414 78.896 272.855 79.471C273.296 80.0461 273.896 80.3334 274.655 80.3334C275.415 80.3334 276.015 80.0461 276.456 79.471C276.896 78.896 277.118 78.1176 277.118 77.1354V77.1354ZM282.594 75.0758C282.483 76.1806 282.398 77.2833 282.343 78.3828C282.287 79.4823 282.242 80.5179 282.209 81.4888H280.718C280.74 80.8077 280.773 80.0963 280.818 79.3537C280.863 78.6119 280.913 77.8632 280.968 77.1101C281.025 76.3562 281.086 75.6143 281.153 74.8829C281.22 74.1519 281.292 73.451 281.37 72.782H282.794C283.152 73.3622 283.57 74.1576 284.051 75.1678C284.531 76.1785 285.084 77.3415 285.708 78.6589C286.334 77.3415 286.887 76.1785 287.366 75.1678C287.847 74.1576 288.265 73.3622 288.623 72.782H290.063C290.141 73.451 290.214 74.1519 290.281 74.8829C290.347 75.6143 290.409 76.3562 290.464 77.1101C290.521 77.8632 290.571 78.6119 290.616 79.3537C290.661 80.0963 290.694 80.8077 290.716 81.4888H289.176C289.141 80.5179 289.097 79.4823 289.041 78.3828C288.986 77.2833 288.902 76.1806 288.79 75.0758C288.612 75.4219 288.405 75.8378 288.171 76.3232C287.936 76.8087 287.705 77.303 287.475 77.8049C287.247 78.3076 287.032 78.7871 286.831 79.2452C286.63 79.7025 286.474 80.0658 286.362 80.3334H285.055C284.933 80.0546 284.768 79.686 284.562 79.2283C284.354 78.7702 284.137 78.2875 283.909 77.78C283.679 77.272 283.448 76.7753 283.214 76.2898C282.979 75.804 282.773 75.3993 282.594 75.0758V75.0758ZM304.046 81.4888H302.49V74.0876H298.604V81.4888H297.047V72.782H304.046V81.4888ZM314.045 72.782V81.4888H312.538V74.858C312.203 75.2819 311.835 75.7786 311.433 76.3482C311.031 76.9176 310.629 77.5067 310.226 78.1151C309.825 78.7236 309.44 79.3232 309.071 79.9143C308.702 80.5067 308.384 81.0307 308.117 81.4888H306.727V72.782H308.234V79.0439C308.524 78.564 308.854 78.0368 309.222 77.4617C309.59 76.887 309.973 76.3176 310.369 75.7533C310.765 75.19 311.162 74.6486 311.558 74.1298C311.955 73.6106 312.325 73.1617 312.671 72.782H314.045ZM319.907 76.7504C320.252 76.9956 320.626 77.3054 321.028 77.6791C321.431 78.0537 321.824 78.4579 322.21 78.8936C322.594 79.3284 322.954 79.7724 323.29 80.2245C323.624 80.6762 323.909 81.0982 324.144 81.4888H322.301C322.055 81.1091 321.768 80.7209 321.439 80.3254C321.11 79.9288 320.767 79.5462 320.409 79.1781C320.052 78.8096 319.689 78.4692 319.32 78.1565C318.952 77.8443 318.606 77.5819 318.282 77.3701V81.4888H316.724V72.782H318.282V76.5158C318.55 76.2593 318.857 75.9607 319.203 75.62C319.55 75.2796 319.897 74.9332 320.249 74.5815C320.601 74.2299 320.928 73.8951 321.229 73.5773C321.531 73.2585 321.776 72.9937 321.967 72.782H323.775C323.53 73.05 323.242 73.3538 322.912 73.6946C322.583 74.0345 322.242 74.3838 321.892 74.7407C321.539 75.0983 321.191 75.4524 320.844 75.804C320.497 76.1557 320.186 76.4711 319.907 76.7504V76.7504ZM329.502 81.6893C328.799 81.6893 328.183 81.5776 327.652 81.3546C327.122 81.1312 326.675 80.8189 326.312 80.4166C325.949 80.0156 325.678 79.5382 325.5 78.9856C325.321 78.433 325.233 77.8214 325.233 77.1514C325.233 76.4823 325.329 75.8683 325.525 75.3101C325.72 74.7519 325.996 74.2693 326.354 73.8622C326.711 73.4543 327.15 73.1364 327.668 72.9077C328.188 72.6787 328.765 72.5637 329.402 72.5637C329.792 72.5637 330.184 72.5975 330.574 72.6646C330.965 72.7309 331.339 72.8379 331.696 72.9829L331.345 74.3054C331.11 74.1937 330.839 74.1045 330.533 74.0374C330.225 73.9707 329.899 73.9373 329.552 73.9373C328.682 73.9373 328.015 74.2106 327.551 74.7576C327.088 75.3049 326.856 76.1022 326.856 77.1514C326.856 77.6208 326.91 78.0504 327.016 78.4411C327.122 78.8317 327.289 79.1668 327.518 79.4461C327.747 79.725 328.04 79.94 328.397 80.0907C328.755 80.2414 329.19 80.3166 329.703 80.3166C330.116 80.3166 330.491 80.2776 330.825 80.1992C331.16 80.1213 331.423 80.0373 331.612 79.9481L331.83 81.2541C331.741 81.31 331.612 81.363 331.444 81.4133C331.278 81.4635 331.087 81.5081 330.875 81.5471C330.663 81.5865 330.437 81.6198 330.197 81.648C329.958 81.6753 329.725 81.6893 329.502 81.6893V81.6893ZM333.019 77.1514C333.019 76.3815 333.131 75.7092 333.354 75.1341C333.577 74.5594 333.873 74.082 334.241 73.7027C334.61 73.3232 335.034 73.0384 335.514 72.8483C335.994 72.659 336.486 72.5637 336.988 72.5637C338.161 72.5637 339.06 72.9294 339.685 73.6609C340.311 74.3918 340.623 75.5054 340.623 77.0011C340.623 77.0683 340.623 77.1546 340.623 77.2608C340.623 77.3669 340.617 77.4649 340.606 77.5537H334.643C334.711 78.4579 334.973 79.1443 335.431 79.6133C335.888 80.0819 336.604 80.3166 337.574 80.3166C338.121 80.3166 338.582 80.2695 338.957 80.1743C339.33 80.0795 339.612 79.9874 339.803 79.8982L340.02 81.2039C339.83 81.3044 339.498 81.4105 339.024 81.5218C338.549 81.6335 338.009 81.6893 337.406 81.6893C336.648 81.6893 335.991 81.5752 335.439 81.3462C334.886 81.1175 334.431 80.8016 334.073 80.4006C333.717 79.9983 333.452 79.5213 333.279 78.9687C333.105 78.4161 333.019 77.8109 333.019 77.1514V77.1514ZM338.998 76.2979C339.009 75.595 338.834 75.0175 338.47 74.5651C338.108 74.1129 337.608 73.8871 336.971 73.8871C336.615 73.8871 336.299 73.9567 336.025 74.0961C335.752 74.2359 335.52 74.4171 335.331 74.6402C335.14 74.8636 334.992 75.12 334.886 75.4105C334.78 75.7012 334.711 75.9965 334.677 76.2979H338.998ZM345.898 74.0876C345.898 74.4561 345.89 74.8495 345.873 75.2684C345.857 75.6862 345.826 76.1054 345.781 76.5242C345.737 76.9429 345.675 77.3552 345.597 77.7631C345.518 78.1706 345.419 78.5528 345.295 78.9104C345.173 79.2673 345.019 79.6021 344.835 79.9143C344.651 80.2274 344.425 80.5034 344.156 80.7434C343.889 80.9837 343.576 81.1842 343.219 81.3462C342.862 81.5081 342.443 81.6118 341.963 81.6564L341.745 80.3503C342.293 80.2386 342.725 80.0316 343.043 79.7307C343.362 79.4293 343.615 79.0607 343.805 78.6255C343.973 78.2462 344.095 77.8158 344.174 77.3363C344.252 76.8561 344.307 76.3562 344.341 75.8378C344.374 75.3186 344.394 74.7966 344.4 74.2725C344.405 73.7472 344.408 73.2505 344.408 72.782H350.202V81.4888H348.644V74.0876H345.898ZM352.396 77.1514C352.396 76.3815 352.508 75.7092 352.731 75.1341C352.955 74.5594 353.25 74.082 353.618 73.7027C353.988 73.3232 354.412 73.0384 354.891 72.8483C355.372 72.659 355.864 72.5637 356.366 72.5637C357.538 72.5637 358.436 72.9294 359.062 73.6609C359.687 74.3918 360 75.5054 360 77.0011C360 77.0683 360 77.1546 360 77.2608C360 77.3669 359.994 77.4649 359.982 77.5537H354.021C354.088 78.4579 354.35 79.1443 354.808 79.6133C355.266 80.0819 355.981 80.3166 356.951 80.3166C357.499 80.3166 357.96 80.2695 358.333 80.1743C358.708 80.0795 358.988 79.9874 359.179 79.8982L359.397 81.2039C359.207 81.3044 358.875 81.4105 358.4 81.5218C357.926 81.6335 357.386 81.6893 356.784 81.6893C356.025 81.6893 355.369 81.5752 354.816 81.3462C354.264 81.1175 353.809 80.8016 353.451 80.4006C353.095 79.9983 352.829 79.5213 352.655 78.9687C352.482 78.4161 352.396 77.8109 352.396 77.1514V77.1514ZM358.375 76.2979C358.387 75.595 358.211 75.0175 357.847 74.5651C357.485 74.1129 356.985 73.8871 356.348 73.8871C355.992 73.8871 355.676 73.9567 355.403 74.0961C355.129 74.2359 354.897 74.4171 354.708 74.6402C354.518 74.8636 354.369 75.12 354.263 75.4105C354.158 75.7012 354.088 75.9965 354.055 76.2979H358.375" fill="#8C8D90"/>
<path fill-rule="evenodd" clip-rule="evenodd" d="M70.44 10.8799V7.84659e-05H21.6478V10.8799H5.38352H0.000803601H0V65.0578V70.4414H5.38352H16.2643V81.3213V86.7046H21.6478H70.44H75.8235V81.3213V70.4414H86.7043H92.087H92.0878V16.2636V10.8799H86.7043H70.44" fill="white"/>
<path d="M222.08 59.4863V15.9772L229.043 14.8256V59.4863H222.08Z" fill="#A5276D"/>
<path d="M189.733 44.582C189.733 41.9356 190.126 39.6135 190.914 37.6187C191.7 35.6231 192.745 33.9638 194.05 32.6406C195.355 31.317 196.851 30.3186 198.538 29.6474C200.228 28.9757 201.953 28.6401 203.718 28.6401C207.862 28.6401 211.095 29.9259 213.416 32.4963C215.737 35.0672 216.898 38.9033 216.898 44.0076C216.898 44.3907 216.889 44.8223 216.869 45.3022C216.85 45.7817 216.821 46.2131 216.783 46.5973H196.927C197.119 49.0142 197.973 50.8844 199.488 52.2084C201.005 53.5325 203.2 54.1936 206.077 54.1936C207.766 54.1936 209.31 54.0405 210.711 53.733C212.111 53.4271 213.214 53.1003 214.02 52.7547L214.941 58.4526C214.557 58.6443 214.03 58.8465 213.358 59.0568C212.686 59.2678 211.919 59.4599 211.057 59.6332C210.192 59.8055 209.262 59.9491 208.265 60.064C207.267 60.1794 206.25 60.2373 205.214 60.2373C202.568 60.2373 200.265 59.8438 198.309 59.0568C196.352 58.2702 194.74 57.1769 193.474 55.7765C192.208 54.3762 191.268 52.7266 190.654 50.8274C190.041 48.9278 189.733 46.8457 189.733 44.582ZM209.934 41.4741C209.934 40.5151 209.8 39.6047 209.531 38.7417C209.262 37.8776 208.869 37.1292 208.351 36.4965C207.834 35.8634 207.2 35.3642 206.452 34.9996C205.704 34.6355 204.812 34.453 203.776 34.453C202.701 34.453 201.762 34.6544 200.955 35.0575C200.151 35.4611 199.469 35.9885 198.912 36.64C198.357 37.2927 197.925 38.0403 197.618 38.8844C197.312 39.7289 197.1 40.5919 196.984 41.4741H209.934Z" fill="#A5276D"/>
<path d="M173.206 39.2277L179.594 29.3861H186.903L177.004 43.6012C179.076 46.2874 181.061 49.0017 182.961 51.745C184.86 54.4882 186.423 57.0691 187.651 59.4863H180.112C179.767 58.7576 179.316 57.9228 178.76 56.9826C178.203 56.0426 177.608 55.0642 176.975 54.0473C176.343 53.0308 175.68 52.0243 174.989 51.0259C174.299 50.0282 173.628 49.0881 172.976 48.2058C171.632 49.9318 170.318 51.8414 169.033 53.9328C167.749 56.0236 166.683 57.8741 165.839 59.4863H158.703C159.278 58.3356 159.969 57.1072 160.775 55.8022C161.58 54.4983 162.443 53.165 163.364 51.8032C164.285 50.441 165.235 49.0781 166.213 47.7167C167.191 46.3545 168.16 45.0598 169.119 43.8319L159.163 29.3861H166.817L173.206 39.2277" fill="#A5276D"/>
<path d="M154.27 20.5814C154.27 21.8863 153.849 22.9217 153.004 23.6895C152.161 24.4573 151.164 24.8408 150.012 24.8408C148.823 24.8408 147.806 24.4573 146.962 23.6895C146.118 22.9217 145.696 21.8863 145.696 20.5814C145.696 19.2388 146.118 18.1836 146.962 17.4159C147.806 16.6489 148.823 16.2651 150.012 16.2651C151.164 16.2651 152.161 16.6489 153.004 17.4159C153.849 18.1836 154.27 19.2388 154.27 20.5814" fill="#A5276D"/>
<path d="M153.522 59.4863H146.558V29.3861H153.522V59.4863Z" fill="#A5276D"/>
<path d="M140.919 44.465C140.919 46.7673 140.622 48.8771 140.027 50.7955C139.432 52.7144 138.578 54.3643 137.466 55.7454C136.354 57.1269 134.962 58.2004 133.294 58.9681C131.625 59.7358 129.736 60.1189 127.625 60.1189C126.205 60.1189 124.901 59.9465 123.711 59.6008C122.522 59.2559 121.543 58.8721 120.776 58.45V70.1328H113.812V30.3645C115.232 29.9806 116.978 29.6169 119.05 29.2713C121.122 28.9259 123.308 28.7536 125.609 28.7536C127.989 28.7536 130.118 29.1177 131.998 29.8464C133.878 30.576 135.48 31.621 136.804 32.9831C138.128 34.3453 139.144 35.9949 139.854 37.9327C140.564 39.8704 140.919 42.0481 140.919 44.465V44.465ZM133.783 44.5795C133.783 41.4717 133.083 39.0549 131.682 37.3286C130.282 35.6018 128.028 34.7385 124.92 34.7385C124.268 34.7385 123.587 34.7682 122.877 34.8245C122.168 34.8827 121.466 35.0073 120.776 35.199V52.4072C121.39 52.8293 122.206 53.2224 123.222 53.5869C124.239 53.9519 125.322 54.1336 126.474 54.1336C129.006 54.1336 130.857 53.2702 132.027 51.5435C133.198 49.8172 133.783 47.496 133.783 44.5795" fill="#A5276D"/>
<path d="M329.632 14.8256C331.243 14.8256 332.557 14.9511 333.575 15.2003C334.592 15.4499 335.253 15.6701 335.56 15.8615L334.812 19.085C334.389 18.8936 333.766 18.6915 332.941 18.4809C332.116 18.2695 331.071 18.1642 329.805 18.1642C327.157 18.1642 325.268 18.8358 324.135 20.1779C323.003 21.5212 322.439 23.6698 322.439 26.6241V29.7318H334.409V32.8975H322.439V59.4863H318.697V26.5091C318.697 22.6341 319.589 19.718 321.374 17.7606C323.157 15.8048 325.91 14.8256 329.632 14.8256" fill="#515254"/>
<path d="M301.029 29.0411C302.986 29.0411 304.645 29.3196 306.006 29.8759C307.368 30.4321 308.471 31.1999 309.316 32.1786C310.16 33.1565 310.773 34.3169 311.157 35.6598C311.541 37.0022 311.733 38.4605 311.733 40.0344V58.7959C311.349 58.9105 310.793 59.0355 310.064 59.1693C309.335 59.3044 308.491 59.4483 307.531 59.6011C306.572 59.7546 305.508 59.88 304.337 59.9756C303.167 60.0717 301.968 60.1191 300.74 60.1191C299.168 60.1191 297.72 59.9467 296.395 59.6011C295.072 59.2562 293.921 58.7092 292.942 57.9611C291.964 57.2132 291.196 56.2541 290.641 55.0836C290.084 53.9132 289.806 52.4847 289.806 50.7958C289.806 49.1849 290.113 47.8034 290.727 46.6519C291.34 45.5011 292.204 44.5518 293.317 43.8033C294.429 43.0554 295.752 42.5083 297.288 42.1631C298.822 41.8178 300.491 41.6454 302.295 41.6454C302.832 41.6454 303.398 41.6743 303.992 41.7318C304.586 41.7896 305.162 41.8656 305.718 41.9621C306.275 42.0574 306.754 42.1538 307.157 42.2495C307.561 42.3452 307.839 42.4311 307.992 42.5083V40.6671C307.992 39.6309 307.916 38.6237 307.761 37.6457C307.608 36.6674 307.273 35.7844 306.754 34.9977C306.236 34.2116 305.508 33.5789 304.568 33.099C303.627 32.6199 302.39 32.3796 300.856 32.3796C298.669 32.3796 297.039 32.5335 295.963 32.8398C294.89 33.1472 294.103 33.3965 293.604 33.5882L293.086 30.3075C293.739 30.0005 294.745 29.7131 296.107 29.4447C297.47 29.1761 299.11 29.0411 301.029 29.0411V29.0411ZM301.374 56.7814C302.832 56.7814 304.108 56.7336 305.2 56.6372C306.294 56.5419 307.225 56.4169 307.992 56.2633V45.7889C307.57 45.5972 306.899 45.3958 305.977 45.1844C305.057 44.9737 303.791 44.8685 302.179 44.8685C301.258 44.8685 300.299 44.9352 299.301 45.0699C298.304 45.2037 297.383 45.4919 296.54 45.9332C295.695 46.3742 295.004 46.9787 294.467 47.746C293.93 48.5128 293.662 49.5302 293.662 50.7958C293.662 51.9088 293.844 52.8485 294.208 53.6162C294.572 54.3831 295.091 54.9972 295.763 55.4579C296.434 55.9181 297.239 56.2541 298.18 56.4647C299.119 56.6753 300.183 56.7814 301.374 56.7814" fill="#515254"/>
<path d="M280.598 29.1576C281.826 29.1576 282.987 29.2541 284.08 29.4458C285.174 29.6375 285.931 29.8288 286.352 30.0205L285.605 33.2435C285.298 33.0903 284.674 32.9272 283.735 32.7544C282.794 32.582 281.557 32.4955 280.023 32.4955C278.411 32.4955 277.115 32.6109 276.138 32.8408C275.16 33.0711 274.517 33.2628 274.211 33.4167V59.4863H270.469V31.1141C271.428 30.6922 272.753 30.2608 274.44 29.8195C276.129 29.3782 278.18 29.1576 280.598 29.1576" fill="#515254"/>
<path d="M256.312 60.1191C254.009 60.1191 251.976 59.7546 250.211 59.0263C248.445 58.2968 246.978 57.2513 245.808 55.8888C244.638 54.5274 243.745 52.8967 243.132 50.9976C242.518 49.098 242.211 46.9975 242.211 44.696C242.211 42.3552 242.528 40.2262 243.161 38.3077C243.793 36.3889 244.705 34.7389 245.894 33.3579C247.084 31.9768 248.523 30.9121 250.211 30.1637C251.899 29.4152 253.798 29.0411 255.907 29.0411C257.52 29.0411 259.026 29.1761 260.427 29.4447C261.827 29.7131 262.911 30.0583 263.677 30.4804L262.698 33.7027C261.932 33.3197 261.069 33.0121 260.11 32.7827C259.15 32.552 257.865 32.4374 256.253 32.4374C252.954 32.4374 250.45 33.5021 248.743 35.6316C247.037 37.7607 246.183 40.7816 246.183 44.696C246.183 46.4606 246.374 48.0816 246.757 49.5583C247.142 51.0357 247.764 52.3019 248.629 53.3565C249.491 54.412 250.604 55.2369 251.966 55.8321C253.329 56.4265 254.987 56.7236 256.944 56.7236C258.555 56.7236 259.908 56.5419 261.001 56.1773C262.094 55.8123 262.891 55.4965 263.39 55.228L264.196 58.4503C263.505 58.8334 262.422 59.2079 260.944 59.5725C259.468 59.937 257.923 60.1191 256.312 60.1191Z" fill="#515254"/>
<path d="M345.113 29.7319H353.803V32.8976H345.113V48.7235C345.113 50.4124 345.257 51.7842 345.544 52.8389C345.833 53.894 346.245 54.7095 346.781 55.2843C347.319 55.8606 347.971 56.2437 348.738 56.4366C349.506 56.6283 350.35 56.7236 351.271 56.7236C352.844 56.7236 354.11 56.5419 355.069 56.1773C356.029 55.8123 356.777 55.4772 357.313 55.1697L358.235 58.2778C357.697 58.6231 356.758 59.0162 355.414 59.4575C354.071 59.8988 352.614 60.1191 351.041 60.1191C349.198 60.1191 347.655 59.88 346.408 59.4001C345.162 58.9198 344.164 58.1914 343.415 57.2132C342.667 56.2344 342.14 55.0166 341.832 53.5583C341.525 52.1001 341.373 50.3734 341.373 48.3786V32.8976H338.207V29.7332H341.373V20.9847L345.113 20.2942V29.7319" fill="#515254"/>
<path d="M21.6489 81.3237H37.913V65.0586H21.6489V81.3237Z" fill="url(#paint0_linear_1077_45503)"/>
<path d="M37.9121 81.3242H54.1768V65.0591H37.9121V81.3242Z" fill="url(#paint1_linear_1077_45503)"/>
<path d="M54.1763 81.3242H70.4398V65.0591H54.1763V81.3242Z" fill="url(#paint2_linear_1077_45503)"/>
<path d="M5.38428 65.0591H21.6484V48.794H5.38428V65.0591Z" fill="url(#paint3_linear_1077_45503)"/>
<path d="M37.9121 65.0591H54.1768V48.794H37.9121V65.0591Z" fill="url(#paint4_linear_1077_45503)"/>
<path d="M54.1772 65.0591H70.4408V48.794H54.1772V65.0591Z" fill="url(#paint5_linear_1077_45503)"/>
<path d="M70.4414 65.0591H86.7058V48.794H70.4414V65.0591Z" fill="url(#paint6_linear_1077_45503)"/>
<path d="M70.4409 48.7969H86.7053V32.5302H70.4409V48.7969Z" fill="url(#paint7_linear_1077_45503)"/>
<path d="M70.4409 32.5317H86.7052V16.2683H70.4409V32.5317Z" fill="url(#paint8_linear_1077_45503)"/>
<path d="M5.38379 48.7969H21.6479V32.5302H5.38379V48.7969Z" fill="url(#paint9_linear_1077_45503)"/>
<path d="M5.38379 32.5317H21.6481V16.2683H5.38379V32.5317Z" fill="url(#paint10_linear_1077_45503)"/>
<path d="M37.9121 32.5317H54.1768V16.2683H37.9121V32.5317Z" fill="url(#paint11_linear_1077_45503)"/>
<defs>
<linearGradient id="paint0_linear_1077_45503" x1="21.649" y1="65.0585" x2="37.9147" y2="81.3232" gradientUnits="userSpaceOnUse">
<stop stop-color="#A11A6C"/>
<stop offset="1" stop-color="#79337A"/>
</linearGradient>
<linearGradient id="paint1_linear_1077_45503" x1="37.9122" y1="65.059" x2="54.1779" y2="81.3235" gradientUnits="userSpaceOnUse">
<stop stop-color="#7A3375"/>
<stop offset="1" stop-color="#553274"/>
</linearGradient>
<linearGradient id="paint2_linear_1077_45503" x1="54.1754" y1="65.0591" x2="70.4409" y2="81.3234" gradientUnits="userSpaceOnUse">
<stop stop-color="#A11A6C"/>
<stop offset="1" stop-color="#79337A"/>
</linearGradient>
<linearGradient id="paint3_linear_1077_45503" x1="5.38441" y1="48.794" x2="21.6504" y2="65.0583" gradientUnits="userSpaceOnUse">
<stop stop-color="#DB2A52"/>
<stop offset="1" stop-color="#C71E68"/>
</linearGradient>
<linearGradient id="paint4_linear_1077_45503" x1="37.9122" y1="48.794" x2="54.1782" y2="65.0585" gradientUnits="userSpaceOnUse">
<stop stop-color="#F36627"/>
<stop offset="1" stop-color="#F14E37"/>
</linearGradient>
<linearGradient id="paint5_linear_1077_45503" x1="54.1764" y1="48.7941" x2="70.4423" y2="65.0584" gradientUnits="userSpaceOnUse">
<stop stop-color="#DB2A52"/>
<stop offset="1" stop-color="#C71E68"/>
</linearGradient>
<linearGradient id="paint6_linear_1077_45503" x1="70.4414" y1="48.794" x2="86.7072" y2="65.0585" gradientUnits="userSpaceOnUse">
<stop stop-color="#DC3B2E"/>
<stop offset="1" stop-color="#D23136"/>
</linearGradient>
<linearGradient id="paint7_linear_1077_45503" x1="70.4406" y1="32.5301" x2="86.7071" y2="48.7951" gradientUnits="userSpaceOnUse">
<stop stop-color="#DB2A52"/>
<stop offset="1" stop-color="#C71E68"/>
</linearGradient>
<linearGradient id="paint8_linear_1077_45503" x1="70.4409" y1="16.2678" x2="86.7052" y2="32.5322" gradientUnits="userSpaceOnUse">
<stop stop-color="#F7912C"/>
<stop offset="1" stop-color="#F68631"/>
</linearGradient>
<linearGradient id="paint9_linear_1077_45503" x1="5.38363" y1="32.53" x2="21.6503" y2="48.7949" gradientUnits="userSpaceOnUse">
<stop stop-color="#F36627"/>
<stop offset="1" stop-color="#F14E37"/>
</linearGradient>
<linearGradient id="paint10_linear_1077_45503" x1="5.38392" y1="16.2678" x2="21.6484" y2="32.5323" gradientUnits="userSpaceOnUse">
<stop stop-color="#F7912C"/>
<stop offset="1" stop-color="#F68631"/>
</linearGradient>
<linearGradient id="paint11_linear_1077_45503" x1="37.9122" y1="16.2678" x2="54.1767" y2="32.5323" gradientUnits="userSpaceOnUse">
<stop stop-color="#DB2A52"/>
<stop offset="1" stop-color="#C71E68"/>
</linearGradient>
</defs>
</svg>
