<svg width="80" height="80" viewBox="0 0 80 80" fill="none" xmlns="http://www.w3.org/2000/svg">
<rect width="80" height="80" rx="10" fill="url(#paint0_linear_983_44289)"/>
<path d="M32.2995 58.9375C30.9388 58.9375 31.17 58.4054 30.7007 57.0636L26.6995 43.4246L57.4995 24.5" fill="#C8DAEA"/>
<path d="M32.3003 58.9376C33.3503 58.9376 33.8142 58.4403 34.4003 57.8501L40.0003 52.2103L33.015 47.8477" fill="#A9C9DD"/>
<path d="M33.0143 47.8483L49.9403 60.8001C51.8717 61.9039 53.2657 61.3324 53.7469 58.9428L60.6366 25.3162C61.342 22.3872 59.5586 21.0587 57.7108 21.9275L17.2543 38.0845C14.4928 39.2317 14.5089 40.8274 16.7509 41.5384L27.133 44.8945L51.1685 29.1892C52.3032 28.4766 53.3446 28.8597 52.4899 29.6454" fill="url(#paint1_linear_983_44289)"/>
<defs>
<linearGradient id="paint0_linear_983_44289" x1="60" y1="27.7778" x2="35.5556" y2="62.2222" gradientUnits="userSpaceOnUse">
<stop stop-color="#37AEE2"/>
<stop offset="1" stop-color="#1E96C8"/>
</linearGradient>
<linearGradient id="paint1_linear_983_44289" x1="45.2519" y1="38.9993" x2="52.2204" y2="54.3098" gradientUnits="userSpaceOnUse">
<stop stop-color="#EFF7FC"/>
<stop offset="1" stop-color="white"/>
</linearGradient>
</defs>
</svg>
