<svg width="352" height="128" viewBox="0 0 352 128" fill="none" xmlns="http://www.w3.org/2000/svg">
<path d="M347 0H5C2.23858 0 0 2.23858 0 5V123C0 125.761 2.23858 128 5 128H347C349.761 128 352 125.761 352 123V5C352 2.23858 349.761 0 347 0Z" fill="white"/>
<path fill-rule="evenodd" clip-rule="evenodd" d="M264.434 61.947H268.871V31.1148H264.434V61.947ZM304.401 42.2208L299.312 55.5886H299.159L293.883 42.2208H289.101L297.017 60.9036L292.506 71.2969H297.133L309.332 42.2208H304.401ZM279.234 58.4447C277.781 58.4447 275.753 57.6924 275.753 55.8254C275.753 53.4478 278.278 52.5352 280.459 52.5352C282.409 52.5352 283.326 52.9718 284.511 53.5662C284.168 56.4222 281.795 58.4447 279.234 58.4447ZM279.769 41.5475C276.556 41.5475 273.23 43.0149 271.853 46.2681L275.791 47.9724C276.632 46.2681 278.202 45.7107 279.845 45.7107C282.14 45.7107 284.473 47.1387 284.511 49.6791V49.9948C283.707 49.5188 281.988 48.806 279.883 48.806C275.638 48.806 271.318 51.2255 271.318 55.7464C271.318 59.8727 274.797 62.5314 278.699 62.5314C281.681 62.5314 283.326 61.1429 284.359 59.515H284.511V61.8951H288.796V50.0737C288.796 44.6008 284.856 41.5475 279.769 41.5475ZM252.346 45.9748H246.037V35.4063H252.346C255.663 35.4063 257.549 38.255 257.549 40.6893C257.549 43.0792 255.663 45.9748 252.346 45.9748ZM252.232 31.1148H241.6V61.947H246.037V50.2662H252.232C257.15 50.2662 261.984 46.5716 261.984 40.6893C261.984 34.8069 257.15 31.1148 252.232 31.1148ZM194.255 58.4496C191.189 58.4496 188.624 55.7883 188.624 52.1332C188.624 48.4385 191.189 45.7354 194.255 45.7354C197.282 45.7354 199.657 48.4385 199.657 52.1332C199.657 55.7883 197.282 58.4496 194.255 58.4496ZM199.351 43.9475H199.196C198.2 42.7168 196.285 41.6045 193.872 41.6045C188.814 41.6045 184.179 46.2117 184.179 52.1334C184.179 58.0133 188.814 62.5835 193.872 62.5835C196.285 62.5835 198.2 61.4712 199.196 60.1985H199.351V61.7104C199.351 65.7232 197.282 67.869 193.948 67.869C191.227 67.869 189.541 65.8416 188.854 64.1324L184.983 65.8021C186.093 68.5839 189.044 71.9999 193.948 71.9999C199.158 71.9999 203.564 68.8209 203.564 61.0741V42.2383H199.351V43.9475ZM206.63 61.947H211.074V31.1123H206.63V61.947ZM217.625 51.7757C217.509 47.7235 220.65 45.6567 222.912 45.6567C224.674 45.6567 226.167 46.5692 226.666 47.8813L217.625 51.7757ZM231.415 48.2785C230.574 45.9354 228.005 41.6045 222.757 41.6045C217.547 41.6045 213.219 45.854 213.219 52.094C213.219 57.9738 217.509 62.5835 223.256 62.5835C227.891 62.5835 230.574 59.6436 231.684 57.9344L228.236 55.5494C227.087 57.298 225.516 58.4498 223.256 58.4498C220.995 58.4498 219.385 57.377 218.353 55.2731L231.877 49.4698L231.415 48.2785ZM123.674 44.823V49.2723H133.942C133.635 51.7757 132.829 53.6033 131.604 54.8735C130.108 56.4248 127.773 58.134 123.674 58.134C117.353 58.134 112.411 52.8486 112.411 46.2929C112.411 39.7348 117.353 34.4518 123.674 34.4518C127.084 34.4518 129.573 35.8429 131.412 37.631L134.439 34.4913C131.873 31.9485 128.463 30 123.674 30C115.015 30 107.736 37.3128 107.736 46.2929C107.736 55.273 115.015 62.5834 123.674 62.5834C128.346 62.5834 131.873 60.9926 134.631 58.0132C137.466 55.0732 138.346 50.9421 138.346 47.6026C138.346 46.5692 138.27 45.6171 138.117 44.823H123.674ZM150.019 58.4496C146.954 58.4496 144.31 55.8278 144.31 52.0937C144.31 48.3177 146.954 45.7354 150.019 45.7354C153.085 45.7354 155.727 48.3177 155.727 52.0937C155.727 55.8278 153.085 58.4496 150.019 58.4496ZM150.019 41.6045C144.426 41.6045 139.865 46.0143 139.865 52.094C139.865 58.1341 144.426 62.5835 150.019 62.5835C155.612 62.5835 160.171 58.1341 160.171 52.094C160.171 46.0143 155.612 41.6045 150.019 41.6045ZM172.165 58.4496C169.1 58.4496 166.458 55.8278 166.458 52.0937C166.458 48.3177 169.1 45.7354 172.165 45.7354C175.231 45.7354 177.872 48.3177 177.872 52.0937C177.872 55.8278 175.231 58.4496 172.165 58.4496ZM172.165 41.6045C166.572 41.6045 162.014 46.0143 162.014 52.094C162.014 58.1341 166.572 62.5835 172.165 62.5835C177.758 62.5835 182.317 58.1341 182.317 52.094C182.317 46.0143 177.758 41.6045 172.165 41.6045Z" fill="black" fill-opacity="0.8"/>
<path fill-rule="evenodd" clip-rule="evenodd" d="M31.9561 33.0524C31.2143 33.864 30.7759 35.1277 30.7759 36.7669V95.2342C30.7759 96.8734 31.2143 98.1345 31.9561 98.9488L32.1422 99.1391L63.7247 66.3879V66.0019V65.6133L32.1422 32.8594L31.9561 33.0524Z" fill="url(#paint0_linear_3166_111014)"/>
<path fill-rule="evenodd" clip-rule="evenodd" d="M63.7246 65.6132V66.0018V66.3878L74.2495 77.3093L74.4917 77.1692L86.9615 69.8168C90.5251 67.7203 90.5251 64.2834 86.9615 62.1842L74.4917 54.8345L74.2521 54.6943L63.7246 65.6132Z" fill="url(#paint1_linear_3166_111014)"/>
<path fill-rule="evenodd" clip-rule="evenodd" d="M31.9561 98.9488C33.1286 100.239 35.0684 100.398 37.2529 99.1127L74.4917 77.1693L63.7246 66.002L31.9561 98.9488Z" fill="url(#paint2_linear_3166_111014)"/>
<path fill-rule="evenodd" clip-rule="evenodd" d="M31.9561 33.0522L63.7246 66.0017L74.4917 54.8317L37.2529 32.8883C36.2282 32.2855 35.257 32 34.3955 32C33.4192 32 32.578 32.3675 31.9561 33.0522Z" fill="url(#paint3_linear_3166_111014)"/>
<path d="M111.766 78.9375L116.195 87.5039L120.637 78.9375H123.203L117.32 89.625V96H115.059V89.625L109.176 78.9375H111.766ZM133.075 93.0703V83.3203H135.255V96H133.181L133.075 93.0703ZM133.486 90.3984L134.388 90.375C134.388 91.2188 134.298 92 134.118 92.7188C133.947 93.4297 133.665 94.0469 133.275 94.5703C132.884 95.0938 132.372 95.5039 131.74 95.8008C131.107 96.0898 130.337 96.2344 129.431 96.2344C128.814 96.2344 128.247 96.1445 127.732 95.9648C127.224 95.7852 126.786 95.5078 126.419 95.1328C126.052 94.7578 125.767 94.2695 125.564 93.668C125.368 93.0664 125.271 92.3438 125.271 91.5V83.3203H127.439V91.5234C127.439 92.0938 127.501 92.5664 127.626 92.9414C127.759 93.3086 127.935 93.6016 128.154 93.8203C128.38 94.0312 128.63 94.1797 128.904 94.2656C129.185 94.3516 129.474 94.3945 129.771 94.3945C130.693 94.3945 131.423 94.2188 131.962 93.8672C132.501 93.5078 132.888 93.0273 133.122 92.4258C133.365 91.8164 133.486 91.1406 133.486 90.3984ZM141.46 78V96H139.28V78H141.46ZM149.206 83.3203L143.674 89.2383L140.581 92.4492L140.405 90.1406L142.62 87.4922L146.557 83.3203H149.206ZM147.225 96L142.702 89.9531L143.827 88.0195L149.78 96H147.225ZM154.519 78V96H152.34V78H154.519ZM166.196 93.832V87.3047C166.196 86.8047 166.095 86.3711 165.892 86.0039C165.696 85.6289 165.4 85.3398 165.001 85.1367C164.603 84.9336 164.11 84.832 163.525 84.832C162.978 84.832 162.497 84.9258 162.083 85.1133C161.677 85.3008 161.357 85.5469 161.122 85.8516C160.896 86.1562 160.782 86.4844 160.782 86.8359H158.614C158.614 86.3828 158.732 85.9336 158.966 85.4883C159.2 85.043 159.536 84.6406 159.974 84.2812C160.419 83.9141 160.95 83.625 161.568 83.4141C162.193 83.1953 162.888 83.0859 163.653 83.0859C164.575 83.0859 165.388 83.2422 166.091 83.5547C166.802 83.8672 167.357 84.3398 167.755 84.9727C168.161 85.5977 168.364 86.3828 168.364 87.3281V93.2344C168.364 93.6562 168.4 94.1055 168.47 94.582C168.548 95.0586 168.661 95.4688 168.81 95.8125V96H166.548C166.439 95.75 166.353 95.418 166.29 95.0039C166.228 94.582 166.196 94.1914 166.196 93.832ZM166.571 88.3125L166.595 89.8359H164.403C163.786 89.8359 163.235 89.8867 162.751 89.9883C162.267 90.082 161.86 90.2266 161.532 90.4219C161.204 90.6172 160.954 90.8633 160.782 91.1602C160.61 91.4492 160.525 91.7891 160.525 92.1797C160.525 92.5781 160.614 92.9414 160.794 93.2695C160.974 93.5977 161.243 93.8594 161.603 94.0547C161.97 94.2422 162.419 94.3359 162.95 94.3359C163.614 94.3359 164.2 94.1953 164.708 93.9141C165.216 93.6328 165.618 93.2891 165.915 92.8828C166.22 92.4766 166.384 92.082 166.407 91.6992L167.333 92.7422C167.278 93.0703 167.13 93.4336 166.888 93.832C166.646 94.2305 166.321 94.6133 165.915 94.9805C165.517 95.3398 165.04 95.6406 164.485 95.8828C163.939 96.1172 163.321 96.2344 162.634 96.2344C161.775 96.2344 161.021 96.0664 160.372 95.7305C159.732 95.3945 159.232 94.9453 158.872 94.3828C158.521 93.8125 158.345 93.1758 158.345 92.4727C158.345 91.793 158.478 91.1953 158.743 90.6797C159.009 90.1562 159.392 89.7227 159.892 89.3789C160.392 89.0273 160.993 88.7617 161.696 88.582C162.4 88.4023 163.185 88.3125 164.052 88.3125H166.571ZM172.483 78H174.662V93.5391L174.475 96H172.483V78ZM183.229 89.5547V89.8008C183.229 90.7227 183.12 91.5781 182.901 92.3672C182.682 93.1484 182.362 93.8281 181.94 94.4062C181.518 94.9844 181.002 95.4336 180.393 95.7539C179.784 96.0742 179.084 96.2344 178.295 96.2344C177.491 96.2344 176.784 96.0977 176.174 95.8242C175.573 95.543 175.065 95.1406 174.651 94.6172C174.237 94.0938 173.905 93.4609 173.655 92.7188C173.412 91.9766 173.245 91.1406 173.151 90.2109V89.1328C173.245 88.1953 173.412 87.3555 173.655 86.6133C173.905 85.8711 174.237 85.2383 174.651 84.7148C175.065 84.1836 175.573 83.7812 176.174 83.5078C176.776 83.2266 177.475 83.0859 178.272 83.0859C179.069 83.0859 179.776 83.2422 180.393 83.5547C181.01 83.8594 181.526 84.2969 181.94 84.8672C182.362 85.4375 182.682 86.1211 182.901 86.918C183.12 87.707 183.229 88.5859 183.229 89.5547ZM181.049 89.8008V89.5547C181.049 88.9219 180.991 88.3281 180.873 87.7734C180.756 87.2109 180.569 86.7188 180.311 86.2969C180.053 85.8672 179.713 85.5312 179.291 85.2891C178.87 85.0391 178.35 84.9141 177.733 84.9141C177.186 84.9141 176.709 85.0078 176.303 85.1953C175.905 85.3828 175.565 85.6367 175.284 85.957C175.002 86.2695 174.772 86.6289 174.592 87.0352C174.42 87.4336 174.291 87.8477 174.205 88.2773V91.1016C174.33 91.6484 174.534 92.1758 174.815 92.6836C175.104 93.1836 175.487 93.5938 175.963 93.9141C176.448 94.2344 177.045 94.3945 177.756 94.3945C178.342 94.3945 178.842 94.2773 179.256 94.043C179.678 93.8008 180.018 93.4688 180.276 93.0469C180.541 92.625 180.737 92.1367 180.862 91.582C180.987 91.0273 181.049 90.4336 181.049 89.8008ZM192.79 89.8008V89.5312C192.79 88.6172 192.923 87.7695 193.188 86.9883C193.454 86.1992 193.837 85.5156 194.337 84.9375C194.837 84.3516 195.442 83.8984 196.153 83.5781C196.864 83.25 197.661 83.0859 198.544 83.0859C199.435 83.0859 200.235 83.25 200.946 83.5781C201.665 83.8984 202.274 84.3516 202.774 84.9375C203.282 85.5156 203.669 86.1992 203.935 86.9883C204.2 87.7695 204.333 88.6172 204.333 89.5312V89.8008C204.333 90.7148 204.2 91.5625 203.935 92.3438C203.669 93.125 203.282 93.8086 202.774 94.3945C202.274 94.9727 201.669 95.4258 200.958 95.7539C200.255 96.0742 199.458 96.2344 198.567 96.2344C197.677 96.2344 196.876 96.0742 196.165 95.7539C195.454 95.4258 194.845 94.9727 194.337 94.3945C193.837 93.8086 193.454 93.125 193.188 92.3438C192.923 91.5625 192.79 90.7148 192.79 89.8008ZM194.958 89.5312V89.8008C194.958 90.4336 195.032 91.0312 195.181 91.5938C195.329 92.1484 195.552 92.6406 195.849 93.0703C196.153 93.5 196.532 93.8398 196.985 94.0898C197.438 94.332 197.966 94.4531 198.567 94.4531C199.161 94.4531 199.681 94.332 200.126 94.0898C200.579 93.8398 200.954 93.5 201.251 93.0703C201.548 92.6406 201.77 92.1484 201.919 91.5938C202.075 91.0312 202.153 90.4336 202.153 89.8008V89.5312C202.153 88.9062 202.075 88.3164 201.919 87.7617C201.77 87.1992 201.544 86.7031 201.239 86.2734C200.942 85.8359 200.567 85.4922 200.114 85.2422C199.669 84.9922 199.145 84.8672 198.544 84.8672C197.95 84.8672 197.427 84.9922 196.974 85.2422C196.528 85.4922 196.153 85.8359 195.849 86.2734C195.552 86.7031 195.329 87.1992 195.181 87.7617C195.032 88.3164 194.958 88.9062 194.958 89.5312ZM210.127 78V96H207.948V78H210.127ZM216.683 83.3203V96H214.503V83.3203H216.683ZM214.339 79.957C214.339 79.6055 214.445 79.3086 214.656 79.0664C214.875 78.8242 215.195 78.7031 215.617 78.7031C216.031 78.7031 216.347 78.8242 216.566 79.0664C216.793 79.3086 216.906 79.6055 216.906 79.957C216.906 80.293 216.793 80.582 216.566 80.8242C216.347 81.0586 216.031 81.1758 215.617 81.1758C215.195 81.1758 214.875 81.0586 214.656 80.8242C214.445 80.582 214.339 80.293 214.339 79.957ZM223.052 86.0273V96H220.884V83.3203H222.934L223.052 86.0273ZM222.536 89.1797L221.634 89.1445C221.641 88.2773 221.77 87.4766 222.02 86.7422C222.27 86 222.622 85.3555 223.075 84.8086C223.528 84.2617 224.067 83.8398 224.692 83.543C225.325 83.2383 226.024 83.0859 226.79 83.0859C227.415 83.0859 227.977 83.1719 228.477 83.3438C228.977 83.5078 229.403 83.7734 229.755 84.1406C230.114 84.5078 230.387 84.9844 230.575 85.5703C230.762 86.1484 230.856 86.8555 230.856 87.6914V96H228.677V87.668C228.677 87.0039 228.579 86.4727 228.384 86.0742C228.188 85.668 227.903 85.375 227.528 85.1953C227.153 85.0078 226.692 84.9141 226.145 84.9141C225.606 84.9141 225.114 85.0273 224.669 85.2539C224.231 85.4805 223.852 85.793 223.532 86.1914C223.22 86.5898 222.973 87.0469 222.794 87.5625C222.622 88.0703 222.536 88.6094 222.536 89.1797ZM243.084 83.3203H245.053V95.7305C245.053 96.8477 244.826 97.8008 244.373 98.5898C243.92 99.3789 243.287 99.9766 242.475 100.383C241.67 100.797 240.74 101.004 239.686 101.004C239.248 101.004 238.732 100.934 238.139 100.793C237.553 100.66 236.975 100.43 236.404 100.102C235.842 99.7812 235.369 99.3477 234.986 98.8008L236.123 97.5117C236.654 98.1523 237.209 98.5977 237.787 98.8477C238.373 99.0977 238.951 99.2227 239.522 99.2227C240.209 99.2227 240.803 99.0938 241.303 98.8359C241.803 98.5781 242.19 98.1953 242.463 97.6875C242.744 97.1875 242.885 96.5703 242.885 95.8359V86.1094L243.084 83.3203ZM234.354 89.8008V89.5547C234.354 88.5859 234.467 87.707 234.693 86.918C234.928 86.1211 235.26 85.4375 235.69 84.8672C236.127 84.2969 236.654 83.8594 237.272 83.5547C237.889 83.2422 238.584 83.0859 239.357 83.0859C240.154 83.0859 240.85 83.2266 241.443 83.5078C242.045 83.7812 242.553 84.1836 242.967 84.7148C243.389 85.2383 243.721 85.8711 243.963 86.6133C244.205 87.3555 244.373 88.1953 244.467 89.1328V90.2109C244.381 91.1406 244.213 91.9766 243.963 92.7188C243.721 93.4609 243.389 94.0938 242.967 94.6172C242.553 95.1406 242.045 95.543 241.443 95.8242C240.842 96.0977 240.139 96.2344 239.334 96.2344C238.576 96.2344 237.889 96.0742 237.272 95.7539C236.662 95.4336 236.139 94.9844 235.701 94.4062C235.264 93.8281 234.928 93.1484 234.693 92.3672C234.467 91.5781 234.354 90.7227 234.354 89.8008ZM236.522 89.5547V89.8008C236.522 90.4336 236.584 91.0273 236.709 91.582C236.842 92.1367 237.041 92.625 237.307 93.0469C237.58 93.4688 237.928 93.8008 238.35 94.043C238.772 94.2773 239.275 94.3945 239.861 94.3945C240.58 94.3945 241.174 94.2422 241.643 93.9375C242.111 93.6328 242.482 93.2305 242.756 92.7305C243.037 92.2305 243.256 91.6875 243.412 91.1016V88.2773C243.326 87.8477 243.193 87.4336 243.014 87.0352C242.842 86.6289 242.615 86.2695 242.334 85.957C242.061 85.6367 241.721 85.3828 241.315 85.1953C240.908 85.0078 240.432 84.9141 239.885 84.9141C239.291 84.9141 238.779 85.0391 238.35 85.2891C237.928 85.5312 237.58 85.8672 237.307 86.2969C237.041 86.7188 236.842 87.2109 236.709 87.7734C236.584 88.3281 236.522 88.9219 236.522 89.5547Z" fill="#2C2D31"/>
<defs>
<linearGradient id="paint0_linear_3166_111014" x1="49.9251" y1="-7.15456" x2="-1.00216" y2="5.9089" gradientUnits="userSpaceOnUse">
<stop stop-color="#00A1FF"/>
<stop offset="0.2601" stop-color="#00BEFF"/>
<stop offset="0.5122" stop-color="#00D2FF"/>
<stop offset="0.7604" stop-color="#00DFFF"/>
<stop offset="1" stop-color="#00E3FF"/>
</linearGradient>
<linearGradient id="paint1_linear_3166_111014" x1="91.7065" y1="38.9403" x2="29.9397" y2="38.9403" gradientUnits="userSpaceOnUse">
<stop stop-color="#FFE000"/>
<stop offset="0.4087" stop-color="#FFBD00"/>
<stop offset="0.7754" stop-color="#FFA500"/>
<stop offset="1" stop-color="#FF9C00"/>
</linearGradient>
<linearGradient id="paint2_linear_3166_111014" x1="30.8897" y1="48.693" x2="-12.1559" y2="118.599" gradientUnits="userSpaceOnUse">
<stop stop-color="#FF3A44"/>
<stop offset="1" stop-color="#C31162"/>
</linearGradient>
<linearGradient id="paint3_linear_3166_111014" x1="7.10226" y1="24.1679" x2="26.368" y2="55.1125" gradientUnits="userSpaceOnUse">
<stop stop-color="#32A071"/>
<stop offset="0.0685" stop-color="#2DA771"/>
<stop offset="0.4762" stop-color="#15CF74"/>
<stop offset="0.8009" stop-color="#06E775"/>
<stop offset="1" stop-color="#00F076"/>
</linearGradient>
</defs>
</svg>
