<?xml version="1.0" encoding="utf-8"?><svg xmlns="http://www.w3.org/2000/svg" xmlns:xlink="http://www.w3.org/1999/xlink"><symbol viewBox="0 0 24 24" id="add" xmlns="http://www.w3.org/2000/svg">
    <path d="M13 3h-2v8H3v2h8v8h2v-8h8v-2h-8V3z"/>
</symbol><symbol viewBox="0 0 24 24" id="angle-down" xmlns="http://www.w3.org/2000/svg">
    <path clip-rule="evenodd" d="M11.293 17.414l-7-7L5.707 9 12 15.293 18.293 9l1.414 1.414-7 7a1 1 0 01-1.414 0z"/>
</symbol><symbol viewBox="0 0 24 24" id="angle-left" xmlns="http://www.w3.org/2000/svg">
    <path clip-rule="evenodd" d="M7.293 12.414l7 7L15.707 18l-6.293-6.293 6.293-6.293L14.293 4l-7 7a1 1 0 000 1.414z"/>
</symbol><symbol viewBox="0 0 24 24" id="angle-right" xmlns="http://www.w3.org/2000/svg">
    <path clip-rule="evenodd" d="M16.414 12.354l-7 7L8 17.939l6.293-6.292L8 5.354l1.414-1.415 7 7a1 1 0 010 1.415z"/>
</symbol><symbol viewBox="0 0 24 24" id="angle-up" xmlns="http://www.w3.org/2000/svg">
    <path clip-rule="evenodd" d="M11.293 7.293l-7 7 1.414 1.414L12 9.414l6.293 6.293 1.414-1.414-7-7a1 1 0 00-1.414 0z"/>
</symbol><symbol viewBox="0 0 24 24" id="arrow-down" xmlns="http://www.w3.org/2000/svg">
    <path d="M13 2h-2v16.485l-5.551-5.832L4 14.03l7.289 7.658a1 1 0 001.447.001l7.305-7.658-1.447-1.38L13 18.516V2z"/>
</symbol><symbol viewBox="0 0 24 24" id="arrow-left" xmlns="http://www.w3.org/2000/svg">
    <path d="M5.494 11l5.853-5.571L9.97 3.98 2.31 11.27a1 1 0 00-.001 1.448l7.658 7.304 1.38-1.447L5.505 13 22 13.001v-2H5.494z"/>
</symbol><symbol viewBox="0 0 24 24" id="arrow-right" xmlns="http://www.w3.org/2000/svg">
    <path d="M2 11.02v2h16.485l-5.832 5.552 1.378 1.449 7.658-7.289a1 1 0 00.001-1.448L14.032 3.98l-1.38 1.448 5.864 5.594H2z"/>
</symbol><symbol viewBox="0 0 24 24" id="arrow-up" xmlns="http://www.w3.org/2000/svg">
    <path d="M11.041 22h2V5.515l5.551 5.832 1.45-1.378-7.29-7.658a1 1 0 00-1.447-.001L4 9.968l1.447 1.38 5.594-5.864V22z"/>
</symbol><symbol viewBox="0 0 24 24" id="arrows-left-right" xmlns="http://www.w3.org/2000/svg">
    <path clip-rule="evenodd" d="M7.414 8l2.293 2.293-1.414 1.414-4-4a1 1 0 010-1.414l4-4 1.414 1.414L7.414 6H19v2H7.414zm8.293 4.293l4 4a1 1 0 010 1.414l-4 4-1.414-1.414L16.586 18H5v-2h11.586l-2.293-2.293 1.414-1.414z"/>
</symbol><symbol viewBox="0 0 24 24" id="arrows-top-down" xmlns="http://www.w3.org/2000/svg">
    <path clip-rule="evenodd" d="M8 16.586l2.293-2.293 1.414 1.414-4 4a1 1 0 01-1.414 0l-4-4 1.414-1.414L6 16.586V5h2v11.586zm4.293-8.293l4-4a1 1 0 011.414 0l4 4-1.414 1.414L18 7.414V19h-2V7.414l-2.293 2.293-1.414-1.414z"/>
</symbol><symbol viewBox="0 0 24 24" id="back" xmlns="http://www.w3.org/2000/svg">
    <path d="M5.494 11l5.853-5.571L9.97 3.98 2.31 11.27a1 1 0 00-.001 1.448l7.658 7.304 1.38-1.447L5.505 13 22 13.001v-2H5.494z"/>
</symbol><symbol viewBox="0 0 25 24" id="basic-share" xmlns="http://www.w3.org/2000/svg">
    <path d="M6 15a3.478 3.478 0 002.357-.93l6.26 3.578a3.52 3.52 0 101.026-1.717l-6.26-3.577c.066-.251.102-.509.108-.768l6.151-3.515A3.489 3.489 0 1014.5 5.5c.004.288.043.574.117.853L8.933 9.6A3.5 3.5 0 106 15z"/>
</symbol><symbol viewBox="0 0 24 24" id="branch-cabinet" xmlns="http://www.w3.org/2000/svg">
    <path clip-rule="evenodd" d="M11.514 2.126a1 1 0 01.972 0l9 5A1 1 0 0122 8v2a1 1 0 01-1 1H3a1 1 0 01-1-1V8a1 1 0 01.514-.874l9-5zM4 8.588V9h16v-.412l-8-4.444-8 4.444z"/>
    <path d="M4 13h2v5H4v-5zM10 22v-2H2v2h8z"/>
    <path clip-rule="evenodd" d="M11.293 12.293a1 1 0 01.831-.285l8 1a1 1 0 01.583 1.7L19.414 16l2.293 2.293a1 1 0 010 1.414l-3 3a1 1 0 01-1.414 0L15 20.414l-1.293 1.293a1 1 0 01-1.7-.583l-1-8a1 1 0 01.286-.831zm1.859 1.859l.587 4.695.554-.554a1 1 0 011.414 0L18 20.586 19.586 19l-2.293-2.293a1 1 0 010-1.414l.554-.554-4.695-.587z"/>
</symbol><symbol viewBox="0 0 24 24" id="briefcase-interest" xmlns="http://www.w3.org/2000/svg">
    <path clip-rule="evenodd" d="M9 2.5a2 2 0 00-2 2v2H3a1 1 0 00-1 1v12a1 1 0 001 1h5v-2H4v-10h16v2h2v-3a1 1 0 00-1-1h-4v-2a2 2 0 00-2-2H9zm6 4v-2H9v2h6z"/>
    <path d="M12.207 22.207l9-9-1.414-1.414-9 9 1.414 1.414zM12 12a2 2 0 100 4 2 2 0 000-4zM18 20a2 2 0 114 0 2 2 0 01-4 0z"/>
</symbol><symbol viewBox="0 0 24 24" id="calculator" xmlns="http://www.w3.org/2000/svg">
    <path clip-rule="evenodd" d="M6 2a3 3 0 00-3 3v14a3 3 0 003 3h12a3 3 0 003-3V5a3 3 0 00-3-3H6zM5 5a1 1 0 011-1h12a1 1 0 011 1v14a1 1 0 01-1 1H6a1 1 0 01-1-1V5z"/>
    <path d="M18 12h-3v6h3v-6zM12 14v-2h2v2h-2zM11 12H9v2h2v-2zM6 12h2v2H6v-2zM12 18v-2h2v2h-2zM11 16H9v2h2v-2zM6 16h2v2H6v-2zM18 10V6H6v4h12z"/>
</symbol><symbol viewBox="0 0 24 24" id="calendar" xmlns="http://www.w3.org/2000/svg">
    <path d="M10 3v2h4V3h2v2h4a1 1 0 011 1v14a1 1 0 01-1 1H4a1 1 0 01-1-1V6a1 1 0 011-1h4V3h2zm8.999 10h-14L5 19h14l-.001-6zM16 15a1 1 0 110 2 1 1 0 010-2zM8 7H5l-.001 4h14L19 7h-3v2h-2V7h-4v2H8V7z"/>
</symbol><symbol viewBox="0 0 24 24" id="calendar-done" xmlns="http://www.w3.org/2000/svg">
    <path clip-rule="evenodd" d="M8 3v2H4a1 1 0 00-1 1v7h16v6h-7v2h8a1 1 0 001-1V6a1 1 0 00-1-1h-4V3h-2v2h-4V3H8zm11 4h-3v2h-2V7h-4v2H8V7H5v4h14V7z"/>
    <path d="M17 16a1 1 0 11-2 0 1 1 0 012 0zM7.914 21.5l5-5-1.414-1.414-4.293 4.293-2.793-2.793L3 18l3.5 3.5a1 1 0 001.414 0z"/>
</symbol><symbol viewBox="0 0 24 24" id="calendar-start" xmlns="http://www.w3.org/2000/svg">
    <path clip-rule="evenodd" d="M8 3v2H4a1 1 0 00-1 1v7h16v6h-7v2h8a1 1 0 001-1V6a1 1 0 00-1-1h-4V3h-2v2h-4V3H8zm11 4h-3v2h-2V7h-4v2H8V7H5v4h14V7z"/>
    <path d="M17 16a1 1 0 11-2 0 1 1 0 012 0zM3.293 17.414l2.293 2.293L3.293 22l1.414 1.414 3-3a1 1 0 000-1.414l-3-3-1.414 1.414z"/>
</symbol><symbol viewBox="0 0 24 24" id="cancel" xmlns="http://www.w3.org/2000/svg">
    <path clip-rule="evenodd" d="M12 2C6.477 2 2 6.477 2 12s4.477 10 10 10 10-4.477 10-10S17.523 2 12 2zm2.793 14.207L12 13.414l-2.793 2.793-1.414-1.414L10.586 12 7.793 9.207l1.414-1.414L12 10.586l2.793-2.793 1.414 1.414L13.414 12l2.793 2.793-1.414 1.414z" opacity=".3"/>
</symbol><symbol viewBox="0 0 48 48" id="cancel-xl" xmlns="http://www.w3.org/2000/svg">
    <path d="M33.9 26H14.1v-4h19.8v4z"/>
    <path clip-rule="evenodd" d="M24 4C12.954 4 4 12.954 4 24s8.954 20 20 20 20-8.954 20-20S35.046 4 24 4zM8 24c0-8.837 7.163-16 16-16s16 7.163 16 16-7.163 16-16 16S8 32.837 8 24z"/>
</symbol><symbol viewBox="0 0 24 24" id="card" xmlns="http://www.w3.org/2000/svg">
    <path d="M6 14h4.5v-2H6v2z"/>
    <path clip-rule="evenodd" d="M5 4a3 3 0 00-3 3v10a3 3 0 003 3h14a3 3 0 003-3V7a3 3 0 00-3-3H5zM4 7a1 1 0 011-1h14a1 1 0 011 1v1H4V7zm0 3h16v7a1 1 0 01-1 1H5a1 1 0 01-1-1v-7z"/>
</symbol><symbol viewBox="0 0 24 24" id="cards" xmlns="http://www.w3.org/2000/svg">
    <path d="M6 14h4.5v-2H6v2z"/>
    <path clip-rule="evenodd" d="M5 4a3 3 0 00-3 3v10a3 3 0 003 3h14a3 3 0 003-3V7a3 3 0 00-3-3H5zM4 7a1 1 0 011-1h14a1 1 0 011 1v1H4V7zm0 3h16v7a1 1 0 01-1 1H5a1 1 0 01-1-1v-7z"/>
</symbol><symbol viewBox="0 0 48 48" id="chat-2-xl" xmlns="http://www.w3.org/2000/svg">
    <path d="M40 6a2 2 0 012 2v28a2 2 0 01-2 2H24.667L17.2 43.6c-1.318.989-3.2.048-3.2-1.6v-4H8a2 2 0 01-2-2V8a2 2 0 012-2h32zm-2 4H10v24h6a2 2 0 012 2v2l4.8-3.6A2 2 0 0124 34h14V10zm-8 14v4H14v-4h16zm4-8v4H14v-4h20z"/>
</symbol><symbol viewBox="0 0 48 48" id="chat-ask" xmlns="http://www.w3.org/2000/svg">
    <path d="M19.023 13.693c-1.148 1.021-1.74 2.393-1.777 4.116h3.705c.046-.775.31-1.39.793-1.846.483-.465 1.117-.697 1.9-.697.775 0 1.404.21 1.887.629.474.419.711.957.711 1.613 0 .647-.164 1.18-.492 1.6-.319.419-.92.893-1.805 1.421-.957.565-1.627 1.18-2.01 1.846-.391.702-.542 1.581-.45 2.639l.027.793h3.623v-.725c0-.674.16-1.221.478-1.64.32-.42.934-.894 1.846-1.422 1.95-1.149 2.926-2.694 2.926-4.635 0-1.568-.593-2.84-1.778-3.815-1.203-.984-2.775-1.476-4.716-1.476-2.06 0-3.683.533-4.868 1.6zM21.799 31.713c.428.42.952.629 1.572.629.62 0 1.149-.21 1.586-.63.438-.41.656-.915.656-1.517a2.04 2.04 0 00-.656-1.53 2.235 2.235 0 00-1.586-.616c-.62 0-1.144.205-1.572.615a2.04 2.04 0 00-.656 1.531c0 .602.218 1.108.656 1.518z"/>
    <path clip-rule="evenodd" d="M6 4a2 2 0 00-2 2v32a2 2 0 002 2h8v4a2 2 0 003.2 1.6l7.467-5.6H42a2 2 0 002-2V6a2 2 0 00-2-2H6zm2 32V8h32v28H24a2 2 0 00-1.2.4L18 40v-2a2 2 0 00-2-2H8z"/>
</symbol><symbol viewBox="0 0 24 25" id="checkmark-ring" xmlns="http://www.w3.org/2000/svg">
    <path d="M11.707 15.707l5-5-1.414-1.414L11 13.586l-2.793-2.793-1.414 1.414 3.5 3.5a1 1 0 001.414 0z"/>
    <path clip-rule="evenodd" d="M12 2.5c-5.523 0-10 4.477-10 10s4.477 10 10 10 10-4.477 10-10-4.477-10-10-10zm-8 10a8 8 0 1116 0 8 8 0 01-16 0z"/>
</symbol><symbol viewBox="0 0 48 48" id="checkmark-ring-xl" xmlns="http://www.w3.org/2000/svg">
    <path d="M23.414 30.414l10-10-2.828-2.828L22 26.172l-5.586-5.586-2.828 2.828 7 7a2 2 0 002.828 0z"/>
    <path clip-rule="evenodd" d="M24 4C12.954 4 4 12.954 4 24s8.954 20 20 20 20-8.954 20-20S35.046 4 24 4zM8 24c0-8.837 7.163-16 16-16s16 7.163 16 16-7.163 16-16 16S8 32.837 8 24z"/>
</symbol><symbol viewBox="0 0 24 24" id="close" xmlns="http://www.w3.org/2000/svg">
    <path opacity=".5" clip-rule="evenodd" d="M12 2C6.477 2 2 6.477 2 12s4.477 10 10 10 10-4.477 10-10S17.523 2 12 2zm2.793 14.207L12 13.414l-2.793 2.793-1.414-1.414L10.586 12 7.793 9.207l1.414-1.414L12 10.586l2.793-2.793 1.414 1.414L13.414 12l2.793 2.793-1.414 1.414z"/>
</symbol><symbol viewBox="0 0 24 24" id="close-x" xmlns="http://www.w3.org/2000/svg">
    <path opacity=".5" clip-rule="evenodd" d="M12 2C6.477 2 2 6.477 2 12s4.477 10 10 10 10-4.477 10-10S17.523 2 12 2zm2.793 14.207L12 13.414l-2.793 2.793-1.414-1.414L10.586 12 7.793 9.207l1.414-1.414L12 10.586l2.793-2.793 1.414 1.414L13.414 12l2.793 2.793-1.414 1.414z"/>
</symbol><symbol viewBox="0 0 24 24" id="cnf" xmlns="http://www.w3.org/2000/svg">
    <path d="M9 20H8V7c0-.8.3-1.6.9-2.1.5-.6 1.3-.9 2.1-.9h7v2h-7c-.3 0-.5.1-.7.3-.2.2-.3.4-.3.7v13H9z"/>
    <path d="M12 16H6v-1-1h6v2zM17 12H9c-.6 0-1-.4-1-1s.4-1 1-1h8v2z"/>
</symbol><symbol viewBox="0 0 24 24" id="deposit" xmlns="http://www.w3.org/2000/svg">
    <path clip-rule="evenodd" d="M3 4a1 1 0 011-1h16a1 1 0 011 1v16a1 1 0 01-1 1h-1v2h-2v-2H7v2H5v-2H4a1 1 0 01-1-1V4zm2 1v14h14v-4h-2v1a1 1 0 01-1 1H8a1 1 0 01-1-1V8a1 1 0 011-1h8a1 1 0 011 1v1h2V5H5zm12 8h2v-2h-2v2zM9 9v2h2v2H9v2h6V9H9z"/>
</symbol><symbol viewBox="0 0 24 24" id="doc-search" xmlns="http://www.w3.org/2000/svg">
    <path clip-rule="evenodd" d="M20 3a1 1 0 00-1-1H5a1 1 0 00-1 1v18a1 1 0 001 1h6v-2H6V4h12v5h2V3z"/>
    <path clip-rule="evenodd" d="M12 16a5 5 0 119.172 2.757l2.535 2.536-1.414 1.414-2.536-2.535A5 5 0 0112 16zm5-3a3 3 0 100 6 3 3 0 000-6z"/>
</symbol><symbol viewBox="0 0 24 24" id="dollar" xmlns="http://www.w3.org/2000/svg">
    <path d="M14 4h-1V2h-2v2h-1a4 4 0 00-4 4v1a4 4 0 004 4h4a2 2 0 012 2v1a2 2 0 01-2 2h-4a2 2 0 01-2-2H6a4 4 0 004 4h1v2h2v-2h1a4 4 0 004-4v-1a4 4 0 00-4-4h-4a2 2 0 01-2-2V8a2 2 0 012-2h4a2 2 0 012 2h2a4 4 0 00-4-4z"/>
</symbol><symbol viewBox="0 0 24 24" id="download" xmlns="http://www.w3.org/2000/svg">
    <path d="M7.214 8.793L5.8 10.207l5.5 5.5a1 1 0 001.414 0l5.5-5.5L16.8 8.793l-3.8 3.8V3h-2v9.579L7.214 8.793z"/>
    <path d="M21 12h-2v7H5v-7H3v8a1 1 0 001 1h16a1 1 0 001-1v-8z"/>
</symbol><symbol viewBox="0 0 24 24" id="enter" xmlns="http://www.w3.org/2000/svg">
    <path clip-rule="evenodd" d="M19 2H4v2h12.15l-2.775 2.22A1 1 0 0013 7v11H4v2h9v1a1 1 0 001.625.78l5-4A1 1 0 0020 17V3a1 1 0 00-1-1zm-4 5.48l3-2.4v11.44l-3 2.4V7.48z"/>
    <path d="M10.707 11.707a1 1 0 000-1.414l-4-4-1.414 1.414L7.586 10H2v2h5.586l-2.293 2.293 1.414 1.414 4-4z"/>
</symbol><symbol viewBox="0 0 24 24" id="euro" xmlns="http://www.w3.org/2000/svg">
    <path d="M10.556 3.685a9 9 0 019.808 1.951L18.95 7.05A7 7 0 007.675 9H17l-1 2H7.072a7 7 0 000 2H15l-1 2H7.675a6.998 6.998 0 007.69 3.866 7 7 0 003.585-1.916l1.414 1.414A9.001 9.001 0 015.514 15H3v-2h2.056a9 9 0 010-2H3V9h2.515a9 9 0 015.04-5.315z"/>
</symbol><symbol viewBox="0 0 48 48" id="exchange" xmlns="http://www.w3.org/2000/svg">
    <path d="M34 4V2h4v2a6 6 0 016 6h-4a2 2 0 00-2-2h-4a2 2 0 100 4h4a6 6 0 010 12v2h-4v-2a6 6 0 01-6-6h4a2 2 0 002 2h4a2 2 0 100-4h-4a6 6 0 010-12zM13.346 26.619a6 6 0 016.897 1.138l2.828-2.828A10 10 0 006.202 30H4l-2 4h4.202a10 10 0 0018.458 3l-3.464-2a6 6 0 01-10.853-1H16l2-4h-7.657a5.991 5.991 0 013.003-3.381zM10.545 19.859A16 16 0 0126 8V4A20 20 0 006.682 18.824l3.863 1.035zM35.74 36.694a16 16 0 005.715-8.553l3.864 1.035A20 20 0 0126 44v-4a16 16 0 009.74-3.306z"/>
</symbol><symbol viewBox="0 0 24 24" id="exchange-1" xmlns="http://www.w3.org/2000/svg">
    <path d="M17 2V1h2v1a3 3 0 013 3h-2a1 1 0 00-1-1h-2a1 1 0 100 2h2a3 3 0 110 6v1h-2v-1a3 3 0 01-3-3h2a1 1 0 001 1h2a1 1 0 100-2h-2a3 3 0 110-6zM6.673 13.31a3 3 0 013.448.569l1.415-1.415A5 5 0 003.1 15H2l-1 2h2.101a5 5 0 009.23 1.5l-1.733-1a3 3 0 01-5.426-.5H8l1-2H5.172a3.003 3.003 0 011.501-1.69zM5.273 9.93A8 8 0 0113 4V2a10 10 0 00-9.66 7.412l1.933.518zM17.87 18.347a8 8 0 002.857-4.276l1.932.517A10 10 0 0113 22v-2a8 8 0 004.87-1.653z"/>
</symbol><symbol viewBox="0 0 24 24" id="exit" xmlns="http://www.w3.org/2000/svg">
    <path clip-rule="evenodd" d="M4 2h15v2H6.85l2.775 2.22A1 1 0 0110 7v11h9v2h-9v1a1 1 0 01-1.625.78l-5-4A1 1 0 013 17V3a1 1 0 011-1zm4 5.48l-3-2.4v11.44l3 2.4V7.48z"/>
    <path d="M20.707 11.707a1 1 0 000-1.414l-4-4-1.414 1.414L17.586 10H12v2h5.586l-2.293 2.293 1.414 1.414 4-4z"/>
</symbol><symbol viewBox="0 0 24 24" id="eye" xmlns="http://www.w3.org/2000/svg">
    <path clip-rule="evenodd" d="M12 15a3 3 0 110-6 3 3 0 010 6zm0-2a1 1 0 100-2 1 1 0 000 2z"/>
    <path clip-rule="evenodd" d="M12 19c-3.315 0-6.57-2.17-9.795-6.393a1 1 0 010-1.214C5.43 7.17 8.685 5 12 5c3.315 0 6.57 2.17 9.795 6.393a1 1 0 010 1.214C18.57 16.83 15.315 19 12 19zm0-2c2.434 0 5.019-1.634 7.73-5-2.711-3.366-5.296-5-7.73-5s-5.019 1.634-7.73 5c2.711 3.366 5.296 5 7.73 5z"/>
</symbol><symbol viewBox="0 0 24 24" id="eye-closed" xmlns="http://www.w3.org/2000/svg">
    <path clip-rule="evenodd" d="M7.662 5.955L5.707 4 4.293 5.414l1.694 1.694C4.721 8.123 3.461 9.456 2.205 11.1a1 1 0 000 1.214c3.225 4.223 6.48 6.393 9.795 6.393 1.457 0 2.902-.419 4.338-1.247l1.955 1.954L19.707 18l-1.694-1.694c1.266-1.015 2.526-2.348 3.782-3.992a1 1 0 000-1.214C18.57 6.877 15.315 4.707 12 4.707c-1.457 0-2.902.42-4.338 1.248zM7.41 8.532c-1.027.794-2.074 1.85-3.14 3.175 2.71 3.366 5.295 5 7.729 5 .932 0 1.886-.24 2.861-.724l-7.45-7.451zm9.178 6.35l-7.45-7.45c.975-.485 1.929-.725 2.861-.725 2.434 0 5.019 1.634 7.73 5-1.067 1.325-2.114 2.381-3.14 3.175z" opacity=".3"/>
</symbol><symbol viewBox="0 0 24 24" id="eye-off" xmlns="http://www.w3.org/2000/svg">
    <path d="M12 21C4.5 21 .3 12.8.1 12.4c-.1-.3-.1-.6 0-.9C1.4 9.1 3.2 7 5.5 5.3c.4-.4 1-.3 1.4.2.3.4.3 1.1-.2 1.4C4.8 8.3 3.3 10 2.1 12c.9 1.6 4.5 7 9.9 7 1.9 0 3.8-.7 5.3-1.9.4-.3 1.1-.2 1.4.2.3.4.2 1.1-.2 1.4-1.8 1.5-4.1 2.3-6.5 2.3zm8.8-4.8c-.2 0-.5-.1-.6-.2-.4-.4-.5-1-.1-1.4.7-.8 1.3-1.6 1.8-2.5-.9-1.6-4.5-7-9.9-7-.6 0-1.3.1-1.9.2-.5 0-1-.3-1.2-.8-.2-.5.2-1.1.7-1.2.8-.2 1.6-.3 2.4-.3 7.5 0 11.7 8.2 11.9 8.6.1.3.1.6 0 .9-.6 1.2-1.4 2.3-2.3 3.4-.2.2-.5.3-.8.3zm-8.9-.1c-1 0-2-.4-2.7-1.1-.8-.7-1.2-1.7-1.3-2.8 0-1.1.3-2.1 1.1-2.9l.2-.2c.4-.4 1-.4 1.4 0 .4.4.4 1 0 1.4l-.1.1c-.4.4-.6.9-.5 1.4 0 .5.2 1 .6 1.4.8.8 2.1.7 2.8-.1.4-.4 1-.4 1.4 0 .4.4.4 1 0 1.4-.7.9-1.8 1.4-2.9 1.4z"/>
    <path d="M23 24c-.3 0-.5-.1-.7-.3l-22-22C-.1 1.3-.1.7.3.3c.4-.4 1-.4 1.4 0l22 22c.4.4.4 1 0 1.4-.2.2-.4.3-.7.3z"/>
</symbol><symbol viewBox="0 0 24 24" id="eye-opened" xmlns="http://www.w3.org/2000/svg">
    <g opacity=".3" clip-rule="evenodd">
        <path d="M12 15a3 3 0 110-6 3 3 0 010 6zm0-2a1 1 0 100-2 1 1 0 000 2z"/>
        <path d="M12 19c-3.315 0-6.57-2.17-9.795-6.393a1 1 0 010-1.214C5.43 7.17 8.685 5 12 5c3.315 0 6.57 2.17 9.795 6.393a1 1 0 010 1.214C18.57 16.83 15.315 19 12 19zm0-2c2.434 0 5.019-1.634 7.73-5-2.711-3.366-5.296-5-7.73-5s-5.019 1.634-7.73 5c2.711 3.366 5.296 5 7.73 5z"/>
    </g>
</symbol><symbol viewBox="0 0 24 24" id="face-id" xmlns="http://www.w3.org/2000/svg">
    <path clip-rule="evenodd" d="M11 7v4h-1v2h1a2 2 0 002-2V7h-2zm5 0v3h2V7h-2zM6 10V7h2v3H6zm8.8 4.786a3.984 3.984 0 01-2.8 1.143 3.984 3.984 0 01-2.8-1.143l-1.4 1.428A5.984 5.984 0 0012 17.93a5.984 5.984 0 004.2-1.715l-1.4-1.428zM4 5a1 1 0 011-1h2V2H5a3 3 0 00-3 3v2h2V5zm16 14a1 1 0 01-1 1h-2v2h2a3 3 0 003-3v-2h-2v2zM19 4a1 1 0 011 1v2h2V5a3 3 0 00-3-3h-2v2h2zM4 19a1 1 0 001 1h2v2H5a3 3 0 01-3-3v-2h2v2z"/>
</symbol><symbol viewBox="0 0 25 24" id="filter" xmlns="http://www.w3.org/2000/svg">
    <path d="M17.742 13a4 4 0 11-3.874 5H3.742v-2h10.126c.444-1.725 2.01-3 3.874-3zm0 2a2 2 0 100 4 2 2 0 000-4zm-10-12a4.002 4.002 0 013.874 3h10.126v2H11.616a4.002 4.002 0 01-7.874-1 4 4 0 014-4zm0 2a2 2 0 100 4 2 2 0 000-4z"/>
</symbol><symbol viewBox="0 0 25 24" id="forward" xmlns="http://www.w3.org/2000/svg">
    <path d="M2.742 11.02v2h16.485l-5.832 5.552 1.379 1.449 7.658-7.289a1 1 0 000-1.448L14.774 3.98l-1.38 1.448 5.865 5.594H2.742z"/>
</symbol><symbol viewBox="0 0 24 24" id="forward_arrow_right" xmlns="http://www.w3.org/2000/svg">
    <path d="M2 11.03v1.982h16.485l-5.832 5.502 1.378 1.436 7.658-7.224a.985.985 0 00.001-1.436l-7.658-7.24-1.38 1.435 5.864 5.544H2z"/>
</symbol><symbol viewBox="0 0 24 24" id="go-left" xmlns="http://www.w3.org/2000/svg">
    <path clip-rule="evenodd" d="M7.293 12.414l7 7L15.707 18l-6.293-6.293 6.293-6.293L14.293 4l-7 7a1 1 0 000 1.414z"/>
</symbol><symbol viewBox="0 0 24 24" id="go-right" xmlns="http://www.w3.org/2000/svg">
    <path clip-rule="evenodd" d="M16.414 12.354l-7 7L8 17.939l6.293-6.292L8 5.354l1.414-1.415 7 7a1 1 0 010 1.415z"/>
</symbol><symbol viewBox="0 0 48 48" id="gosuslugi-3" xmlns="http://www.w3.org/2000/svg">
    <path clip-rule="evenodd" d="M22 2a2 2 0 012-2h6v4h-4v4.1A20 20 0 0143.9 26H48v4h-2v8h2v4H0v-4h2v-8H0v-4h4.1A20 20 0 0122 8.1V2zm14 28h6v8h-6v-8zm-4 0h-6v8h6v-8zm-16 0h6v8h-6v-8zm-4 0H6v8h6v-8zm27.875-4a16 16 0 00-31.75 0h31.75z"/>
</symbol><symbol viewBox="0 0 24 24" id="hand-cash" xmlns="http://www.w3.org/2000/svg">
    <path clip-rule="evenodd" d="M3 15a1 1 0 01-1-1V3a1 1 0 011-1h.985a1.947 1.947 0 01.03 0h15.97a2.08 2.08 0 01.03 0H21a1 1 0 011 1v11a1 1 0 01-1 1h-.485l-4.103 5.744A3 3 0 0113.971 22H13v-2h.97a1 1 0 00.814-.419l3.273-4.58H12v1h-2v-4a1 1 0 10-2 0v7a1 1 0 001 1v2a3 3 0 01-3-3v-4H3zm16.984-2L20 6a2 2 0 01-2-2H6a2 2 0 01-2 2v7h2v-1a3 3 0 116 0v1h7.984z"/>
</symbol><symbol viewBox="0 0 18 18" id="hint-filled" xmlns="http://www.w3.org/2000/svg">
    <path clip-rule="evenodd" d="M9 1.5a7.5 7.5 0 100 15 7.5 7.5 0 000-15zM6.75 7.317c.013-.623.227-1.12.643-1.489.428-.385 1.015-.578 1.76-.578.702 0 1.27.178 1.705.534.429.353.643.812.643 1.38 0 .701-.353 1.26-1.058 1.675-.33.191-.552.363-.667.514-.116.152-.173.35-.173.594v.262h-1.31l-.01-.287c-.033-.382.021-.7.163-.954.138-.24.38-.463.726-.668.32-.19.538-.362.653-.514a.91.91 0 00.178-.578.744.744 0 00-.257-.584c-.175-.151-.402-.227-.682-.227-.284 0-.513.084-.687.252-.175.165-.27.387-.287.668H6.75zm3.188 4.495a.937.937 0 11-1.875 0 .937.937 0 011.874 0z"/>
</symbol><symbol viewBox="0 0 24 24" id="home" xmlns="http://www.w3.org/2000/svg">
    <path d="M9 15a1 1 0 011-1h4a1 1 0 011 1v4h4v-6.586l-7-7-7 7V19h4v-4zm2 1v4a1 1 0 01-1 1H4a1 1 0 01-1-1v-8a1 1 0 01.293-.707l8-8a1 1 0 011.414 0l8 8A1 1 0 0121 12v8a1 1 0 01-1 1h-6a1 1 0 01-1-1v-4h-2z"/>
</symbol><symbol viewBox="0 0 24 24" id="home-services" xmlns="http://www.w3.org/2000/svg">
    <path d="M10.321 1.266a1 1 0 011.363.004l8 7.5-1.368 1.46-7.32-6.864L4 9.837V10h2v8h4v2H5a1 1 0 01-1-1v-7H3a1 1 0 01-1-1V9.4a1 1 0 01.321-.734l8-7.4z"/>
    <path clip-rule="evenodd" d="M11.293 11.293a1 1 0 01.831-.285l8 1a1 1 0 01.583 1.7L19.414 15l2.293 2.293a1 1 0 010 1.414l-3 3a1 1 0 01-1.414 0L15 19.414l-1.293 1.293a1 1 0 01-1.7-.583l-1-8a1 1 0 01.286-.831zm1.859 1.859l.587 4.695.554-.554a1 1 0 011.414 0L18 19.586 19.586 18l-2.293-2.293a1 1 0 010-1.414l.554-.554-4.695-.587z"/>
</symbol><symbol viewBox="0 0 24 24" id="house" xmlns="http://www.w3.org/2000/svg">
    <path d="M11 14H9v3h2v-3z"/>
    <path clip-rule="evenodd" d="M11.321 2.266a1 1 0 011.358 0l8 7.4A1 1 0 0121 10.4V12a1 1 0 01-1 1h-1v7a1 1 0 01-1 1H6a1 1 0 01-1-1v-7H4a1 1 0 01-1-1v-1.6a1 1 0 01.32-.734l8.001-7.4zM5 11h2v8h6v-6h2v6h2v-8h2v-.163l-7-6.475-7 6.475V11z"/>
</symbol><symbol viewBox="0 0 24 24" id="info-ring" xmlns="http://www.w3.org/2000/svg">
    <path d="M13.5 8.5a1.5 1.5 0 11-3 0 1.5 1.5 0 013 0zM9.5 17v-2H11v-2h-1v-2h2a1 1 0 011 1v3h1.5v2h-5z"/>
    <path clip-rule="evenodd" d="M12 22C6.477 22 2 17.523 2 12S6.477 2 12 2s10 4.477 10 10-4.477 10-10 10zm0-2a8 8 0 100-16 8 8 0 000 16z"/>
</symbol><symbol viewBox="0 0 48 48" id="info-ring-xl" xmlns="http://www.w3.org/2000/svg">
    <path d="M27 17a3 3 0 11-6 0 3 3 0 016 0zM19 34v-4h3v-4h-2v-4h4a2 2 0 012 2v6h3v4H19z"/>
    <path clip-rule="evenodd" d="M24 44C12.954 44 4 35.046 4 24S12.954 4 24 4s20 8.954 20 20-8.954 20-20 20zm0-4c8.837 0 16-7.163 16-16S32.837 8 24 8 8 15.163 8 24s7.163 16 16 16z"/>
</symbol><symbol viewBox="0 0 48 48" id="invoice-info" xmlns="http://www.w3.org/2000/svg">
    <path clip-rule="evenodd" d="M6 8a2 2 0 012-2h32a2 2 0 012 2v32a2 2 0 01-2 2H8a2 2 0 01-2-2v-3.056a6 6 0 01.633-2.683l.684-1.367a2 2 0 000-1.788l-.211-.423a6 6 0 010-5.366l.21-.423a2 2 0 000-1.788l-.21-.423a6 6 0 010-5.366l.21-.423a2 2 0 000-1.788l-.683-1.367A6 6 0 016 11.056V8zm4 2v1.056c0 .31.072.616.211.894l.683 1.367a6 6 0 010 5.366l-.21.423a2 2 0 000 1.788l.21.423a6 6 0 010 5.366l-.21.423a2 2 0 000 1.788l.21.423a6 6 0 010 5.366l-.683 1.367a2.001 2.001 0 00-.211.894V38h28V10H10z"/>
    <path clip-rule="evenodd" d="M34 18H24v-4h10v4zM32 26h-8v-4h8v4zM34 34H24v-4h10v4zM20 22v12h-4V22h4z"/>
    <path d="M20.5 16.5a2.5 2.5 0 11-5 0 2.5 2.5 0 015 0z"/>
</symbol><symbol viewBox="0 0 24 24" id="jpy" xmlns="http://www.w3.org/2000/svg">
    <path d="M6.832 3.445L12 11.197l5.168-7.752 1.664 1.11L15.202 10H18v2h-4.132L13 13.303V14h5v2h-5v5h-2v-5H6v-2h5v-.697L10.132 12H6v-2h2.798l-3.63-5.445 1.664-1.11z"/>
</symbol><symbol viewBox="0 0 24 24" id="key" xmlns="http://www.w3.org/2000/svg">
    <path d="M14 8a2 2 0 11-4 0 2 2 0 014 0z"/>
    <path clip-rule="evenodd" d="M11.992 2a6 6 0 015.344 8.744A6.006 6.006 0 0115 13.191V16h1a1 1 0 011 1v4a1 1 0 01-1 1h-6a1 1 0 01-1-1v-7.8a6.006 6.006 0 01-.79-9.852A6 6 0 0111.992 2zM15 18h-2v-6.075l.598-.262a4.018 4.018 0 001.96-1.834 4 4 0 10-7.11.01 3.998 3.998 0 001.951 1.83l.601.262V20h4v-2z"/>
</symbol><symbol viewBox="0 0 24 24" id="lightning" xmlns="http://www.w3.org/2000/svg">
    <path clip-rule="evenodd" d="M7.042 2.713A1 1 0 018 2h9a1 1 0 01.894 1.447L15.618 8H20a1 1 0 01.763 1.646l-11 13a1 1 0 01-1.757-.756L8.883 14H5a1 1 0 01-.958-1.287l3-10zM8.744 4l-2.4 8H10a1 1 0 01.994 1.11l-.638 5.739L17.844 10H14a1 1 0 01-.894-1.447L15.382 4H8.744z"/>
</symbol><symbol viewBox="0 0 24 24" id="like" xmlns="http://www.w3.org/2000/svg">
    <path clip-rule="evenodd" d="M11.311 2.94a2.748 2.748 0 014.844.134l.213.427a4.18 4.18 0 01.317 2.883L16.28 8h2.765c2.122 0 3.574 2.144 2.785 4.114l-2.4 6A3 3 0 0116.646 20H10a1 1 0 01-.555-.168L8 18.87V19a1 1 0 01-1 1H3a1 1 0 01-1-1V8a1 1 0 011-1h4a1 1 0 011 1h.42l2.891-5.06zM10.303 18L8 16.465V10h1a1 1 0 00.868-.504l3.18-5.564a.748.748 0 011.318.037l.214.426c.232.466.29.999.165 1.504L14.219 8H13v2h6.046a1 1 0 01.928 1.372l-2.4 6a1 1 0 01-.928.628h-6.343zM4 9v9h2V9H4z"/>
</symbol><symbol viewBox="0 0 24 24" id="list-open" xmlns="http://www.w3.org/2000/svg">
    <path d="M2.293 6.414l2.293 2.293L2.293 11l1.414 1.414 3-3a1 1 0 000-1.414l-3-3-1.414 1.414zM10 13h11v-2H10v2zM21 19H10v-2h11v2zM10 7h11V5H10v2z"/>
</symbol><symbol viewBox="0 0 24 24" id="location" xmlns="http://www.w3.org/2000/svg">
    <path clip-rule="evenodd" d="M21.714 2.286a.976.976 0 01.215 1.056L14.61 21.391a.975.975 0 01-1.856-.155l-1.817-8.174-8.174-1.817a.976.976 0 01-.155-1.856l18.049-7.317a.976.976 0 011.056.214zM6.245 10.02l5.723 1.271c.37.083.658.371.74.741l1.272 5.723 5.274-13.009L6.245 10.02z"/>
</symbol><symbol viewBox="0 0 22 21" id="logo-alliance" xmlns="http://www.w3.org/2000/svg">
    <path d="M17.762 20.99H22V11.1C22 1.616 13.624 0 10.495 0v4.239c4.542 0 7.267 3.128 7.267 6.862v9.89zM4.239 0H0v9.89c0 9.486 8.376 11.1 11.505 11.1v-4.238c-4.542 0-7.266-3.128-7.266-6.862V0z"/>
</symbol><symbol viewBox="0 0 24 24" id="mail" xmlns="http://www.w3.org/2000/svg">
    <path d="M21 4a1 1 0 011 1v14a1 1 0 01-1 1H3a1 1 0 01-1-1V5a1 1 0 011-1h18zm-1 3.248L12.6 12.8a1 1 0 01-1.2 0L4 7.249V18h16V7.248zM18.331 6H5.668L12 10.75 18.331 6z"/>
</symbol><symbol viewBox="0 0 24 24" id="mail-out" xmlns="http://www.w3.org/2000/svg">
    <path d="M11.293 1.293a1 1 0 011.414 0l4 4-1.414 1.414L13 4.414V11h-2V4.414L8.707 6.707 7.293 5.293l4-4z"/>
    <path clip-rule="evenodd" d="M3 8a1 1 0 00-1 1v12a1 1 0 001 1h18a1 1 0 001-1V9a1 1 0 00-1-1h-6v2h3.334L12 14.75 5.667 10H9V8H3zm1 3.25V20h16v-8.75l-7.4 5.55a1 1 0 01-1.2 0L4 11.25z"/>
</symbol><symbol viewBox="0 0 24 24" id="man" xmlns="http://www.w3.org/2000/svg">
    <path clip-rule="evenodd" d="M12 2a5 5 0 100 10 5 5 0 000-10zM9 7a3 3 0 116 0 3 3 0 01-6 0z"/>
    <path d="M12 13c-5.41 0-8.5 4.598-8.5 9h2c0-3.598 2.473-7 6.5-7s6.5 3.402 6.5 7h2c0-4.402-3.09-9-8.5-9z"/>
</symbol><symbol viewBox="0 0 22 22" id="mini-logo" xmlns="http://www.w3.org/2000/svg">
    <path d="M17.762 21.495H22v-9.89C22 2.12 13.624.505 10.495.505v4.238c4.542 0 7.267 3.129 7.267 6.862v9.89zM4.239.505H0v9.89c0 9.486 8.376 11.1 11.505 11.1v-4.238c-4.542 0-7.266-3.129-7.266-6.863V.505z"/>
</symbol><symbol viewBox="0 0 24 24" id="mobile" xmlns="http://www.w3.org/2000/svg">
    <path d="M12 18a1 1 0 100-2 1 1 0 000 2z"/>
    <path clip-rule="evenodd" d="M7 2a2 2 0 00-2 2v16a2 2 0 002 2h10a2 2 0 002-2V4a2 2 0 00-2-2H7zm0 2h10v16H7V4z"/>
</symbol><symbol viewBox="0 0 24 24" id="mobile-push-confirm" xmlns="http://www.w3.org/2000/svg">
    <path clip-rule="evenodd" d="M4 4a2 2 0 012-2h10v2H6v16h10v-5h2v5a2 2 0 01-2 2H6a2 2 0 01-2-2V4zm8 13a1 1 0 11-2 0 1 1 0 012 0zm4.207-5.793l5.5-5.5-1.414-1.414L15.5 9.086l-1.793-1.793-1.414 1.414 2.5 2.5a1 1 0 001.414 0z"/>
</symbol><symbol viewBox="0 0 19 18" id="new-tab" xmlns="http://www.w3.org/2000/svg">
    <path clip-rule="evenodd" d="M2.75 3a.75.75 0 01.75-.75h6v1.5H4.25v10.5h10.5V9h1.5v6a.75.75 0 01-.75.75h-12a.75.75 0 01-.75-.75V3zm10.94.75H11v-1.5h4.5a.75.75 0 01.75.75v4.5h-1.5V4.81l-4.72 4.72-1.06-1.06 4.72-4.72z"/>
</symbol><symbol viewBox="0 0 24 24" id="notification" xmlns="http://www.w3.org/2000/svg">
    <path clip-rule="evenodd" d="M19 9A7 7 0 105 9v2.586l-1.293 1.293a3 3 0 000 4.242l.586.586A1 1 0 005 18h3a4 4 0 108 0h3a1 1 0 00.707-.293l.586-.586a3 3 0 000-4.242L19 11.586V9zM7 12V9a5 5 0 0110 0v3a1 1 0 00.293.707l1.585 1.586a1 1 0 010 1.414l-.293.293H5.415l-.293-.293a1 1 0 010-1.414l1.586-1.586A1 1 0 007 12zm3 6a2 2 0 004 0h-4z"/>
</symbol><symbol viewBox="0 0 48 48" id="onboarding" xmlns="http://www.w3.org/2000/svg">
    <path d="M21.999 2v10h4V2h-4zM20.413 12.586l-7-7-2.828 2.828 7 7 2.828-2.828z"/>
    <path clip-rule="evenodd" d="M8.999 14a7 7 0 100 14 7 7 0 000-14zm-3 7a3 3 0 116 0 3 3 0 01-6 0z"/>
    <path d="M22.284 22.029L28.867 33h4.19c2.053 0 3.62.025 4.947.62 1.21.542 2.25 1.428 2.977 2.927.75 1.545 1.227 3.864 1.022 7.336l3.993.234c.23-3.9-.273-6.962-1.416-9.317-1.166-2.4-2.931-3.93-4.94-4.83-2.17-.973-4.547-.971-6.387-.97h-2.122l-5.417-9.029-3.43 2.058zM7.824 30.168c3.6-2.078 7.9-1.844 10.69-1.1l-1.03 3.864c-2.21-.589-5.31-.656-7.66.7-2.14 1.235-4.198 3.973-3.829 10.25l-3.993.236c-.43-7.323 2.011-11.751 5.822-13.95z"/>
    <path clip-rule="evenodd" d="M31.999 21a7 7 0 1114 0 7 7 0 01-14 0zm7-3a3 3 0 100 6 3 3 0 000-6z"/>
    <path d="M34.585 5.586l-7 7 2.828 2.828 7-7-2.828-2.828z"/>
</symbol><symbol viewBox="0 0 24 25" id="online" xmlns="http://www.w3.org/2000/svg">
    <path d="M17.532 21.5H21v-8.48c0-8.135-6.853-9.52-9.413-9.52v3.635c3.716 0 5.945 2.682 5.945 5.884V21.5zM6.468 3.5H3v8.48c0 8.135 6.853 9.52 9.413 9.52v-3.635c-3.716 0-5.945-2.682-5.945-5.884V3.5z"/>
</symbol><symbol viewBox="0 0 24 24" id="pdf" xmlns="http://www.w3.org/2000/svg">
    <path d="M15 20H3V4h12v4h2V3a1 1 0 00-1-1H2a1 1 0 00-1 1v18a1 1 0 001 1h13v-2z"/>
    <path clip-rule="evenodd" d="M7.13 15.25V18H5.553v-7.82h2.664c.773 0 1.389.24 1.847.72.462.48.693 1.102.693 1.869 0 .766-.227 1.371-.682 1.815-.455.444-1.085.666-1.89.666H7.13zm0-1.316h1.086c.3 0 .533-.098.698-.295.165-.197.247-.484.247-.86 0-.39-.084-.7-.253-.929a.808.808 0 00-.676-.354H7.13v2.438zM12.034 18v-7.82h2.068c.913 0 1.64.29 2.18.87.545.58.823 1.375.833 2.385v1.267c0 1.028-.272 1.835-.816 2.423-.54.583-1.287.875-2.24.875h-2.025zm1.58-6.504v5.193h.472c.526 0 .897-.137 1.112-.413.215-.28.327-.76.338-1.44v-1.359c0-.73-.102-1.238-.306-1.525-.204-.29-.551-.442-1.042-.456h-.575z"/>
    <path d="M20.053 14.81h2.455v-1.311h-2.455v-2.003h2.75V10.18h-4.33V18h1.58v-3.19z"/>
</symbol><symbol viewBox="0 0 48 48" id="pen" xmlns="http://www.w3.org/2000/svg">
    <path d="M18 10V4h-4v5.528L8.211 21.106A2 2 0 008.4 23.2c2.902 3.869 4.245 6.627 4.91 9.285.679 2.717.69 5.459.69 9.515a2 2 0 002 2h8a2 2 0 002-2V27.465a4 4 0 10-4 0V40h-4.003c-.018-3.078-.129-5.773-.807-8.485-.767-3.067-2.225-6.05-4.855-9.713l5.454-10.908A2 2 0 0018 10zM34 4v5.528l5.789 11.578A2 2 0 0139.6 23.2c-2.901 3.869-4.245 6.627-4.91 9.285C34.011 35.202 34 37.944 34 42a2 2 0 01-2 2h-2v-4h.004c.017-3.078.128-5.773.806-8.485.767-3.067 2.225-6.05 4.855-9.713L30.21 10.894A2 2 0 0130 10V4h4z"/>
</symbol><symbol viewBox="0 0 24 24" id="people" xmlns="http://www.w3.org/2000/svg">
    <path clip-rule="evenodd" d="M16.5 3a4.5 4.5 0 100 9 4.5 4.5 0 000-9zM14 7.5a2.5 2.5 0 115 0 2.5 2.5 0 01-5 0z"/>
    <path d="M16.5 13c-4.41 0-7 3.534-7 7h2c0-2.534 1.86-5 5-5 3.14 0 5 2.466 5 5h2c0-3.466-2.59-7-7-7zM.5 21c0-3.38 2.329-7 6.5-7 .997 0 1.91.213 2.716.597l-.859 1.806A4.28 4.28 0 007 16c-2.75 0-4.5 2.38-4.5 5h-2z"/>
    <path clip-rule="evenodd" d="M7 5a4 4 0 100 8 4 4 0 000-8zM5 9a2 2 0 114 0 2 2 0 01-4 0z"/>
</symbol><symbol viewBox="0 0 24 24" id="percent" xmlns="http://www.w3.org/2000/svg">
    <path clip-rule="evenodd" d="M3.793 18.793l15-15 1.414 1.414-15 15-1.414-1.414zM6.75 5a1.75 1.75 0 100 3.5 1.75 1.75 0 000-3.5zM3 6.75a3.75 3.75 0 117.5 0 3.75 3.75 0 01-7.5 0zM17.25 15.5a1.75 1.75 0 100 3.5 1.75 1.75 0 000-3.5zm-3.75 1.75a3.75 3.75 0 117.5 0 3.75 3.75 0 01-7.5 0z"/>
</symbol><symbol viewBox="0 0 24 24" id="percent2" xmlns="http://www.w3.org/2000/svg">
    <path clip-rule="evenodd" d="M6.75 5a1.75 1.75 0 100 3.5 1.75 1.75 0 000-3.5zM3 6.75a3.75 3.75 0 117.5 0 3.75 3.75 0 01-7.5 0zM17.25 15.5a1.75 1.75 0 100 3.5 1.75 1.75 0 000-3.5zm-3.75 1.75a3.75 3.75 0 117.5 0 3.75 3.75 0 01-7.5 0z"/>
    <path d="M20 3h-7.5v2h5.086L3.914 18.586 5.328 20 19 6.414V11.5h2V4a1 1 0 00-1-1z"/>
</symbol><symbol viewBox="0 0 24 24" id="phone" xmlns="http://www.w3.org/2000/svg">
    <path clip-rule="evenodd" d="M5.673 2.919a2 2 0 013.129.385l1.94 3.232a2 2 0 01-.301 2.444l-1.027 1.026c.21.43.736 1.26 2.031 2.555 1.295 1.295 2.125 1.82 2.555 2.03l1.026-1.026a2 2 0 012.444-.3l3.232 1.939a2 2 0 01.385 3.13l-2.509 2.508c-.556.556-1.36.915-2.24.806-1.747-.218-5.693-1.097-9.314-4.653-3.656-3.59-4.492-7.609-4.682-9.361-.094-.867.265-1.65.81-2.193l2.52-2.522zm1.414 1.414L4.565 6.855c-.19.19-.253.396-.235.563.16 1.477.88 4.993 4.095 8.15 3.207 3.15 6.683 3.911 8.16 4.095.172.021.386-.042.58-.236l2.508-2.508-3.232-1.94-1.179 1.179c-.339.339-.958.674-1.674.426-.694-.24-1.836-.887-3.557-2.609-1.722-1.721-2.37-2.863-2.61-3.557-.248-.716.088-1.335.427-1.674l1.178-1.179-1.939-3.232z"/>
</symbol><symbol viewBox="0 0 48 48" id="picture-1" xmlns="http://www.w3.org/2000/svg">
    <path d="M16 24a4 4 0 100-8 4 4 0 000 8z"/>
    <path clip-rule="evenodd" d="M4 10a2 2 0 012-2h36a2 2 0 012 2v28a2 2 0 01-2 2H6a2 2 0 01-2-2V10zm4 2v24h5.172l11.414-11.414a2 2 0 012.828 0L30 27.172l10-10V12H8zm32 24H18.828L26 28.828l2.586 2.586a2 2 0 002.828 0L40 22.828V36z"/>
</symbol><symbol viewBox="0 0 24 24" id="pin-2" xmlns="http://www.w3.org/2000/svg">
    <path clip-rule="evenodd" d="M14.68 21.947L9 20.054 3.316 21.95A1 1 0 012 21v-8h2v6.613l4-1.334V15h2v3.28l4 1.333V7.78l-1.242-.31.485-1.941 1.717.43 5.724-1.909A1 1 0 0122 5v14a1 1 0 01-.684.949l-6 2a1 1 0 01-.636-.002zM16 7.721v11.892l4-1.334V6.387l-4 1.334z"/>
    <path d="M6.5 7a1 1 0 100-2 1 1 0 000 2z"/>
    <path clip-rule="evenodd" d="M5.9 12.8a1 1 0 001.2 0l.002-.002.004-.003.012-.009.04-.03.142-.113a15.911 15.911 0 001.956-1.895C10.292 9.55 11.5 7.752 11.5 5.75 11.5 3.067 9.2 1 6.5 1s-5 2.067-5 4.75c0 2.002 1.208 3.8 2.244 4.998a15.911 15.911 0 002.097 2.007l.04.031.013.01.004.002.001.001.001.001zM6.5 3c1.719 0 3 1.291 3 2.75 0 1.248-.792 2.575-1.756 3.69-.448.517-.897.949-1.244 1.258-.347-.31-.796-.741-1.244-1.258C4.292 8.325 3.5 6.998 3.5 5.75 3.5 4.291 4.781 3 6.5 3z"/>
    <path clip-rule="evenodd" d="M7.5 6a1 1 0 11-2 0 1 1 0 012 0z"/>
</symbol><symbol viewBox="0 0 24 24" id="pound" xmlns="http://www.w3.org/2000/svg">
    <path d="M8.464 4.464A5 5 0 0117 8h-2a3 3 0 00-5.121-2.121c-.25.25-.477.625-.642 1.05C9.07 7.356 9 7.752 9 8c0 .628.2 1.333.46 2.218l.019.066c.153.52.326 1.108.43 1.716H13v2h-3v3.472c.766 0 1.532.176 2.236.528l.422.211a3 3 0 002.684 0l2.21-1.105.895 1.788L16.236 20a5 5 0 01-4.472 0l-.422-.211a3 3 0 00-2.684 0l-2.21 1.105-.895-1.788L7.763 18A5.03 5.03 0 018 17.89V14H6v-2h1.87c-.082-.369-.198-.77-.33-1.218l-.019-.066C7.285 9.915 7 8.947 7 8c0-.552.14-1.195.372-1.795.234-.601.592-1.24 1.092-1.74z"/>
</symbol><symbol viewBox="0 0 24 24" id="printer" xmlns="http://www.w3.org/2000/svg">
    <path d="M7 13a1 1 0 100-2 1 1 0 000 2z"/>
    <path clip-rule="evenodd" d="M18 4v3h2a2 2 0 012 2v11a1 1 0 01-1 1H3a1 1 0 01-1-1V9a2 2 0 012-2h2V4a1 1 0 011-1h10a1 1 0 011 1zm-2 1v2H8V5h8zm4 4H4v10h3v-3a1 1 0 011-1h8a1 1 0 011 1v3h3V9zm-5 10v-2H9v2h6z"/>
</symbol><symbol viewBox="0 0 26 24" id="progress-loading" xmlns="http://www.w3.org/2000/svg">
    <path d="M13 4.5a7.5 7.5 0 00-7.476 8.107l1.233-1.577 1.576 1.231-2.612 3.343a1 1 0 01-1.404.173L.974 13.165l1.231-1.576 1.315 1.027a9.5 9.5 0 0116.723-6.763L18.72 7.147A7.481 7.481 0 0013 4.5zM22.48 11.384l1.315 1.027 1.231-1.576-3.343-2.612a1 1 0 00-1.404.173l-2.612 3.343 1.576 1.231 1.233-1.578a7.5 7.5 0 01-13.195 5.46l-1.524 1.295a9.5 9.5 0 0016.723-6.763z"/>
</symbol><symbol viewBox="0 0 24 24" id="retry" xmlns="http://www.w3.org/2000/svg">
    <path d="M5 11.906l2.078-2.078 1.415 1.415-3.536 3.535a1 1 0 01-1.414 0L.007 11.243l1.415-1.415 1.594 1.595C3.316 6.17 7.671 2 13 2c5.523 0 10 4.477 10 10s-4.477 10-10 10a9.983 9.983 0 01-7.777-3.714l1.554-1.258A8 8 0 105 11.906z"/>
    <path d="M12.293 12.707A1 1 0 0112 12V7h2v4.586l3.207 3.207-1.414 1.414-3.5-3.5z"/>
</symbol><symbol viewBox="0 0 24 24" id="rouble" xmlns="http://www.w3.org/2000/svg">
    <path clip-rule="evenodd" d="M8 17H5v-2h3v-2H5v-2h3V3h7a5 5 0 110 10h-5v2h7v2h-7v4H8v-4zm7-6a3 3 0 000-6h-5v6h5z"/>
</symbol><symbol viewBox="0 0 25 24" id="rss" xmlns="http://www.w3.org/2000/svg">
    <path d="M3.742 17a4 4 0 014 4h-4v-4zm0-7c6.075 0 11 4.925 11 11h-2a9 9 0 00-9-9v-2zm0-7c9.941 0 18 8.059 18 18h-2c0-8.837-7.163-16-16-16V3z"/>
</symbol><symbol viewBox="0 0 24 24" id="safe" xmlns="http://www.w3.org/2000/svg">
    <path clip-rule="evenodd" d="M3 4a1 1 0 011-1h16a1 1 0 011 1v16a1 1 0 01-1 1h-1v2h-2v-2H7v2H5v-2H4a1 1 0 01-1-1V4zm2 1v14h14v-4h-2v1a1 1 0 01-1 1H8a1 1 0 01-1-1V8a1 1 0 011-1h8a1 1 0 011 1v1h2V5H5zm12 8h2v-2h-2v2zM9 9v2h2v2H9v2h6V9H9z"/>
</symbol><symbol viewBox="0 0 24 24" id="search" xmlns="http://www.w3.org/2000/svg">
    <path d="M11 3a8 8 0 016.32 12.905l3.887 3.888-1.414 1.414-3.888-3.886A8 8 0 1111 3zm0 2a6 6 0 100 12 6 6 0 000-12z"/>
</symbol><symbol viewBox="0 0 24 24" id="settings" xmlns="http://www.w3.org/2000/svg">
    <path d="M19.5 12v-.5l2.6-1.9-.1-.7c0-.1-.2-1-.9-2.2-.7-1.2-1.3-1.7-1.4-1.8l-.5-.4-3 1.3c-.3-.2-.6-.4-.9-.5L14.9 2l-.6-.2c-.1 0-1-.3-2.3-.3-1.3 0-2.2.3-2.3.3l-.6.2-.4 3.3c-.3.1-.6.3-.9.5l-3-1.3-.5.4c-.1.1-.7.7-1.4 1.9-.6 1.1-.9 2-.9 2.1l-.1.6 2.6 1.9v1l-2.6 1.9.1.8c0 .1.2 1 .9 2.2.7 1.1 1.3 1.8 1.4 1.8l.5.4 3-1.3c.3.2.6.4.9.5l.4 3.3.6.2c.1 0 1 .3 2.3.3 1.3 0 2.2-.3 2.3-.3l.6-.2.4-3.2c.3-.2.6-.3.9-.5l3 1.3.5-.4c.1-.1.8-.7 1.4-1.8.6-1.1.9-2 .9-2.2l.1-.6-2.6-1.9V12zm.3 3.3c-.1.3-.3.6-.5 1s-.4.7-.6.9L15.9 16l-.5.4c-.4.4-.9.6-1.5.8l-.6.2-.3 3.1c-.6.1-1.6.1-2.2 0l-.3-3.1-.5-.3c-.5-.2-1-.5-1.5-.8l-.5-.4-2.8 1.2c-.2-.2-.4-.5-.6-.9-.2-.4-.4-.7-.5-1l2.5-1.8-.1-.6c0-.3-.1-.6-.1-.8 0-.2 0-.6.1-.8l.1-.6-2.4-1.9c.1-.3.3-.6.5-1s.4-.7.6-.9L8.1 8l.5-.4c.4-.2.9-.5 1.4-.7l.6-.2.3-3.1c.6-.1 1.6-.1 2.2 0l.3 3.1.6.2c.5.2 1 .5 1.5.8l.5.4 2.8-1.2c.2.2.4.5.6.9.2.4.4.7.5 1l-2.5 1.8.1.6c0 .3.1.6.1.8 0 .2 0 .6-.1.8l-.1.6 2.4 1.9z"/>
    <path d="M12 14a2 2 0 100-4 2 2 0 000 4z"/>
</symbol><symbol viewBox="0 0 48 48" id="settings-xl" xmlns="http://www.w3.org/2000/svg">
    <path d="M39 24v-1l5.2-3.8-.2-1.4c0-.2-.4-2-1.8-4.4-1.4-2.4-2.6-3.4-2.8-3.6l-1-.8-6 2.6c-.6-.4-1.2-.8-1.8-1L29.8 4l-1.2-.4c-.2 0-2-.6-4.6-.6-2.6 0-4.4.6-4.6.6l-1.2.4-.8 6.6c-.6.2-1.2.6-1.8 1L9.6 9l-1 .8c-.2.2-1.4 1.4-2.8 3.8-1.2 2.2-1.8 4-1.8 4.2L3.8 19 9 22.8v2l-5.2 3.8.2 1.6c0 .2.4 2 1.8 4.4 1.4 2.2 2.6 3.6 2.8 3.6l1 .8 6-2.6c.6.4 1.2.8 1.8 1l.8 6.6 1.2.4c.2 0 2 .6 4.6.6 2.6 0 4.4-.6 4.6-.6l1.2-.4.8-6.4c.6-.4 1.2-.6 1.8-1l6 2.6 1-.8c.2-.2 1.6-1.4 2.8-3.6 1.2-2.2 1.8-4 1.8-4.4l.2-1.2-5.2-3.8V24zm.6 6.6c-.2.6-.6 1.2-1 2s-.8 1.4-1.2 1.8L31.8 32l-1 .8c-.8.8-1.8 1.2-3 1.6l-1.2.4L26 41c-1.2.2-3.2.2-4.4 0l-.6-6.2-1-.6c-1-.4-2-1-3-1.6l-1-.8-5.6 2.4c-.4-.4-.8-1-1.2-1.8-.4-.8-.8-1.4-1-2l5-3.6-.2-1.2c0-.6-.2-1.2-.2-1.6 0-.4 0-1.2.2-1.6l.2-1.2-4.8-3.8c.2-.6.6-1.2 1-2s.8-1.4 1.2-1.8l5.6 2.4 1-.8c.8-.4 1.8-1 2.8-1.4l1.2-.4.6-6.2C23 7 25 7 26.2 7.2l.6 6.2 1.2.4c1 .4 2 1 3 1.6l1 .8 5.6-2.4c.4.4.8 1 1.2 1.8.4.8.8 1.4 1 2l-5 3.6.2 1.2c0 .6.2 1.2.2 1.6 0 .4 0 1.2-.2 1.6l-.2 1.2 4.8 3.8z"/>
    <path d="M24 28a4 4 0 100-8 4 4 0 000 8z"/>
</symbol><symbol viewBox="0 0 24 24" id="shield_check" xmlns="http://www.w3.org/2000/svg">
    <path d="M11.707 15.207l5.5-5.5-1.414-1.414L11 13.086l-2.293-2.293-1.414 1.414 3 3a1 1 0 001.414 0z"/>
    <path clip-rule="evenodd" d="M13.059 2.272A20.166 20.166 0 0112.336 2L11.666 2c-.118.048-.237.093-.356.138l-.369.134c-.465.166-1.122.388-1.888.61-1.55.449-3.479.877-5.153.877-.497 0-.9.408-.9.912v7.296c0 3.625 2.304 6.143 4.423 7.694a17.901 17.901 0 003.903 2.147l.09.036c.187.076.383.156.584.156.2 0 .392-.078.581-.154l.008-.004.006-.002.08-.032a17.895 17.895 0 003.903-2.147c2.118-1.55 4.422-4.069 4.422-7.694V4.671a.906.906 0 00-.9-.912c-1.674 0-3.604-.428-5.153-.877a32.63 32.63 0 01-1.888-.61zM19 11.967c0 2.682-1.694 4.677-3.602 6.073-.925.678-1.938 1.2-2.953 1.724l-.445.23-.445-.23c-1.015-.524-2.027-1.046-2.953-1.724C6.694 16.644 5 14.65 5 11.968v-6.25c1.631-.133 3.297-.529 4.607-.908.81-.234 1.601-.511 2.393-.798.792.287 1.583.564 2.393.798 1.31.38 2.976.775 4.607.908v6.25z"/>
</symbol><symbol viewBox="0 0 48 48" id="social__facebook" xmlns="http://www.w3.org/2000/svg">
    <path d="M33.342 30.938L34.406 24H27.75v-4.5c0-1.898.93-3.75 3.911-3.75h3.026V9.844s-2.746-.469-5.372-.469c-5.482 0-9.065 3.323-9.065 9.338V24h-6.094v6.938h6.094v16.77c2.485.39 5.015.39 7.5 0v-16.77h5.592z"/>
</symbol><symbol viewBox="0 0 48 48" id="social__google" xmlns="http://www.w3.org/2000/svg">
    <path d="M39.688 24.369a18.81 18.81 0 00-.277-3.252H24.32v6.162h8.642a7.406 7.406 0 01-3.198 4.862v3.998h5.156c3.028-2.787 4.768-6.903 4.768-11.77z"/>
    <path d="M24.32 40.001c4.315 0 7.954-1.417 10.606-3.862L29.77 32.14c-1.435.976-3.287 1.528-5.444 1.528-4.174 0-7.713-2.816-8.983-6.602h-5.321v4.121a16.002 16.002 0 0014.298 8.813z"/>
    <path d="M15.336 27.067a9.584 9.584 0 010-6.126V16.82h-5.314a16.014 16.014 0 000 14.368l5.314-4.12z"/>
    <path d="M24.32 14.333a8.695 8.695 0 016.138 2.399l4.568-4.568A15.378 15.378 0 0024.32 8c-6.05 0-11.582 3.41-14.298 8.819l5.315 4.121c1.264-3.792 4.809-6.608 8.983-6.608z"/>
</symbol><symbol viewBox="0 0 48 48" id="social__odnoklassniki" xmlns="http://www.w3.org/2000/svg">
    <path d="M24 25.317c5.105 0 9.244-3.876 9.244-8.658S29.106 8 24 8c-5.105 0-9.244 3.877-9.244 8.659.006 4.78 4.141 8.652 9.244 8.658zm0-13.32c2.75 0 4.978 2.087 4.978 4.662 0 2.575-2.229 4.662-4.978 4.662-2.75 0-4.978-2.087-4.978-4.662 0-2.575 2.229-4.663 4.978-4.663z"/>
    <path d="M33.055 29.42c1.005-.62 1.61-1.67 1.612-2.797.014-.936-.55-1.794-1.447-2.205a2.854 2.854 0 00-2.844.25c-3.799 2.595-8.951 2.595-12.75 0a2.87 2.87 0 00-2.845-.25c-.896.41-1.46 1.268-1.447 2.203.002 1.127.607 2.177 1.611 2.798a16.927 16.927 0 004.167 1.865c.25.072.509.14.775.202l-4.298 3.936c-1.127 1.025-1.154 2.712-.06 3.768 1.093 1.056 2.894 1.081 4.022.057l.069-.066L24 34.935l4.39 4.255c1.092 1.056 2.893 1.083 4.021.06 1.128-1.024 1.157-2.71.064-3.768a2.533 2.533 0 00-.07-.065l-4.29-3.932c.266-.064.525-.132.778-.204a16.86 16.86 0 004.162-1.861z"/>
</symbol><symbol viewBox="0 0 48 48" id="social__telegram" xmlns="http://www.w3.org/2000/svg">
    <path clip-rule="evenodd" d="M10.864 23.747c6.996-3.049 11.662-5.058 13.996-6.03 6.665-2.771 8.05-3.253 8.953-3.269.198-.003.642.046.93.28.242.196.31.462.341.65.032.186.072.611.04.944-.361 3.795-1.924 13.004-2.719 17.255-.336 1.798-.999 2.401-1.64 2.46-1.394.129-2.452-.92-3.802-1.806-2.112-1.384-3.306-2.246-5.356-3.597-2.37-1.562-.834-2.42.517-3.823.353-.367 6.494-5.952 6.613-6.459.015-.063.029-.3-.112-.424-.14-.125-.347-.082-.497-.048-.212.048-3.586 2.278-10.123 6.69-.958.659-1.825.979-2.603.962-.857-.018-2.505-.484-3.73-.883-1.503-.488-2.698-.747-2.594-1.576.054-.433.65-.875 1.786-1.326z"/>
</symbol><symbol viewBox="0 0 48 48" id="social__vk" xmlns="http://www.w3.org/2000/svg">
    <path clip-rule="evenodd" d="M39.41 16.53c.237-.745 0-1.287-1.054-1.287h-3.499c-.883 0-1.29.475-1.529.983 0 0-1.8 4.336-4.314 7.147-.816.813-1.19 1.084-1.631 1.084-.238 0-.544-.27-.544-1.016v-6.944c0-.88-.271-1.287-1.019-1.287h-5.504c-.543 0-.883.406-.883.813 0 .846 1.257 1.05 1.393 3.421v5.149c0 1.118-.204 1.321-.646 1.321-1.189 0-4.076-4.37-5.809-9.35-.34-.982-.68-1.354-1.563-1.354H9.275c-1.02 0-1.19.474-1.19.982 0 .915 1.19 5.521 5.539 11.619 2.887 4.166 6.998 6.402 10.701 6.402 2.243 0 2.514-.508 2.514-1.355v-3.15c0-1.016.204-1.186.918-1.186.51 0 1.427.271 3.499 2.27 2.378 2.371 2.786 3.455 4.11 3.455h3.5c1.02 0 1.495-.508 1.223-1.49-.306-.983-1.46-2.405-2.956-4.1-.815-.948-2.038-1.998-2.412-2.506-.51-.677-.373-.948 0-1.558-.034 0 4.247-6.03 4.689-8.062z"/>
</symbol><symbol viewBox="0 0 24 25" id="sound" xmlns="http://www.w3.org/2000/svg">
    <path clip-rule="evenodd" d="M13 3.5a1 1 0 00-1.64-.768L5.638 7.5H3a1 1 0 00-1 1v8a1 1 0 001 1h2.638l5.722 4.768A1 1 0 0013 21.5v-18zM6.64 9.268L11 5.635v13.73l-4.36-3.633A1 1 0 006 15.5H4v-6h2a1 1 0 00.64-.232z"/>
    <path d="M17.36 6.268L18 5.5l.64-.768.002.001.001.001.005.004.012.01a3.252 3.252 0 01.154.14c.098.092.232.224.39.395.315.341.729.842 1.142 1.496A10.644 10.644 0 0122 12.5c0 2.48-.829 4.414-1.654 5.721a10.432 10.432 0 01-1.142 1.496 7.981 7.981 0 01-.544.535l-.012.01-.005.003-.002.003L18 19.5l-.64-.768.012-.01.072-.067a5.88 5.88 0 00.29-.294c.247-.268.583-.673.92-1.207A8.643 8.643 0 0020 12.5c0-2.02-.671-3.586-1.346-4.654a8.42 8.42 0 00-.92-1.207 5.899 5.899 0 00-.362-.36l-.014-.013.001.002z"/>
    <path d="M14.4 9.3l.6-.8.6-.8.003.002.004.003.009.007.027.021.086.07a6.943 6.943 0 011.08 1.171c.58.798 1.191 2 1.191 3.526 0 1.526-.61 2.728-1.191 3.526a6.944 6.944 0 01-1.08 1.17c-.035.03-.064.053-.086.07l-.027.022-.01.007-.003.003-.002.001S15.6 17.3 15 16.5l-.6-.8-.002.002h-.002l.006-.004.041-.033a4.951 4.951 0 00.748-.815c.42-.578.809-1.376.809-2.35 0-.974-.389-1.772-.809-2.35a4.952 4.952 0 00-.748-.815 1.965 1.965 0 00-.041-.033l-.006-.005.002.001.001.002z"/>
</symbol><symbol viewBox="0 0 25 24" id="tab-bar__burger" xmlns="http://www.w3.org/2000/svg">
    <path d="M22.5 18v2h-20v-2h20zm0-7v2h-20v-2h20zm0-7v2h-20V4h20z"/>
</symbol><symbol viewBox="0 0 25 24" id="tab-bar__home" xmlns="http://www.w3.org/2000/svg">
    <path d="M9.5 15a1 1 0 011-1h4a1 1 0 011 1v4h4v-6.586l-7-7-7 7V19h4v-4zm2 1v4a1 1 0 01-1 1h-6a1 1 0 01-1-1v-8a1 1 0 01.293-.707l8-8a1 1 0 011.414 0l8 8A1 1 0 0121.5 12v8a1 1 0 01-1 1h-6a1 1 0 01-1-1v-4h-2z"/>
</symbol><symbol viewBox="0 0 25 24" id="tab-bar__location" xmlns="http://www.w3.org/2000/svg">
    <path clip-rule="evenodd" d="M22.214 2.286a.976.976 0 01.215 1.056L15.11 21.391a.975.975 0 01-1.856-.155l-1.817-8.174-8.174-1.817a.976.976 0 01-.155-1.856l18.049-7.317a.976.976 0 011.056.214zM6.745 10.02l5.723 1.271c.37.083.658.371.74.741l1.272 5.723 5.274-13.009L6.745 10.02z"/>
</symbol><symbol viewBox="0 0 25 24" id="tab-bar__phone" xmlns="http://www.w3.org/2000/svg">
    <path clip-rule="evenodd" d="M6.173 2.919a2 2 0 013.129.385l1.94 3.232a2 2 0 01-.301 2.444l-1.027 1.026c.21.43.736 1.26 2.031 2.555 1.295 1.295 2.125 1.82 2.555 2.03l1.026-1.026a2 2 0 012.444-.3l3.232 1.939a2 2 0 01.385 3.13l-2.509 2.508c-.556.556-1.36.915-2.24.806-1.747-.218-5.693-1.097-9.314-4.653-3.656-3.59-4.492-7.609-4.682-9.361-.094-.867.265-1.65.81-2.193l2.52-2.522zm1.414 1.414L5.065 6.855c-.19.19-.253.396-.235.563.16 1.477.88 4.993 4.095 8.15 3.207 3.15 6.683 3.911 8.16 4.095.172.021.386-.042.58-.236l2.508-2.508-3.232-1.94-1.179 1.179c-.339.339-.958.674-1.674.426-.694-.24-1.836-.887-3.557-2.609-1.722-1.721-2.37-2.863-2.61-3.557-.248-.716.088-1.335.427-1.674l1.178-1.179-1.939-3.232z"/>
</symbol><symbol viewBox="0 0 25 24" id="tab-bar__search" xmlns="http://www.w3.org/2000/svg">
    <path d="M11.5 3a8 8 0 016.32 12.905l3.887 3.888-1.414 1.414-3.889-3.886A8 8 0 1111.5 3zm0 2a6 6 0 100 12 6 6 0 000-12z"/>
</symbol><symbol viewBox="0 0 24 25" id="undone-ring" xmlns="http://www.w3.org/2000/svg">
    <path clip-rule="evenodd" d="M12 2.001c-5.523 0-10 4.478-10 10 0 5.523 4.477 10 10 10s10-4.477 10-10c0-5.522-4.477-10-10-10zm-8 10a8 8 0 1116 0 8 8 0 01-16 0z"/>
    <path d="M8.319 9.709l2.293 2.293-2.293 2.292 1.414 1.415 2.293-2.293 2.293 2.293 1.414-1.415-2.293-2.293 2.293-2.292-1.414-1.415-2.293 2.293-2.293-2.293L8.32 9.71z"/>
</symbol><symbol viewBox="0 0 24 25" id="undone-ring-red" xmlns="http://www.w3.org/2000/svg">
    <path clip-rule="evenodd" d="M12 2.5c-5.523 0-10 4.477-10 10s4.477 10 10 10 10-4.477 10-10-4.477-10-10-10zm-8 10a8 8 0 1116 0 8 8 0 01-16 0z"/>
    <path d="M8.319 10.207l2.293 2.293-2.293 2.293 1.414 1.414 2.293-2.293 2.293 2.293 1.414-1.414L13.44 12.5l2.293-2.293-1.414-1.414-2.293 2.293-2.293-2.293-1.414 1.414z"/>
</symbol><symbol viewBox="0 0 24 24" id="warning-ring" xmlns="http://www.w3.org/2000/svg">
    <path d="M11 13V7h2v6h-2zM12 17a1.25 1.25 0 110-2.5 1.25 1.25 0 010 2.5z"/>
    <path clip-rule="evenodd" d="M12 22C6.477 22 2 17.523 2 12S6.477 2 12 2s10 4.477 10 10-4.477 10-10 10zm0-2a8 8 0 100-16 8 8 0 000 16z"/>
</symbol><symbol viewBox="0 0 48 48" id="warning-ring-xl" xmlns="http://www.w3.org/2000/svg">
    <path d="M22 26V14h4v12h-4zM24 34a2.5 2.5 0 110-5 2.5 2.5 0 010 5z"/>
    <path clip-rule="evenodd" d="M24 44C12.954 44 4 35.046 4 24S12.954 4 24 4s20 8.954 20 20-8.954 20-20 20zm0-4c8.837 0 16-7.163 16-16S32.837 8 24 8 8 15.163 8 24s7.163 16 16 16z"/>
</symbol><symbol viewBox="0 0 24 24" id="warning-tr" xmlns="http://www.w3.org/2000/svg">
    <path clip-rule="evenodd" d="M12.874 2.514a1 1 0 00-1.748 0l-10 18A1 1 0 002 22h20a1 1 0 00.874-1.486l-10-18zM12 5.06L20.3 20H3.7L12 5.06zM11 10v5h2v-5h-2zm1 8.75a1.25 1.25 0 110-2.5 1.25 1.25 0 010 2.5z"/>
</symbol><symbol viewBox="0 0 48 48" id="warning-tr-xl" xmlns="http://www.w3.org/2000/svg">
    <path clip-rule="evenodd" d="M25.748 5.029a2 2 0 00-3.496 0l-20 36A2 2 0 004 44h40a2 2 0 001.748-2.971l-20-36zM24 10.119L40.601 40H7.399L24 10.118zM22 20v10h4V20h-4zm2 17.5a2.5 2.5 0 110-5 2.5 2.5 0 010 5z"/>
</symbol>
<symbol viewBox="0 0 48 48" id="akcii" xmlns="http://www.w3.org/2000/svg">
    <path fill-rule="evenodd" d="M4 40C4 41.1046 4.89543 42 6 42L42 42C43.1046 42 44 41.1046 44 40L44 16C44 15.4696 43.7893 14.9609 43.4142 14.5858C43.0391 14.2107 42.5304 14 42 14L6 14C4.89543 14 4 14.8954 4 16V40ZM12 18L36 18C36 20.2091 37.7909 22 40 22V34C37.7909 34 36 35.7909 36 38H12C12 35.7909 10.2091 34 8 34L8 22C10.2091 22 12 20.2091 12 18Z"/>
</symbol>
<symbol viewBox="0 0 48 48" id="unarchive" xmlns="http://www.w3.org/2000/svg">
    <path d="M6.15234 8C6.15234 6.89543 7.04777 6 8.15234 6H40.1523C41.2569 6 42.1523 6.89543 42.1523 8V16C42.1523 17.1046 41.2569 18 40.1523 18H34.1523L31.8595 15.7071C31.2295 15.0771 31.6757 14 32.5666 14H38.1523V10H10.1523V14H15.7381C16.629 14 17.0752 15.0771 16.4452 15.7071L14.1523 18H8.15234C7.04777 18 6.15234 17.1046 6.15234 16V8Z" fill="#264796"/>
    <path d="M10.1523 38V22H6.15234V40C6.15234 41.1046 7.04777 42 8.15234 42H40.1523C41.2569 42 42.1523 41.1046 42.1523 40V22H38.1523V38H10.1523Z" fill="#264796"/>
    <path d="M25.5666 14.5858C24.7855 13.8047 23.5192 13.8047 22.7382 14.5858L14.7382 22.5858L17.5666 25.4142L22.1524 20.8284V34H26.1524V20.8284L30.7382 25.4142L33.5666 22.5858L25.5666 14.5858Z"/>
</symbol>
<symbol viewBox="0 0 48 48" id="tenders2" xmlns="http://www.w3.org/2000/svg">
    <path fill-rule="evenodd" d="M27.7887 3.1056C27.5012 2.53058 26.9548 2.12883 26.3202 2.02585C25.6856 1.92287 25.0402 2.13122 24.5856 2.58581L14.5856 12.5858C13.8046 13.3669 13.8046 14.6332 14.5856 15.4142L17.9999 18.8285V19.1019L3.8418 31.6868C1.26135 33.9806 1.14475 37.9733 3.58565 40.4142C6.02654 42.8551 10.0193 42.7385 12.313 40.1581L24.898 26H25.1714L28.5856 29.4142C29.3667 30.1953 30.633 30.1953 31.4141 29.4142L41.4141 19.4142C41.8687 18.9596 42.077 18.3142 41.974 17.6797C41.8711 17.0451 41.4693 16.4987 40.8943 16.2112L37.9999 14.764V14C37.9999 13.4696 37.7891 12.9609 37.4141 12.5858L31.4141 6.58581C31.039 6.21074 30.5303 6.00002 29.9999 6.00002H29.2359L27.7887 3.1056ZM21.4141 16.5858L18.8283 14L25.452 7.37635L26.211 8.89445C26.5498 9.57202 27.2423 10 27.9999 10H29.1714L33.9999 14.8285V16C33.9999 16.7576 34.4279 17.4501 35.1054 17.7889L36.6235 18.5479L29.9999 25.1716L27.4141 22.5858C27.039 22.2107 26.5303 22 25.9999 22H23.9999C23.4286 22 22.8846 22.2443 22.505 22.6713L9.32341 37.5006C8.55909 38.3605 7.22798 38.3997 6.41407 37.5858C5.60017 36.7719 5.63939 35.4408 6.49925 34.6765L21.3286 21.4948C21.7556 21.1153 21.9999 20.5713 21.9999 20V18C21.9999 17.4696 21.7891 16.9609 21.4141 16.5858Z" />
    <path fill-rule="evenodd" d="M25.9999 34C25.3312 34 24.7067 34.3342 24.3358 34.8906L20.3358 40.8906C19.9266 41.5043 19.8885 42.2934 20.2365 42.9437C20.5846 43.594 21.2623 44 21.9999 44H43.9999C44.7375 44 45.4152 43.594 45.7632 42.9437C46.1113 42.2934 46.0731 41.5043 45.664 40.8906L41.664 34.8906C41.293 34.3342 40.6686 34 39.9999 34H25.9999ZM25.7369 40L27.0702 38H38.9295L40.2628 40H25.7369Z" />
</symbol>
<symbol viewBox="0 0 48 48" id="tenders" xmlns="http://www.w3.org/2000/svg">
    <path fill-rule="evenodd" d="M22 2C22 0.89543 22.8954 0 24 0H30V4H26V8.10019C30.5698 8.55932 34.8658 10.5815 38.1421 13.8579C41.4185 17.1342 43.4407 21.4302 43.8998 26H48V30H46V38H48V42H0V38H2V30H0V26H4.10019C4.55932 21.4302 6.58153 17.1342 9.85787 13.8579C13.1342 10.5815 17.4302 8.55932 22 8.10019V2ZM36 30H42V38H36V30ZM32 30H26V38H32V30ZM16 30H22V38H16V30ZM12 30H6V38H12V30ZM39.8746 26C39.4329 22.494 37.839 19.2115 35.3137 16.6863C32.3131 13.6857 28.2435 12 24 12C19.7565 12 15.6869 13.6857 12.6863 16.6863C10.161 19.2115 8.56707 22.494 8.12543 26H39.8746Z"/>
</symbol>
<symbol viewBox="0 0 48 48" id="tarifs2" xmlns="http://www.w3.org/2000/svg">
    <path d="M26 32H22V36H26V32Z"/>
    <path d="M22 24H26V28H22V24Z"/>
    <path d="M18 36V32H14V36H18Z"/>
    <path d="M18 24V28H14V24H18Z"/>
    <path d="M34 36V32H30V36H34Z"/>
    <path d="M34 24V28H30V24H34Z"/>
    <path fill-rule="evenodd" d="M16 6C16 4.89543 16.8954 4 18 4H30C31.1046 4 32 4.89543 32 6V8H40C41.1046 8 42 8.89543 42 10V42C42 43.1046 41.1046 44 40 44H8C6.89543 44 6 43.1046 6 42V10C6 8.89543 6.89543 8 8 8H16V6ZM32 16V12H38V40H10V12H16V16H14V20H34V16H32ZM28 16V8H20V16H28Z"/>
</symbol>
<symbol viewBox="0 0 48 48" id="tarifs" xmlns="http://www.w3.org/2000/svg">
    <path fill-rule="evenodd" clip-rule="evenodd" d="M40 16.2698V42.2698C40 43.3744 39.1046 44.2698 38 44.2698H10C8.89543 44.2698 8 43.3744 8 42.2698V6.26984C8 5.16527 8.89543 4.26984 10 4.26984H28C28.5304 4.26984 29.0391 4.48055 29.4142 4.85562L39.4142 14.8556C39.7893 15.2307 40 15.7394 40 16.2698ZM24 8.26984H12V40.2698H36V20.2698H26C24.8954 20.2698 24 19.3744 24 18.2698V8.26984ZM28 9.09826V16.2698H35.1716L28 9.09826Z" fill="#264796"/>
    <path fill-rule="evenodd" clip-rule="evenodd" d="M32 28.2698H24V24.2698H32V28.2698Z" fill="#264796"/>
    <path fill-rule="evenodd" clip-rule="evenodd" d="M34 36.2698H24V32.2698L34 32.2698V36.2698Z" fill="#264796"/>
    <path fill-rule="evenodd" clip-rule="evenodd" d="M20 24.2698V36.2698H16V24.2698H20Z" fill="#264796"/>
    <path d="M20.5 18.7698C20.5 20.1505 19.3807 21.2698 18 21.2698C16.6193 21.2698 15.5 20.1505 15.5 18.7698C15.5 17.3891 16.6193 16.2698 18 16.2698C19.3807 16.2698 20.5 17.3891 20.5 18.7698Z" fill="#264796"/>
</symbol>
<symbol viewBox="0 0 48 48" id="target" xmlns="http://www.w3.org/2000/svg">
    <path fill-rule="evenodd" clip-rule="evenodd" d="M21.5859 3.41455L24.1723 6.00049L24 6C12.9543 6 4 14.9541 4 26C4 37.0459 12.9543 46 24 46C35.0457 46 44 37.0459 44 26C44 20.8789 42.0726 16.2031 38.9069 12.666L35.9264 15.334C38.4611 18.166 40 21.9009 40 26C40 34.8364 32.8365 42 24 42C15.1635 42 8 34.8364 8 26C8 17.1636 15.1635 10 24 10C24.6927 10 25.3745 10.0439 26.0428 10.1289L21.5859 14.5859L24.4144 17.4146L31.4144 10.4146C32.1954 9.6333 32.1954 8.36719 31.4144 7.58594L24.4144 0.585938L21.5859 3.41455ZM26 26C26 27.1045 25.1046 28 24 28C22.8954 28 22 27.1045 22 26C22 24.8955 22.8954 24 24 24C25.1046 24 26 24.8955 26 26ZM16 25.9999C16 24.1963 16.5945 22.5373 17.599 21.2003L14.401 18.7976C12.8939 20.8036 12 23.3003 12 25.9999C12 32.6273 17.3726 37.9999 24 37.9999C30.6274 37.9999 36 32.6273 36 25.9999C36 23.3003 35.1061 20.8036 33.599 18.7976L30.401 21.2003C31.4055 22.5373 32 24.1963 32 25.9999C32 30.4182 28.4183 33.9999 24 33.9999C19.5817 33.9999 16 30.4182 16 25.9999Z" fill="#264796"/>
</symbol>
<symbol viewBox="0 0 48 48" id="sms" xmlns="http://www.w3.org/2000/svg">
    <path d="M14 8H34V4H14V8Z" fill="#264796"/>
    <path d="M38 16H10V12H38V16Z" fill="#264796"/>
    <path fill-rule="evenodd" clip-rule="evenodd" d="M6 22C6 20.8954 6.89543 20 8 20H40C41.1046 20 42 20.8954 42 22V42C42 43.1046 41.1046 44 40 44H8C6.89543 44 6 43.1046 6 42V22ZM14 24L24 31.5L34 24H14ZM38 26L25.2 35.6C24.4889 36.1333 23.5111 36.1333 22.8 35.6L10 26V40H38V26Z" fill="#264796"/>
</symbol>
<symbol viewBox="0 0 48 48" id="sertificate" xmlns="http://www.w3.org/2000/svg">
    <path d="M4 38.2698C4 39.3744 4.89543 40.2698 6 40.2698H24V36.2698H8L8 12.2698L40 12.2698V24.2698H44V10.2698C44 9.16526 43.1046 8.26984 42 8.26984H6C4.89543 8.26984 4 9.16527 4 10.2698V38.2698Z" fill="#264796"/>
    <path d="M12 20.2698H36V16.2698H12V20.2698Z" fill="#264796"/>
    <path d="M28 24.2698H12V28.2698H28V24.2698Z" fill="#264796"/>
    <path fill-rule="evenodd" clip-rule="evenodd" d="M28.8906 30.6057L34.8906 26.6057C35.5624 26.1579 36.4376 26.1579 37.1094 26.6057L43.1094 30.6057C43.6658 30.9767 44 31.6011 44 32.2698V38.2698C44 38.9385 43.6658 39.563 43.1094 39.9339L37.1094 43.9339C36.4376 44.3818 35.5624 44.3818 34.8906 43.9339L28.8906 39.9339C28.3342 39.563 28 38.9385 28 38.2698L28 32.2698C28 31.6011 28.3342 30.9767 28.8906 30.6057ZM40 37.1995V33.3402L36 30.6735L32 33.3402V37.1995L36 39.8661L40 37.1995Z" fill="#264796"/>
</symbol>
<symbol viewBox="0 0 48 48" id="obligacii" xmlns="http://www.w3.org/2000/svg">
    <path d="M6.00012 6C4.89555 6 4.00012 6.89543 4.00012 8V20H8.00012V10H40.0001V32H30.0001V36H42.0001C43.1047 36 44.0001 35.1046 44.0001 34V8C44.0001 6.89543 43.1047 6 42.0001 6H6.00012Z" fill="#264796"/>
    <path d="M16.0001 18L32.0001 18V14L16.0001 14V18Z" fill="#264796"/>
    <path d="M22.0001 36C19.791 36 18.0001 37.7909 18.0001 40C18.0001 42.2091 19.791 44 22.0001 44C24.2093 44 26.0001 42.2091 26.0001 40C26.0001 37.7909 24.2093 36 22.0001 36Z" fill="#264796"/>
    <path d="M4.00012 28C4.00012 25.7909 5.79098 24 8.00012 24C10.2093 24 12.0001 25.7909 12.0001 28C12.0001 30.2091 10.2093 32 8.00012 32C5.79098 32 4.00012 30.2091 4.00012 28Z" fill="#264796"/>
    <path d="M6.41436 45.4142L24.4144 27.4142L21.5859 24.5858L3.58594 42.5858L6.41436 45.4142Z" fill="#264796"/>
    <path d="M28.0001 26V22H36.0001V26H28.0001Z" fill="#264796"/>
</symbol>
<symbol viewBox="0 0 48 48" id="modul" xmlns="http://www.w3.org/2000/svg">
    <path d="M6.00012 6C4.89555 6 4.00012 6.89543 4.00012 8V20H8.00012V10H40.0001V32H30.0001V36H42.0001C43.1047 36 44.0001 35.1046 44.0001 34V8C44.0001 6.89543 43.1047 6 42.0001 6H6.00012Z" fill="#264796"/>
    <path d="M16.0001 18L32.0001 18V14L16.0001 14V18Z" fill="#264796"/>
    <path d="M22.0001 36C19.791 36 18.0001 37.7909 18.0001 40C18.0001 42.2091 19.791 44 22.0001 44C24.2093 44 26.0001 42.2091 26.0001 40C26.0001 37.7909 24.2093 36 22.0001 36Z" fill="#264796"/>
    <path d="M4.00012 28C4.00012 25.7909 5.79098 24 8.00012 24C10.2093 24 12.0001 25.7909 12.0001 28C12.0001 30.2091 10.2093 32 8.00012 32C5.79098 32 4.00012 30.2091 4.00012 28Z" fill="#264796"/>
    <path d="M6.41436 45.4142L24.4144 27.4142L21.5859 24.5858L3.58594 42.5858L6.41436 45.4142Z" fill="#264796"/>
    <path d="M28.0001 26V22H36.0001V26H28.0001Z" fill="#264796"/>
</symbol>
<symbol viewBox="0 0 48 48" id="mobile" xmlns="http://www.w3.org/2000/svg">
    <path d="M30 36C30 37.1046 29.1046 38 28 38C26.8954 38 26 37.1046 26 36C26 34.8954 26.8954 34 28 34C29.1046 34 30 34.8954 30 36Z" fill="#264796"/>
    <path fill-rule="evenodd" clip-rule="evenodd" d="M14 14C14 11.7909 15.7909 10 18 10H38C40.2091 10 42 11.7909 42 14V42C42 44.2091 40.2091 46 38 46H18C15.7909 46 14 44.2091 14 42V14ZM38 14L18 14V42H38V14Z" fill="#264796"/>
    <path fill-rule="evenodd" clip-rule="evenodd" d="M6 6C6 3.79086 7.79086 2 10 2H34V6H10V38H6V6Z" fill="#264796"/>
</symbol>
<symbol viewBox="0 0 48 48" id="mobile-corp" xmlns="http://www.w3.org/2000/svg">
    <path d="M30 36C30 37.1046 29.1046 38 28 38C26.8954 38 26 37.1046 26 36C26 34.8954 26.8954 34 28 34C29.1046 34 30 34.8954 30 36Z" fill="#264796"/>
    <path fill-rule="evenodd" clip-rule="evenodd" d="M14 14C14 11.7909 15.7909 10 18 10H38C40.2091 10 42 11.7909 42 14V42C42 44.2091 40.2091 46 38 46H18C15.7909 46 14 44.2091 14 42V14ZM38 14L18 14V42H38V14Z" fill="#264796"/>
    <path fill-rule="evenodd" clip-rule="evenodd" d="M6 6C6 3.79086 7.79086 2 10 2H34V6H10V38H6V6Z" fill="#264796"/>
</symbol>
<symbol viewBox="0 0 48 48" id="leasing" xmlns="http://www.w3.org/2000/svg">
    <path fill-rule="evenodd" clip-rule="evenodd" d="M40.895 33.7889L40.0005 34.2361V42C40.0005 43.1046 39.1051 44 38.0005 44H30.0005C28.896 44 28.0005 43.1046 28.0005 42V40H14.0005V42C14.0005 43.1046 13.1051 44 12.0005 44H4.00055C2.89598 44 2.00055 43.1046 2.00055 42V30.047C1.99982 30.0159 1.99981 29.9848 2.00055 29.9536V28.6667C2.00055 26.5971 3.14247 24.9637 4.01396 23.9954C4.37614 23.593 4.7349 23.2573 5.03659 22.9978C5.13204 21.3621 5.42796 18.5035 6.05177 15.8003C6.44246 14.1073 6.99461 12.3247 7.79243 10.919C8.54083 9.60043 9.87184 8 12.0005 8H25.0096C25.0369 7.39754 25.1261 6.7967 25.2775 6.2081C25.7307 4.44662 26.7228 2.87023 28.126 1.73844C29.5318 0.604578 31.2684 -0.0152489 33.0664 0.000285063C34.8644 0.0158183 36.5904 0.665474 37.9775 1.82249C39.3622 2.97741 40.3298 4.56959 40.7559 6.338C40.7856 6.46121 40.8126 6.5849 40.8369 6.70899C41.3019 6.83629 41.7368 6.97056 42.133 7.10263C42.9449 7.37326 43.6223 7.64411 44.1009 7.84921C44.3407 7.95197 44.5319 8.03882 44.6666 8.1017C44.734 8.13315 44.7874 8.15866 44.8258 8.17722L44.872 8.19975L44.8864 8.20688L44.8914 8.20938L44.895 8.21114C45.5725 8.54993 46.0005 9.24246 46.0005 10V20C46.0005 20.7575 45.5725 21.4501 44.895 21.7889L42.0005 23.2361V32C42.0005 32.7575 41.5725 33.4501 40.895 33.7889ZM12.0083 12H26.0005V20C26.0005 20.7575 26.4286 21.4501 27.1061 21.7889L27.5284 22H9.1243C9.25923 20.5488 9.51597 18.5776 9.94933 16.6997C10.3086 15.1427 10.7565 13.8003 11.2712 12.8935C11.5261 12.4442 11.7459 12.1953 11.8957 12.074C11.9588 12.0229 11.9968 12.0049 12.0083 12ZM7.68052 26H30.0005V32C30.0005 32.7575 30.4286 33.4501 31.1061 33.7889L35.1061 35.7889C35.3876 35.9296 35.6941 36 36.0005 36V40H32.0005V36H10.0005V40H6.00055V32.7748L9.36809 33.8974C10.416 34.2467 11.5486 33.6803 11.8979 32.6324C12.2472 31.5846 11.6809 30.4519 10.633 30.1026L6.00428 28.5597C6.04383 27.9868 6.39578 27.3283 6.98714 26.6713C7.22949 26.402 7.47572 26.1739 7.68052 26ZM30.6373 4.85189C31.342 4.2835 32.1841 3.99281 33.0319 4.00014C33.8797 4.00746 34.7183 4.31276 35.4154 4.89424C35.7834 5.20113 36.1015 5.57681 36.3543 6.00441C36.2366 6.0015 36.1187 6 36.0005 6C33.698 6 31.4679 6.56936 29.8681 7.10263C29.6009 7.19169 29.3483 7.28078 29.1125 7.36754C29.1245 7.31308 29.1375 7.25878 29.1514 7.20468C29.3984 6.24449 29.93 5.42235 30.6373 4.85189ZM36.7172 10.0243C36.6994 10.0736 36.6807 10.1227 36.6611 10.1715C36.2719 11.1427 35.6842 11.8585 34.9734 12.2839C34.0256 12.8512 33.7171 14.0793 34.2844 15.0271C34.8516 15.9749 36.0798 16.2834 37.0276 15.7161C38.6242 14.7605 39.7234 13.2832 40.3741 11.6593C40.4833 11.3869 40.5783 11.1097 40.659 10.8289C40.7295 10.8516 40.7992 10.8744 40.868 10.8974C41.2948 11.0396 41.6771 11.1818 42.0005 11.3098V18.7639L39.1061 20.2111C38.4285 20.5499 38.0005 21.2425 38.0005 22V30.7639L36.0005 31.7639L34.0005 30.7639V22C34.0005 21.2425 33.5725 20.5499 32.8949 20.2111L30.0005 18.7639V11.3098C30.3239 11.1818 30.7062 11.0396 31.1329 10.8974C32.5331 10.4306 34.303 10 36.0005 10C36.2384 10 36.4777 10.0085 36.7172 10.0243Z" fill="#264796"/>
</symbol>
<symbol viewBox="0 0 48 48" id="information" xmlns="http://www.w3.org/2000/svg">
    <path fill-rule="evenodd" clip-rule="evenodd" d="M25.5858 3.58579C26.3669 2.80474 27.6332 2.80474 28.4142 3.58579L42.4142 17.5858C43.1953 18.3668 43.1953 19.6332 42.4142 20.4142L38.8285 24H44C44.6932 24 45.3369 24.3589 45.7013 24.9485C46.0657 25.5382 46.0988 26.2745 45.7889 26.8944L37.7889 42.8944C37.4501 43.572 36.7575 44 36 44H6C4.89543 44 4 43.1046 4 42V22C4 20.8954 4.89543 20 6 20H6.76393L8.21115 17.1056C8.54993 16.428 9.24246 16 10 16H13.1716L25.5858 3.58579ZM38.1716 19L36.9383 20.2333C36.6585 20.0844 36.3391 20 36 20H32.0001L33.4142 18.5858L27.4142 12.5858L24.5858 15.4142L29.1716 20H24L21.6 16.8C21.2223 16.2964 20.6295 16 20 16H18.8285L27 7.82843L38.1716 19ZM23 24H34V40H8V24C8.75754 24 9.45007 23.572 9.78885 22.8944L11.2361 20H19L21.4 23.2C21.7777 23.7036 22.3705 24 23 24ZM38 33.5279V28H40.7639L38 33.5279Z" fill="#264796"/>
</symbol>
<symbol viewBox="0 0 48 48" id="gosuslugi-3" xmlns="http://www.w3.org/2000/svg">
    <path fill-rule="evenodd" clip-rule="evenodd" d="M22 2C22 0.89543 22.8954 0 24 0H30V4H26V8.10019C30.5698 8.55932 34.8658 10.5815 38.1421 13.8579C41.4185 17.1342 43.4407 21.4302 43.8998 26H48V30H46V38H48V42H0V38H2V30H0V26H4.10019C4.55932 21.4302 6.58153 17.1342 9.85787 13.8579C13.1342 10.5815 17.4302 8.55932 22 8.10019V2ZM36 30H42V38H36V30ZM32 30H26V38H32V30ZM16 30H22V38H16V30ZM12 30H6V38H12V30ZM39.8746 26C39.4329 22.494 37.839 19.2115 35.3137 16.6863C32.3131 13.6857 28.2435 12 24 12C19.7565 12 15.6869 13.6857 12.6863 16.6863C10.161 19.2115 8.56707 22.494 8.12543 26H39.8746Z" fill="#264796"/>
</symbol>
<symbol viewBox="0 0 48 48" id="globe-2" xmlns="http://www.w3.org/2000/svg">
    <path d="M34.7296 5.27203C38.1052 8.64769 40.0017 13.2261 40.0017 18C40.0017 22.7738 38.1052 27.3522 34.7296 30.7279C31.3539 34.1035 26.7756 36 22.0017 36C17.2278 36 12.6494 34.1035 9.27374 30.7279L6.44531 33.5563C10.5711 37.6821 16.1669 40 22.0017 40L22.0017 42H16.0016V46H32.0016V42H26.0016V39.6334C30.3494 38.8294 34.3877 36.7266 37.558 33.5563C41.6838 29.4305 44.0017 23.8347 44.0017 18C44.0017 12.1652 41.6838 6.5694 37.558 2.4436L34.7296 5.27203Z" fill="#264796"/>
    <path fill-rule="evenodd" clip-rule="evenodd" d="M22.0016 4C20.1631 4 18.3426 4.36212 16.6441 5.06569C14.9455 5.76925 13.4022 6.80048 12.1022 8.1005C10.8021 9.40053 9.7709 10.9439 9.06733 12.6424C8.36377 14.341 8.00165 16.1615 8.00165 18C8.00165 19.8385 8.36377 21.659 9.06733 23.3576C9.7709 25.0561 10.8021 26.5995 12.1022 27.8995C13.4022 29.1995 14.9455 30.2307 16.6441 30.9343C18.3426 31.6379 20.1631 32 22.0016 32C23.8402 32 25.6607 31.6379 27.3592 30.9343C29.0578 30.2307 30.6011 29.1995 31.9011 27.8995C33.2012 26.5995 34.2324 25.0561 34.936 23.3576C35.6395 21.659 36.0016 19.8385 36.0016 18C36.0016 16.1615 35.6395 14.341 34.936 12.6424C34.2324 10.9439 33.2012 9.40052 31.9011 8.10051C30.6011 6.80049 29.0578 5.76925 27.3592 5.06569C25.6607 4.36212 23.8402 4 22.0016 4ZM18.1748 8.7612C19.3881 8.25866 20.6884 8 22.0016 8C23.3149 8 24.6152 8.25866 25.8285 8.7612C27.0417 9.26375 28.1441 10.0003 29.0727 10.9289C30.0013 11.8575 30.7379 12.9599 31.2404 14.1732C31.743 15.3864 32.0016 16.6868 32.0016 18C32.0016 19.3132 31.743 20.6136 31.2404 21.8268C30.7379 23.0401 30.0013 24.1425 29.0727 25.0711C28.1441 25.9997 27.0417 26.7362 25.8285 27.2388C24.6152 27.7413 23.3149 28 22.0016 28C20.6884 28 19.3881 27.7413 18.1748 27.2388C16.9616 26.7362 15.8592 25.9997 14.9306 25.0711C14.002 24.1425 13.2654 23.0401 12.7629 21.8268C12.2603 20.6136 12.0016 19.3132 12.0016 18C12.0016 16.6868 12.2603 15.3864 12.7629 14.1732C13.2654 12.9599 14.002 11.8575 14.9306 10.9289C15.8592 10.0003 16.9616 9.26375 18.1748 8.7612Z" fill="#264796"/>
</symbol>
<symbol viewBox="0 0 48 48" id="gaurant" xmlns="http://www.w3.org/2000/svg">
    <path d="M43.2573 25.5553C43.6983 25.1987 43.9673 24.6717 43.9972 24.1054C44.0271 23.5391 43.8152 22.9867 43.4142 22.5856L39.4142 18.5858L36.5858 21.4142L39.0138 23.8421L34.57 27.4343L35.9885 32.71L30.5326 32.9912L28.5792 38.0932L24 35.1138L19.4208 38.0932L17.4674 32.9912L12.0115 32.71L13.43 27.4343L9.18141 23.9999L13.43 20.5655L12.0115 15.2897L17.4674 15.0085L19.4208 9.90656L24 12.8859L29.1158 9.55744L30.4242 11.2316L33.5758 8.76844L31.1381 5.6493C30.4992 4.83179 29.3413 4.63861 28.4716 5.20446L24 8.11381L19.5284 5.20446C19.0221 4.87505 18.3941 4.7921 17.8197 4.97875C17.2452 5.16539 16.7859 5.60165 16.5699 6.16573L14.6624 11.1478L9.33474 11.4224C8.73153 11.4535 8.17469 11.7555 7.81966 12.2442C7.46463 12.7328 7.34946 13.3557 7.50629 13.939L8.89146 19.0908L4.7427 22.4445C4.27297 22.8242 4 23.3959 4 23.9999C4 24.6039 4.27297 25.1755 4.7427 25.5552L8.89146 28.9089L7.50629 34.0607C7.34946 34.644 7.46463 35.2669 7.81966 35.7556C8.17469 36.2442 8.73153 36.5463 9.33474 36.5774L14.6624 36.852L16.5699 41.834C16.7859 42.3981 17.2452 42.8344 17.8197 43.021C18.3941 43.2077 19.0221 43.1247 19.5284 42.7953L24 39.8859L28.4716 42.7953C28.9779 43.1247 29.6059 43.2077 30.1803 43.021C30.7548 42.8344 31.2141 42.3981 31.4301 41.834L33.3376 36.852L38.6653 36.5774C39.2685 36.5463 39.8253 36.2442 40.1803 35.7556C40.5354 35.2669 40.6505 34.644 40.4937 34.0607L39.1085 28.9089L43.2573 25.5553Z" fill="#264796"/>
    <path d="M23.4144 29.4142L40.4144 12.4142L37.5859 9.58582L22.0002 25.1716L17.4144 20.5858L14.5859 23.4142L20.5859 29.4142C21.367 30.1953 22.6333 30.1953 23.4144 29.4142Z" fill="#264796"/>
</symbol>
<symbol viewBox="0 0 48 48" id="foreign" xmlns="http://www.w3.org/2000/svg">
    <path fill-rule="evenodd" clip-rule="evenodd" d="M4 24C4 12.9543 12.9543 4 24 4C35.0457 4 44 12.9543 44 24C44 35.0457 35.0457 44 24 44C22.8954 44 22 43.1046 22 42V26H6C4.89543 26 4 25.1046 4 24ZM12.0575 22H8.12379C8.69961 17.3822 11.2432 13.3756 14.8891 10.8457C13.3099 13.9098 12.3013 17.784 12.0575 22ZM18.6772 12.2434C19.7097 10.3849 20.8636 9.19262 22 8.55934V22H16.065C16.3185 18.1295 17.2953 14.7309 18.6772 12.2434ZM26 39.4407V26H31.935C31.6815 29.8705 30.7047 33.2691 29.3228 35.7566C28.2903 37.6151 27.1364 38.8074 26 39.4407ZM26 22H31.935C31.6815 18.1295 30.7047 14.7309 29.3228 12.2434C28.2903 10.3849 27.1364 9.19262 26 8.55934V22ZM33.1109 10.8457C34.6901 13.9098 35.6987 17.784 35.9425 22H39.8762C39.3004 17.3822 36.7568 13.3756 33.1109 10.8457ZM33.1109 37.1543C34.6901 34.0902 35.6987 30.216 35.9425 26H39.8762C39.3004 30.6178 36.7568 34.6244 33.1109 37.1543Z" fill="#264796"/>
    <path d="M17.4142 39.4141L9.41421 47.4141L6.58579 44.5856L11.1716 39.9998H0V35.9998H11.1716L6.58579 31.4141L9.41421 28.5856L17.4142 36.5856C18.1953 37.3667 18.1953 38.633 17.4142 39.4141Z" fill="#264796"/>
</symbol>
<symbol viewBox="0 0 48 48" id="finance" xmlns="http://www.w3.org/2000/svg">
    <path fill-rule="evenodd" clip-rule="evenodd" d="M15.9993 4C15.2788 4 14.6139 4.38759 14.2589 5.0146C13.9039 5.64162 13.9136 6.41113 14.2843 7.02899L19.5792 15.8539L10.1311 28.0015C7.38666 31.5301 7.34343 36.4588 10.0255 40.0349C11.8976 42.531 14.8356 44 17.9556 44H30.043C33.1631 44 36.1011 42.531 37.9731 40.0349C40.6552 36.4588 40.612 31.53 37.8676 28.0015L30.0886 18H35.9995V14H29.5317L33.7143 7.02899C34.085 6.41113 34.0947 5.64162 33.7397 5.0146C33.3847 4.38759 32.7199 4 31.9993 4H15.9993ZM13.2885 30.4573L22.9775 18H25.0211L34.7102 30.4573C36.3471 32.562 36.3729 35.5019 34.7731 37.6349C33.6565 39.1238 31.904 40 30.043 40H17.9556C16.0946 40 14.3421 39.1238 13.2255 37.6349C11.6257 35.5019 11.6515 32.562 13.2885 30.4573ZM28.4669 8L24.8669 14H23.1317L19.5317 8H28.4669Z" fill="#264796"/>
</symbol>
<symbol viewBox="0 0 48 48" id="finance-1" xmlns="http://www.w3.org/2000/svg">
    <path fill-rule="evenodd" clip-rule="evenodd" d="M39.3214 11.1443C36.8482 8.19683 33.7006 6.1391 30.2927 5.01296C29.2838 4.6796 28.1904 5.19325 27.8029 6.18256L20.6062 24.5562C20.3393 25.2377 20.4659 26.0105 20.9364 26.5712C21.4068 27.1319 22.1459 27.3908 22.8634 27.2462L42.2076 23.3494C43.2492 23.1396 43.9449 22.152 43.7918 21.1006C43.2746 17.5488 41.7947 14.0918 39.3214 11.1443ZM25.668 22.6009L30.7955 9.50983C32.8379 10.4657 34.7097 11.8712 36.2573 13.7155C37.8048 15.5597 38.8638 17.6472 39.4506 19.8245L25.668 22.6009Z" fill="#264796"/>
    <path d="M11.1447 8.67903C15.0679 5.38705 19.8841 3.85869 24.6294 4.00962L23.056 8.02682C19.7402 8.22029 16.4558 9.44412 13.7159 11.7432C6.94667 17.4232 6.06372 27.5153 11.7438 34.2845C17.4238 41.0537 27.5159 41.9367 34.2851 36.2566C37.0256 33.957 38.8014 30.9342 39.5674 27.7015L43.7966 26.8496C43.1216 31.5499 40.78 36.0283 36.8562 39.3208C28.3947 46.4208 15.7796 45.3172 8.67957 36.8557C1.57954 28.3942 2.68322 15.7791 11.1447 8.67903Z" fill="#264796"/>
</symbol>
<symbol viewBox="0 0 48 48" id="factoring" xmlns="http://www.w3.org/2000/svg">
    <path d="M22 26V34H26V26H22Z" fill="#264796"/>
    <path d="M30 34V26H34V34H30Z" fill="#264796"/>
    <path d="M14 26V34H18V26H14Z" fill="#264796"/>
    <path fill-rule="evenodd" clip-rule="evenodd" d="M10.8285 18L21.4142 7.41424L18.5858 4.58582L4.59482 18.5768C4.54524 18.6258 4.49799 18.6776 4.45333 18.732C4.07346 19.1954 3.92135 19.8047 4.03886 20.3922L8.03886 40.3922C8.22583 41.3271 9.04666 42 10 42H38C38.9534 42 39.7742 41.3271 39.9612 40.3922L43.9612 20.3922C44.0787 19.8047 43.9266 19.1954 43.5467 18.732C43.5027 18.6784 43.4563 18.6274 43.4075 18.5791L29.4142 4.58582L26.5858 7.41424L37.1716 18H10.8285ZM11.6396 38L8.43963 22H39.5604L36.3604 38H11.6396Z" fill="#264796"/>
</symbol>
<symbol viewBox="0 0 48 48" id="deposit" xmlns="http://www.w3.org/2000/svg">
    <path fill-rule="evenodd" clip-rule="evenodd" d="M6 8C6 6.89543 6.89543 6 8 6H40C41.1046 6 42 6.89543 42 8V40C42 41.1046 41.1046 42 40 42H38V46H34V42H14V46H10V42H8C6.89543 42 6 41.1046 6 40V8ZM10 10V38H38V30H34V32C34 33.1046 33.1046 34 32 34H16C14.8954 34 14 33.1046 14 32V16C14 14.8954 14.8954 14 16 14H32C33.1046 14 34 14.8954 34 16V18H38V10H10ZM34 26H38V22H34V26ZM18 18V22H22V26H18V30H30V18H18Z" fill="#264796"/>
</symbol>
<symbol viewBox="0 0 48 48" id="deposit-cell" xmlns="http://www.w3.org/2000/svg">
    <path d="M8 6.26984C6.89543 6.26984 6 7.16527 6 8.26984V40.2698C6 41.3744 6.89543 42.2698 8 42.2698H10V46.2698H14V42.2698H34V46.2698H38V42.2698H40C41.1046 42.2698 42 41.3744 42 40.2698V36.2698H38V38.2698H10V10.2698H38V12.2698H42V8.26984C42 7.16527 41.1046 6.26984 40 6.26984H8Z" fill="#264796"/>
    <path d="M16 14.2698C14.8954 14.2698 14 15.1653 14 16.2698V32.2698C14 33.3744 14.8954 34.2698 16 34.2698H30V30.2698H18V26.2698H22V22.2698H18V18.2698H30V14.2698H16Z" fill="#264796"/>
    <path d="M38 25.4413V16.2698H42V25.4416L45.5859 21.8557L48.4144 24.6841L41.4144 31.6841C40.6333 32.4651 39.367 32.4651 38.5859 31.6841L31.5859 24.6841L34.4144 21.8557L38 25.4413Z" fill="#264796"/>
</symbol>
<symbol viewBox="0 0 48 48" id="curency-operation" xmlns="http://www.w3.org/2000/svg">
    <path d="M39.999 22V16.8284L29.4132 27.4142L26.5847 24.5858L37.1705 14H31.9989V10H41.999C42.5294 10 43.0381 10.2107 43.4132 10.5858C43.7883 10.9609 43.999 11.4696 43.999 12V22H39.999Z" fill="#264796"/>
    <path d="M26.9988 37.1718V32.0002H22.9988L22.9988 42.0002C22.9988 43.1048 23.8942 44.0002 24.9988 44.0002H35.9988V40.0002H29.8272L40.413 29.4144L37.5846 26.586L26.9988 37.1718Z" fill="#264796"/>
    <path d="M11.3672 7.41439V5.41439H15.3672V7.41439C18.6809 7.41439 21.3672 10.1007 21.3672 13.4144H17.3672C17.3672 12.3098 16.4718 11.4144 15.3672 11.4144H11.3672C10.2626 11.4144 9.36719 12.3098 9.36719 13.4144C9.36719 14.519 10.2626 15.4144 11.3672 15.4144H15.3672C18.6809 15.4144 21.3672 18.1007 21.3672 21.4144C21.3672 24.7281 18.6809 27.4144 15.3672 27.4144V29.4144H11.3672V27.4144C8.05348 27.4144 5.36719 24.7281 5.36719 21.4144H9.36719C9.36719 22.519 10.2626 23.4144 11.3672 23.4144H15.3672C16.4718 23.4144 17.3672 22.519 17.3672 21.4144C17.3672 20.3098 16.4718 19.4144 15.3672 19.4144H11.3672C8.05348 19.4144 5.36719 16.7281 5.36719 13.4144C5.36719 10.1007 8.05348 7.41439 11.3672 7.41439Z" fill="#264796"/>
</symbol>
<symbol viewBox="0 0 48 48" id="curency-move" xmlns="http://www.w3.org/2000/svg">
    <path fill-rule="evenodd" clip-rule="evenodd" d="M16.2596 5.0146C16.6146 4.38759 17.2795 4 18 4H34C34.7205 4 35.3854 4.38759 35.7404 5.0146C36.0954 5.64162 36.0857 6.41113 35.715 7.02899L31.5324 14H38V18H32.0893L39.8683 28.0015C42.6126 31.53 42.6559 36.4588 39.9738 40.0349C38.1017 42.531 35.1637 44 32.0437 44H24V40H32.0437C33.9047 40 35.6572 39.1238 36.7738 37.6349C38.3736 35.5019 38.3478 32.562 36.7108 30.4573L27.0218 18H24C23.2975 18 22.6465 17.6314 22.285 17.029L16.285 7.02899C15.9143 6.41113 15.9046 5.64162 16.2596 5.0146ZM26.8676 14L30.4676 8H21.5324L25.1324 14H26.8676Z" fill="#264796"/>
    <path d="M14 20.2097V18.2097H18V20.2097C21.3137 20.2097 24 22.896 24 26.2097H20C20 25.1051 19.1046 24.2097 18 24.2097H14C12.8954 24.2097 12 25.1051 12 26.2097C12 27.3143 12.8954 28.2097 14 28.2097H18C21.3137 28.2097 24 30.896 24 34.2097C24 37.5234 21.3137 40.2097 18 40.2097V42.2097H14V40.2097C10.6863 40.2097 8 37.5234 8 34.2097H12C12 35.3143 12.8954 36.2097 14 36.2097H18C19.1046 36.2097 20 35.3143 20 34.2097C20 33.1051 19.1046 32.2097 18 32.2097H14C10.6863 32.2097 8 29.5234 8 26.2097C8 22.896 10.6863 20.2097 14 20.2097Z" fill="#264796"/>
</symbol>
<symbol viewBox="0 0 48 48" id="credit" xmlns="http://www.w3.org/2000/svg">
    <path fill-rule="evenodd" clip-rule="evenodd" d="M18 5C15.7909 5 14 6.79086 14 9V13H6C4.89543 13 4 13.8954 4 15V39C4 40.1046 4.89543 41 6 41H16V37H8V17H40V21H44V15C44 13.8954 43.1046 13 42 13H34V9C34 6.79086 32.2091 5 30 5H18ZM30 13V9H18V13H30Z" fill="#264796"/>
    <path d="M24.4144 44.4141L42.4144 26.4141L39.5859 23.5857L21.5859 41.5857L24.4144 44.4141Z" fill="#264796"/>
    <path d="M24 24C21.7909 24 20 25.7909 20 28C20 30.2091 21.7909 32 24 32C26.2091 32 28 30.2091 28 28C28 25.7909 26.2091 24 24 24Z" fill="#264796"/>
    <path d="M36 40C36 37.7909 37.7909 36 40 36C42.2091 36 44 37.7909 44 40C44 42.2091 42.2091 44 40 44C37.7909 44 36 42.2091 36 40Z" fill="#264796"/>
</symbol>
<symbol viewBox="0 0 48 48" id="credit-car" xmlns="http://www.w3.org/2000/svg">
    <path d="M26.4149 25.4142L44.4149 7.41424L41.5864 4.58582L23.5864 22.5858L26.4149 25.4142Z" fill="#264796"/>
    <path d="M22.0005 9C22.0005 6.79086 23.7913 5 26.0005 5C28.2096 5 30.0005 6.79086 30.0005 9C30.0005 11.2091 28.2096 13 26.0005 13C23.7913 13 22.0005 11.2091 22.0005 9Z" fill="#264796"/>
    <path d="M14.0005 6C11.8718 6 10.5408 7.60043 9.79237 8.91904C8.99455 10.3247 8.4424 12.1073 8.05171 13.8003C7.4279 16.5035 7.13198 19.3621 7.03653 20.9978C6.73484 21.2573 6.37608 21.593 6.0139 21.9954C5.14241 22.9637 4.00049 24.5971 4.00049 26.6667V27.9563C3.99984 27.9857 3.99984 28.015 4.00049 28.0443V40C4.00049 41.1046 4.89592 42 6.00049 42H14.0005C15.1051 42 16.0005 41.1046 16.0005 40V38H32.0005V40C32.0005 41.1046 32.8959 42 34.0005 42H42.0005C43.1051 42 44.0005 41.1046 44.0005 40V28.6667H40.0005V38H36.0005V34H12.0005V38H8.00049V30.7748L11.3681 31.8974C12.416 32.2467 13.5486 31.6803 13.8979 30.6324C14.2472 29.5846 13.6809 28.4519 12.633 28.1026L8.00423 26.5597C8.04378 25.9868 8.39573 25.3283 8.98708 24.6713C9.22943 24.402 9.47566 24.1739 9.68046 24H20.0005V20H11.1242C11.2592 18.5488 11.5159 16.5776 11.9493 14.6997C12.3086 13.1427 12.7564 11.8003 13.2711 10.8935C13.5261 10.4442 13.7458 10.1953 13.8956 10.074C13.9587 10.0229 13.9967 10.0049 14.0083 10H18.0005V6H14.0005Z" fill="#264796"/>
    <path d="M42.0005 17C39.7913 17 38.0005 18.7909 38.0005 21C38.0005 23.2091 39.7913 25 42.0005 25C44.2096 25 46.0005 23.2091 46.0005 21C46.0005 18.7909 44.2096 17 42.0005 17Z" fill="#264796"/>
</symbol>
<symbol viewBox="0 0 48 48" id="corporate" xmlns="http://www.w3.org/2000/svg">
    <path fill-rule="evenodd" clip-rule="evenodd" d="M4 11C4 7.13401 7.13401 4 11 4C14.866 4 18 7.13401 18 11C18 14.866 14.866 18 11 18C7.13401 18 4 14.866 4 11ZM11 8C9.34315 8 8 9.34315 8 11C8 12.6569 9.34315 14 11 14C12.6569 14 14 12.6569 14 11C14 9.34315 12.6569 8 11 8Z" fill="#264796"/>
    <path d="M35.0001 20C34.556 20 34.1196 20.0199 33.6912 20.0593V24.0832C34.1081 24.0288 34.5443 24 35.0001 24C40.5375 24 44 28.4033 44 34H48C48 26.7967 43.3044 20 35.0001 20Z" fill="#264796"/>
    <path d="M24.0001 30C15.6959 30 11 36.7966 11 44H15C15 38.4034 18.4628 34 24.0001 34C29.5375 34 33 38.4033 33 44H37C37 36.7967 32.3044 30 24.0001 30Z" fill="#264796"/>
    <path fill-rule="evenodd" clip-rule="evenodd" d="M37 4C33.134 4 30 7.13401 30 11C30 14.866 33.134 18 37 18C40.866 18 44 14.866 44 11C44 7.13401 40.866 4 37 4ZM34 11C34 9.34315 35.3431 8 37 8C38.6569 8 40 9.34315 40 11C40 12.6569 38.6569 14 37 14C35.3431 14 34 12.6569 34 11Z" fill="#264796"/>
    <path fill-rule="evenodd" clip-rule="evenodd" d="M17 21C17 17.134 20.134 14 24 14C27.866 14 31 17.134 31 21C31 24.866 27.866 28 24 28C20.134 28 17 24.866 17 21ZM24 18C22.3431 18 21 19.3431 21 21C21 22.6569 22.3431 24 24 24C25.6569 24 27 22.6569 27 21C27 19.3431 25.6569 18 24 18Z" fill="#264796"/>
    <path d="M12.9999 20C13.444 20 13.8804 20.0199 14.3088 20.0593V24.0832C13.8919 24.0288 13.4557 24 12.9999 24C7.46253 24 4 28.4033 4 34H0C0 26.7967 4.69558 20 12.9999 20Z" fill="#264796"/>
</symbol>
<symbol viewBox="0 0 48 48" id="click" xmlns="http://www.w3.org/2000/svg">
    <path d="M24.4427 44.2697C17.5588 44.3125 8.22857 35.1323 5.58038 29.168L5.57145 29.1466L5.51788 29.0252C4.17503 25.8288 3.86254 23.1502 5.33931 19.6485C7.57679 14.3003 18.8927 1.88081 27.0552 4.67364C32.889 6.67005 56.846 21.2806 33.8551 39.7715C30.923 42.1269 27.9462 44.2518 24.4427 44.2697ZM14.1285 27.6413C16.7821 32.2841 22.7552 37.7037 27.4409 34.7001C37.0158 28.5573 36.8836 22.6324 31.7391 17.5199C25.7623 11.5789 22.0141 12.5914 17.2481 17.561C16.1196 18.7378 15.1678 19.511 14.0339 21.7038C13.2178 23.2913 13.0499 25.7574 14.1285 27.6413Z" fill="#264796"/>
</symbol>
<symbol viewBox="0 0 48 48" id="chart-grow" xmlns="http://www.w3.org/2000/svg">
    <path fill-rule="evenodd" clip-rule="evenodd" d="M32 12C32 10.8954 32.8954 9.99998 34 9.99997H42C43.1046 9.99997 44 10.8954 44 12L44 40C44 41.1045 43.1046 42 42 42H34C32.8954 42 32 41.1045 32 40V12ZM36 14V38H40L40 14H36ZM4 28C4 26.8954 4.89543 26 6 26H14C15.1046 26 16 26.8954 16 28L16 40C16 41.1045 15.1046 42 14 42H6C4.89543 42 4 41.1045 4 40V28ZM8 30V38H12V30H8ZM18 20C18 18.8954 18.8954 18 20 18H28C29.1046 18 30 18.8954 30 20L30 40C30 41.1045 29.1046 42 28 42L20 42C18.8954 42 18 41.1045 18 40V20ZM22 22V38H26V22H22ZM21.9999 8.82888L9.41438 21.4142L6.58597 18.5858L19.1719 5.99995L14.9998 5.99994L14.9999 1.99994L23.9999 1.99997C24.5303 1.99997 25.039 2.21069 25.4141 2.58576C25.7892 2.96083 25.9999 3.46954 25.9999 3.99998L25.9998 12.9999L21.9998 12.9999L21.9999 8.82888Z" fill="#264796"/>
</symbol>
<symbol viewBox="0 0 48 48" id="case" xmlns="http://www.w3.org/2000/svg">
    <path d="M12 22V26H36V22H12Z" fill="#264796"/>
    <path fill-rule="evenodd" clip-rule="evenodd" d="M18 6C15.7909 6 14 7.79086 14 10V14H6C4.89543 14 4 14.8954 4 16V40C4 41.1046 4.89543 42 6 42H42C43.1046 42 44 41.1046 44 40V16C44 14.8954 43.1046 14 42 14H34V10C34 7.79086 32.2091 6 30 6H18ZM30 14V10H18V14H30ZM8 38V18H40V38H8Z" fill="#264796"/>
</symbol>
<symbol viewBox="0 0 48 48" id="card" xmlns="http://www.w3.org/2000/svg">
    <path d="M8 6C4.68629 6 2 8.68629 2 12V34H6V12C6 10.8954 6.89543 10 8 10H38V6H8Z" fill="#264796"/>
    <path fill-rule="evenodd" clip-rule="evenodd" d="M14 14C11.7909 14 10 15.7909 10 18V38C10 40.2091 11.7909 42 14 42H42C44.2091 42 46 40.2091 46 38L46 18C46 15.7909 44.2091 14 42 14H14ZM14 18H42L42 22L14 22V18ZM14 26L42 26V38H14V26Z" fill="#264796"/>
</symbol>
<symbol viewBox="0 0 48 48" id="branch-in" xmlns="http://www.w3.org/2000/svg">
    <path fill-rule="evenodd" clip-rule="evenodd" d="M23.0287 6.25169C23.6328 5.9161 24.3672 5.9161 24.9713 6.25169L42.9713 16.2517C43.6062 16.6044 44 17.2737 44 18V22C44 23.1046 43.1046 24 42 24H6C4.89543 24 4 23.1046 4 22V18C4 17.2737 4.39378 16.6044 5.02871 16.2517L23.0287 6.25169ZM8 19.1768V20H40V19.1768L24 10.2879L8 19.1768Z" fill="#264796"/>
    <path d="M17.1718 38H4V34H17.1717L13.5859 30.4142L16.4144 27.5858L23.4144 34.5858C24.1954 35.3669 24.1954 36.6332 23.4144 37.4142L16.4144 44.4142L13.5859 41.5858L17.1718 38Z" fill="#264796"/>
    <path d="M28 30H32V42H28V30Z" fill="#264796"/>
    <path d="M42 42V30H38V42H42Z" fill="#264796"/>
</symbol>
<symbol viewBox="0 0 48 48" id="atm" xmlns="http://www.w3.org/2000/svg">
    <path fill-rule="evenodd" clip-rule="evenodd" d="M16 12.2698C14.8954 12.2698 14 13.1653 14 14.2698V22.2698C14 23.3744 14.8954 24.2698 16 24.2698H32C33.1046 24.2698 34 23.3744 34 22.2698V14.2698C34 13.1653 33.1046 12.2698 32 12.2698H16ZM18 20.2698V16.2698H30V20.2698H18Z" fill="#264796"/>
    <path fill-rule="evenodd" clip-rule="evenodd" d="M40 40.2698C41.1046 40.2698 42 39.3744 42 38.2698L42 6.26984C42 5.16527 41.1046 4.26984 40 4.26984H8C6.89543 4.26984 6 5.16527 6 6.26984V38.2698C6 39.3744 6.89543 40.2698 8 40.2698H16V42.2698C16 43.3744 16.8954 44.2698 18 44.2698H30C31.1046 44.2698 32 43.3744 32 42.2698V40.2698H40ZM32 36.2698H38L38 8.26984L10 8.26984L10 36.2698H16L16 32.2698H14V28.2698L34 28.2698V32.2698H32L32 36.2698ZM20 40.2698L20 32.2698L28 32.2698L28 40.2698H20Z" fill="#264796"/>
</symbol>
<symbol viewBox="0 0 48 48" id="alliance" xmlns="http://www.w3.org/2000/svg">
    <path d="M36.2936 43.3524H44V25.3707C44 8.12304 28.7706 5.18726 23.0826 5.18726V12.8937C31.3394 12.8937 36.2936 18.5818 36.2936 25.3707V43.3524Z" fill="#264796"/>
    <path d="M11.7064 5.18726H4V23.1689C4 40.4166 19.2294 43.3524 24.9174 43.3524V35.646C16.6606 35.646 11.7064 29.9579 11.7064 23.1689V5.18726Z" fill="#264796"/>
</symbol>
<symbol viewBox="0 0 48 48" id="akcii" xmlns="http://www.w3.org/2000/svg">
    <path d="M40 6H8L8 10L40 10V6Z" fill="#264796"/>
    <path fill-rule="evenodd" clip-rule="evenodd" d="M4 40C4 41.1046 4.89543 42 6 42L42 42C43.1046 42 44 41.1046 44 40L44 16C44 15.4696 43.7893 14.9609 43.4142 14.5858C43.0391 14.2107 42.5304 14 42 14L6 14C4.89543 14 4 14.8954 4 16V40ZM12 18L36 18C36 20.2091 37.7909 22 40 22V34C37.7909 34 36 35.7909 36 38H12C12 35.7909 10.2091 34 8 34L8 22C10.2091 22 12 20.2091 12 18Z" fill="#264796"/>
</symbol>
</svg>
