<?xml version="1.0" encoding="utf-8"?><svg xmlns="http://www.w3.org/2000/svg" xmlns:xlink="http://www.w3.org/1999/xlink"><symbol viewBox="0 0 25 24" id="acquiring" xmlns="http://www.w3.org/2000/svg">
    <path d="M13.5 16h-2v2h2v-2zM11.5 12h2v2h-2v-2zM9.5 18v-2h-2v2h2zM9.5 12v2h-2v-2h2zM17.5 18v-2h-2v2h2zM17.5 12v2h-2v-2h2z"/>
    <path fill-rule="evenodd" clip-rule="evenodd" d="M8.5 3a1 1 0 011-1h6a1 1 0 011 1v1h4a1 1 0 011 1v16a1 1 0 01-1 1h-16a1 1 0 01-1-1V5a1 1 0 011-1h4V3zm8 5V6h3v14h-14V6h3v2h-1v2h10V8h-1zm-2 0V4h-4v4h4z"/>
</symbol><symbol viewBox="0 0 24 24" id="acquiring-1" xmlns="http://www.w3.org/2000/svg">
    <path d="M13 16h-2v2h2v-2zM11 12h2v2h-2v-2zM9 18v-2H7v2h2zM9 12v2H7v-2h2zM17 18v-2h-2v2h2zM17 12v2h-2v-2h2z"/>
    <path fill-rule="evenodd" clip-rule="evenodd" d="M8 3a1 1 0 011-1h6a1 1 0 011 1v1h4a1 1 0 011 1v16a1 1 0 01-1 1H4a1 1 0 01-1-1V5a1 1 0 011-1h4V3zm8 5V6h3v14H5V6h3v2H7v2h10V8h-1zm-2 0V4h-4v4h4z"/>
</symbol><symbol viewBox="0 0 320 512" id="angle-down" xmlns="http://www.w3.org/2000/svg">
    <path d="M151.5 347.8L3.5 201c-4.7-4.7-4.7-12.3 0-17l19.8-19.8c4.7-4.7 12.3-4.7 17 0L160 282.7l119.7-118.5c4.7-4.7 12.3-4.7 17 0l19.8 19.8c4.7 4.7 4.7 12.3 0 17l-148 146.8c-4.7 4.7-12.3 4.7-17 0z"/>
</symbol><symbol viewBox="0 0 192 512" id="angle-left" xmlns="http://www.w3.org/2000/svg">
    <path d="M4.2 247.5L151 99.5c4.7-4.7 12.3-4.7 17 0l19.8 19.8c4.7 4.7 4.7 12.3 0 17L69.3 256l118.5 119.7c4.7 4.7 4.7 12.3 0 17L168 412.5c-4.7 4.7-12.3 4.7-17 0L4.2 264.5c-4.7-4.7-4.7-12.3 0-17z"/>
</symbol><symbol viewBox="0 0 24 24" id="briefcase-interest" xmlns="http://www.w3.org/2000/svg">
    <path fill-rule="evenodd" clip-rule="evenodd" d="M9 2.5a2 2 0 00-2 2v2H3a1 1 0 00-1 1v12a1 1 0 001 1h5v-2H4v-10h16v2h2v-3a1 1 0 00-1-1h-4v-2a2 2 0 00-2-2H9zm6 4v-2H9v2h6z"/>
    <path d="M12.207 22.207l9-9-1.414-1.414-9 9 1.414 1.414zM12 12a2 2 0 100 4 2 2 0 000-4zM18 20a2 2 0 114 0 2 2 0 01-4 0z"/>
</symbol><symbol viewBox="0 0 24 24" id="car-rent" xmlns="http://www.w3.org/2000/svg">
    <path fill-rule="evenodd" clip-rule="evenodd" d="M20.448 16.894l-.448.224V21a1 1 0 01-1 1h-4a1 1 0 01-1-1v-1H7v1a1 1 0 01-1 1H2a1 1 0 01-1-1v-5.976V14.332c0-1.034.571-1.851 1.007-2.335.181-.201.36-.37.511-.5.048-.817.196-2.246.508-3.598.195-.846.471-1.738.87-2.44C4.27 4.8 4.936 4 6 4h6.505c.013-.301.058-.602.134-.896A4.215 4.215 0 0114.063.87 3.878 3.878 0 0116.533 0a3.884 3.884 0 012.456.911 4.224 4.224 0 011.43 2.443 12.407 12.407 0 011.994.735l.023.01.007.004.003.002h.002A1 1 0 0123 5v5a1 1 0 01-.552.894L21 11.618V16a1 1 0 01-.552.894zM6.004 6H13v4a1 1 0 00.553.894l.211.106H4.562a20.85 20.85 0 01.413-2.65c.18-.779.403-1.45.66-1.903.128-.225.238-.35.313-.41A.252.252 0 016.004 6zM3.84 13H15v3a1 1 0 00.553.894l2 1c.14.07.294.106.447.106v2h-2v-2H5v2H3v-3.613l1.684.562a1 1 0 00.632-1.898l-2.314-.771c.02-.287.196-.616.492-.944.12-.135.244-.249.346-.336zM15.32 2.426c.352-.284.773-.43 1.197-.426.424.004.843.156 1.192.447.184.154.343.341.47.555A7.14 7.14 0 0018 3c-1.151 0-2.266.285-3.066.551-.133.045-.26.09-.378.133l.02-.082c.123-.48.389-.89.743-1.176zm3.04 2.586l-.028.074c-.195.485-.489.843-.844 1.056a1 1 0 001.027 1.716c.798-.478 1.348-1.216 1.673-2.028.055-.137.102-.275.142-.416a10.476 10.476 0 01.671.24v3.728l-1.447.724A1 1 0 0019 11v4.382l-1 .5-1-.5V11a1 1 0 00-.552-.894L15 9.382V5.655c.162-.064.353-.135.566-.206C16.267 5.215 17.151 5 18 5c.12 0 .239.004.359.012z"/>
</symbol><symbol viewBox="0 0 24 24" id="early-payment" xmlns="http://www.w3.org/2000/svg">
    <path fill-rule="evenodd" clip-rule="evenodd" d="M19 11v6h-7v2h8a1 1 0 001-1V4a1 1 0 00-1-1h-4V1h-2v2h-4V1H8v2H4a1 1 0 00-1 1v7h16zM8 7V5H5v4h14V5h-3v2h-2V5h-4v2H8z"/>
    <path d="M4.5 15a1.5 1.5 0 11-3 0 1.5 1.5 0 013 0zM10.5 21a1.5 1.5 0 11-3 0 1.5 1.5 0 013 0zM3.207 22.207l7-7-1.414-1.414-7 7 1.414 1.414zM17 14a1 1 0 11-2 0 1 1 0 012 0z"/>
</symbol><symbol fill="none" viewBox="0 0 24 24" id="facebook" xmlns="http://www.w3.org/2000/svg">
    <path d="M13.875 8.563v-2.75c0-.76.616-1.375 1.375-1.375h1.375V1h-2.75A4.125 4.125 0 009.75 5.125v3.438H7V12h2.75v11h4.125V12h2.75L18 8.562h-4.125z" fill="#fff"/>
</symbol><symbol fill="none" viewBox="0 0 64 64" id="icon-doc" xmlns="http://www.w3.org/2000/svg">
    <path d="M16 0c-2.2 0-4 1.8-4 4v56c0 2.2 1.8 4 4 4h40c2.2 0 4-1.8 4-4V16L44 0H16z" fill="#E2E5E7"/>
    <path d="M48 16h12L44 0v12c0 2.2 1.8 4 4 4z" fill="#B0B7BD"/>
    <path d="M60 28L48 16h12v12z" fill="#CAD1D8"/>
    <path d="M52 52c0 1.1-.9 2-2 2H6c-1.1 0-2-.9-2-2V32c0-1.1.9-2 2-2h44c1.1 0 2 .9 2 2v20z" fill="#50BEE8"/>
    <path d="M11.572 48c-.528 0-1.104-.29-1.104-.992v-9.082c0-.576.576-.992 1.104-.992h3.662c7.308 0 7.146 11.066.142 11.066h-3.804zm1.008-9.116v7.164h2.654c4.318 0 4.508-7.164 0-7.164H12.58zM28.5 48.16c-2.958.128-6.03-1.84-6.03-5.758 0-3.934 3.07-5.868 6.03-5.868 2.798.142 5.724 2.078 5.724 5.868 0 3.792-2.926 5.758-5.724 5.758zm-.176-9.546c-1.792 0-3.742 1.264-3.742 3.79 0 2.512 1.952 3.792 3.742 3.792 1.84 0 3.806-1.28 3.806-3.792 0-2.528-1.966-3.79-3.806-3.79zM36.105 42.386c0-3.086 1.937-5.74 5.614-5.74 1.392 0 2.496.416 3.663 1.424.431.398.48 1.102.047 1.55a1.086 1.086 0 01-1.471-.048c-.654-.688-1.326-.878-2.239-.878-2.462 0-3.644 1.744-3.644 3.694 0 1.984 1.166 3.806 3.644 3.806.913 0 1.76-.37 2.496-1.024.494-.384 1.182-.194 1.47.192.256.352.383.944-.175 1.502-1.12 1.042-2.462 1.25-3.792 1.25-3.869 0-5.613-2.642-5.613-5.728z" fill="#fff"/>
    <path d="M50 54H12v2h38c1.1 0 2-.9 2-2v-2c0 1.1-.9 2-2 2z" fill="#CAD1D8"/>
</symbol><symbol fill="none" viewBox="0 0 64 64" id="icon-pdf" xmlns="http://www.w3.org/2000/svg">
    <path d="M16 0c-2.2 0-4 1.8-4 4v56c0 2.2 1.8 4 4 4h40c2.2 0 4-1.8 4-4V16L44 0H16z" fill="#E2E5E7"/>
    <path d="M48 16h12L44 0v12c0 2.2 1.8 4 4 4z" fill="#B0B7BD"/>
    <path d="M60 28L48 16h12v12z" fill="#CAD1D8"/>
    <path d="M52 52c0 1.1-.9 2-2 2H6c-1.1 0-2-.9-2-2V32c0-1.1.9-2 2-2h44c1.1 0 2 .9 2 2v20z" fill="#F15642"/>
    <path d="M12.718 37.894c0-.528.416-1.104 1.086-1.104h3.694c2.08 0 3.952 1.392 3.952 4.06 0 2.528-1.872 3.936-3.952 3.936h-2.67v2.112c0 .704-.448 1.102-1.024 1.102a1.078 1.078 0 01-1.086-1.102v-9.004zm2.11.91v3.984h2.67c1.072 0 1.92-.946 1.92-1.938 0-1.118-.848-2.046-1.92-2.046h-2.67zM24.581 48c-.527 0-1.104-.288-1.104-.99v-9.084c0-.574.576-.992 1.104-.992h3.663c7.307 0 7.148 11.066.143 11.066h-3.806zm1.009-9.114v7.164h2.654c4.318 0 4.51-7.164 0-7.164H25.59zM37.984 39.014v2.542h4.078c.576 0 1.152.576 1.152 1.134 0 .528-.576.96-1.152.96h-4.078v3.358c0 .56-.398.99-.958.99-.704 0-1.134-.43-1.134-.99v-9.084c0-.574.432-.992 1.134-.992h5.614c.704 0 1.12.418 1.12.992 0 .512-.416 1.088-1.12 1.088h-4.656v.002z" fill="#fff"/>
    <path d="M50 54H12v2h38c1.1 0 2-.9 2-2v-2c0 1.1-.9 2-2 2z" fill="#CAD1D8"/>
</symbol><symbol fill="none" viewBox="0 0 64 64" id="icon-xls" xmlns="http://www.w3.org/2000/svg">
    <path d="M16 0c-2.2 0-4 1.8-4 4v56c0 2.2 1.8 4 4 4h40c2.2 0 4-1.8 4-4V16L44 0H16z" fill="#E2E5E7"/>
    <path d="M48 16h12L44 0v12c0 2.2 1.8 4 4 4z" fill="#B0B7BD"/>
    <path d="M60 28L48 16h12v12z" fill="#CAD1D8"/>
    <path d="M52 52c0 1.1-.9 2-2 2H6c-1.1 0-2-.9-2-2V32c0-1.1.9-2 2-2h44c1.1 0 2 .9 2 2v20z" fill="#84BD5A"/>
    <path d="M18.041 40.774l2.782-3.486c.832-1.088 2.448.302 1.536 1.342a93.47 93.47 0 00-2.926 3.63l3.262 4.062c.88 1.2-.878 2.35-1.742 1.166l-2.944-3.774-2.894 3.856c-.816 1.166-2.624-.144-1.712-1.232l3.214-4.078c-1.008-1.264-1.984-2.494-2.958-3.63-1.006-1.2.864-2.43 1.6-1.308l2.782 3.452zM24.67 37.894c0-.528.448-.976 1.008-.976.512 0 .944.45.944.976v8.012h4.35c1.566 0 1.6 2.094 0 2.094H25.68c-.56 0-1.008-.398-1.008-.974v-9.132h-.002zM34.004 39.334c.368-3.104 5.052-3.662 7.26-1.966 1.088.878-.064 2.27-1.024 1.566-1.184-.75-3.87-1.102-4.206.558-.432 2.624 6.524 1.122 6.412 5.376-.112 4.062-5.996 4.156-8.204 2.334-.53-.432-.512-1.134-.224-1.568.416-.414.878-.558 1.424-.11 1.31.894 4.686 1.566 4.924-.706-.206-2.364-6.858-.942-6.362-5.484z" fill="#fff"/>
    <path d="M50 54H12v2h38c1.1 0 2-.9 2-2v-2c0 1.1-.9 2-2 2z" fill="#CAD1D8"/>
</symbol><symbol fill="none" viewBox="0 0 36 36" id="lng-gbp" xmlns="http://www.w3.org/2000/svg">
    <path d="M18 36c9.941 0 18-8.059 18-18S27.941 0 18 0 0 8.059 0 18s8.059 18 18 18z" fill="#F0F0F0"/>
    <path d="M3.721 7.041a17.934 17.934 0 00-3.1 6.264h9.363L3.721 7.04zM35.38 13.305a17.936 17.936 0 00-3.1-6.264l-6.264 6.264h9.364zM.62 22.696a17.936 17.936 0 003.101 6.263l6.263-6.263H.62zM28.96 3.721a17.934 17.934 0 00-6.264-3.1v9.363l6.263-6.263zM7.042 32.279a17.935 17.935 0 006.263 3.1v-9.363l-6.263 6.263zM13.305.62a17.936 17.936 0 00-6.263 3.101l6.263 6.263V.62zM22.696 35.38a17.936 17.936 0 006.263-3.1l-6.263-6.264v9.364zM26.016 22.696l6.263 6.263a17.937 17.937 0 003.101-6.263h-9.364z" fill="#0052B4"/>
    <path d="M35.848 15.652h-15.5V.152a18.18 18.18 0 00-4.696 0v15.5H.152a18.18 18.18 0 000 4.696h15.5v15.5a18.17 18.17 0 004.696 0v-15.5h15.5a18.17 18.17 0 000-4.696z" fill="#D80027"/>
    <path d="M22.695 22.696l8.033 8.032c.369-.37.721-.755 1.058-1.156l-6.877-6.876h-2.214zM13.304 22.696l-8.032 8.032c.37.37.755.722 1.156 1.058l6.876-6.877v-2.213zM13.304 13.305L5.272 5.271c-.37.37-.722.755-1.058 1.156l6.877 6.877h2.213zM22.695 13.305l8.033-8.033c-.37-.37-.756-.722-1.156-1.058l-6.877 6.877v2.214z" fill="#D80027"/>
</symbol><symbol fill="none" viewBox="0 0 36 36" id="lng-russia" xmlns="http://www.w3.org/2000/svg">
    <path d="M18 36c9.941 0 18-8.059 18-18S27.941 0 18 0 0 8.059 0 18s8.059 18 18 18z" fill="#F0F0F0"/>
    <path d="M34.88 24.26A17.96 17.96 0 0036 18c0-2.202-.396-4.31-1.12-6.26H1.12A17.962 17.962 0 000 18c0 2.202.396 4.31 1.12 6.26L18 25.827l16.88-1.565z" fill="#0052B4"/>
    <path d="M18 36c7.74 0 14.337-4.885 16.88-11.74H1.12C3.663 31.116 10.26 36 18 36z" fill="#D80027"/>
</symbol><symbol fill="none" viewBox="0 0 36 36" id="lng-usz" xmlns="http://www.w3.org/2000/svg">
    <g clip-path="url(#nclip0_776_9103)">
        <path d="M.85 12.522A17.982 17.982 0 000 18c0 1.91.299 3.75.85 5.478l17.15.783 17.15-.783A17.99 17.99 0 0036 18c0-1.91-.299-3.75-.85-5.478L18 11.739l-17.15.783z" fill="#F0F0F0"/>
        <path d="M35.15 12.522L18 11.739l-17.15.783a17.965 17.965 0 00-.422 1.565h35.144a17.906 17.906 0 00-.422-1.565zM.428 21.913c.118.53.259 1.053.422 1.565h.002L18 24.261l17.15-.783a17.97 17.97 0 00.422-1.565H.428z" fill="#D80027"/>
        <path d="M18 36c8.031 0 14.832-5.26 17.15-12.522H.85C3.168 30.74 9.97 36 18 36z" fill="#6DA544"/>
        <path d="M18 0C9.97 0 3.168 5.26.85 12.522h34.3C32.832 5.26 26.03 0 18 0z" fill="#338AF3"/>
        <path d="M8.226 7.435a3.522 3.522 0 012.767-3.44 3.522 3.522 0 100 6.88 3.522 3.522 0 01-2.767-3.44zM13.074 9.036l.238.733h.772l-.624.454.238.733-.624-.453-.624.454.238-.734-.624-.454h.772l.238-.733zM15.536 9.036l.239.733h.771l-.624.454.239.733-.625-.453-.624.454.239-.734-.624-.454h.771l.238-.733zM17.999 9.036l.238.733h.772l-.625.454.239.733-.624-.453-.624.454.238-.734-.624-.454h.771L18 9.036zM20.461 9.036l.239.733h.771l-.624.454.238.733-.624-.453-.624.454.239-.734-.625-.454h.772l.238-.733zM22.924 9.036l.238.733h.771l-.624.454.239.733-.624-.453-.625.454.239-.734-.624-.454h.771l.239-.733zM15.536 6.474l.239.734h.771l-.624.453.239.734-.625-.453-.624.453.239-.734-.624-.453h.771l.238-.734zM17.999 6.474l.238.734h.772l-.625.453.239.734-.624-.453-.624.453.238-.734-.624-.453h.771L18 6.474zM20.461 6.474l.239.734h.771l-.624.453.238.734-.624-.453-.624.453.239-.734-.625-.453h.772l.238-.734zM22.924 6.474l.238.734h.771l-.624.453.239.734-.624-.453-.625.453.239-.734-.624-.453h.771l.239-.734zM17.999 3.913l.238.734h.772l-.625.453.239.734-.624-.453-.624.453.238-.734-.624-.453h.771L18 3.913zM20.461 3.913l.239.734h.771l-.624.453.238.734-.624-.453-.624.453.239-.734-.625-.453h.772l.238-.734zM22.924 3.913l.238.734h.771l-.624.453.239.734-.624-.453-.625.453.239-.734-.624-.453h.771l.239-.734z" fill="#F0F0F0"/>
    </g>
    <defs>
        <clipPath id="nclip0_776_9103">
            <path fill="#fff" d="M0 0h36v36H0z"/>
        </clipPath>
    </defs>
</symbol><symbol fill="none" viewBox="0 0 24 24" id="odnoklassniki" xmlns="http://www.w3.org/2000/svg">
    <path d="M12.377 12.905a5.953 5.953 0 10-5.953-5.952 5.96 5.96 0 005.953 5.952zm0-9.158a3.205 3.205 0 110 6.411 3.205 3.205 0 010-6.41z" fill="#fff"/>
    <path d="M18.207 15.726a2.306 2.306 0 001.038-1.923 1.661 1.661 0 00-.931-1.516 1.74 1.74 0 00-1.832.172 6.968 6.968 0 01-8.21 0 1.75 1.75 0 00-1.832-.172c-.577.282-.94.872-.932 1.515a2.309 2.309 0 001.038 1.923c.83.551 1.733.983 2.683 1.282.161.05.327.096.499.14L6.96 19.852a1.832 1.832 0 102.596 2.584l2.82-2.92 2.827 2.925a1.832 1.832 0 102.586-2.593l-2.763-2.704c.172-.044.339-.09.501-.14.95-.297 1.852-.728 2.68-1.28z" fill="#fff"/>
</symbol><symbol viewBox="0 0 24 24" id="offer" xmlns="http://www.w3.org/2000/svg">
    <path fill-rule="evenodd" clip-rule="evenodd" d="M10 2a3 3 0 00-3 3v1H3a1 1 0 00-1 1v4a1 1 0 001 1v9a1 1 0 001 1h16a1 1 0 001-1v-9a1 1 0 001-1V7a1 1 0 00-1-1h-4V5a3 3 0 00-5-2.236A2.989 2.989 0 0010 2zm0 2a1 1 0 011 1v1H9V5a1 1 0 011-1zm4 0a1 1 0 011 1v1h-2V5a1 1 0 011-1zm-1 8h6v8h-6v-8zm-8 8v-8h6v8H5zm8-10V8h7v2h-7zm-2 0V8H4v2h7z"/>
</symbol><symbol fill="none" viewBox="0 0 24 24" id="printer" xmlns="http://www.w3.org/2000/svg">
    <path d="M7 13a1 1 0 100-2 1 1 0 000 2z" fill="#264796"/>
    <path fill-rule="evenodd" clip-rule="evenodd" d="M18 4v3h2a2 2 0 012 2v11a1 1 0 01-1 1H3a1 1 0 01-1-1V9a2 2 0 012-2h2V4a1 1 0 011-1h10a1 1 0 011 1zm-2 1v2H8V5h8zm4 4H4v10h3v-3a1 1 0 011-1h8a1 1 0 011 1v3h3V9zm-5 10v-2H9v2h6z" fill="#264796"/>
</symbol><symbol viewBox="0 0 24 24" id="purchases" xmlns="http://www.w3.org/2000/svg">
    <path fill-rule="evenodd" clip-rule="evenodd" d="M12 2a4 4 0 00-4 4v1H6a2 2 0 00-2 2v11a2 2 0 002 2h12a2 2 0 002-2V9a2 2 0 00-2-2h-2V6a4 4 0 00-4-4zm2 7v2h2V9h2v11H6V9h2v2h2V9h4zm0-2V6a2 2 0 10-4 0v1h4z"/>
</symbol><symbol fill="none" viewBox="0 0 24 24" id="select-down_base" xmlns="http://www.w3.org/2000/svg">
    <path fill-rule="evenodd" clip-rule="evenodd" d="M11.293 17.414l-7-7L5.707 9 12 15.293 18.293 9l1.414 1.414-7 7a1 1 0 01-1.414 0z" fill="#808185"/>
</symbol><symbol fill="none" viewBox="0 0 24 24" id="telegram" xmlns="http://www.w3.org/2000/svg">
    <path d="M6.838 13.213l-5.404-2.365c-.609-.266-.568-1.144.064-1.351l20.55-6.775a.725.725 0 01.932.854l-4.107 17.46a.724.724 0 01-1.164.395l-4.825-3.948-6.046-4.27z" fill="#EBF0FA"/>
    <path d="M18.035 6.493l-11.197 6.72 1.37 6.355a.8.8 0 001.262.472l3.414-2.556-2.81-2.3 8.315-8.236c.244-.242-.06-.632-.354-.455z" fill="#BEC3D2"/>
    <path d="M8.66 20.128c.252.114.56.099.81-.088l3.414-2.557-1.404-1.15-1.405-1.148-1.415 4.943z" fill="#AFB4C8"/>
</symbol><symbol fill="none" viewBox="0 0 24 24" id="twitter" xmlns="http://www.w3.org/2000/svg">
    <path d="M22.65 5.146a8.711 8.711 0 01-1.517.512 4.73 4.73 0 001.249-1.988.248.248 0 00-.363-.29 8.753 8.753 0 01-2.32.959.614.614 0 01-.55-.137 4.743 4.743 0 00-3.138-1.184c-.501 0-1.007.078-1.503.232a4.595 4.595 0 00-3.097 3.31 5.06 5.06 0 00-.112 1.747.176.176 0 01-.19.192A12.437 12.437 0 012.56 3.931a.248.248 0 00-.406.031 4.739 4.739 0 00-.642 2.385c0 1.286.516 2.497 1.413 3.38a4.25 4.25 0 01-1.081-.418.248.248 0 00-.369.214 4.749 4.749 0 002.77 4.375 4.271 4.271 0 01-.9-.075.248.248 0 00-.283.32 4.754 4.754 0 003.755 3.232 8.753 8.753 0 01-4.902 1.489h-.548a.363.363 0 00-.355.274.376.376 0 00.18.415 13.018 13.018 0 006.54 1.764c2.011 0 3.892-.4 5.59-1.186a12.345 12.345 0 004.091-3.065 13.436 13.436 0 002.505-4.195c.556-1.488.85-3.075.85-4.59v-.073c0-.243.11-.472.303-.628a9.374 9.374 0 001.886-2.07c.138-.207-.08-.465-.307-.365z" fill="#fff"/>
</symbol><symbol fill="none" viewBox="0 0 25 25" id="vk" xmlns="http://www.w3.org/2000/svg">
    <path d="M20.434 14.625c.73.713 1.5 1.383 2.155 2.167.289.349.563.709.772 1.113.297.575.028 1.208-.488 1.242l-3.205-.001c-.826.068-1.486-.264-2.04-.83-.444-.452-.855-.933-1.282-1.4a3.04 3.04 0 00-.576-.513c-.438-.284-.818-.197-1.068.26-.254.464-.312.978-.337 1.495-.034.755-.263.953-1.02.988-1.62.076-3.158-.169-4.587-.986-1.26-.72-2.236-1.738-3.086-2.89-1.655-2.242-2.922-4.706-4.06-7.239-.257-.57-.07-.877.56-.887a86.99 86.99 0 013.138-.002c.425.006.706.25.87.652.566 1.39 1.258 2.714 2.127 3.94.231.327.467.654.803.883.372.255.655.17.83-.244.11-.262.159-.545.184-.826.083-.967.094-1.933-.052-2.897-.089-.602-.428-.991-1.028-1.105-.306-.058-.26-.172-.112-.347.257-.301.5-.489.983-.489h3.622c.57.113.697.369.775.942l.003 4.024c-.006.222.11.881.51 1.028.321.105.532-.151.724-.354.868-.92 1.486-2.009 2.04-3.135.245-.495.456-1.01.66-1.524.152-.38.39-.569.82-.56l3.485.003c.104 0 .208.001.308.019.588.1.749.352.567.926-.285.9-.842 1.65-1.386 2.403-.58.805-1.203 1.582-1.78 2.39-.529.74-.487 1.112.171 1.754z" fill="#fff"/>
</symbol><symbol viewBox="0 0 24 24" id="wallet" xmlns="http://www.w3.org/2000/svg">
    <path d="M18 11h-2v2h2v-2z"/>
    <path fill-rule="evenodd" clip-rule="evenodd" d="M20 19v-3h1a1 1 0 001-1V9a1 1 0 00-1-1h-1V5a1 1 0 00-1-1H3a1 1 0 00-1 1v14a1 1 0 001 1h16a1 1 0 001-1zm-2-1v-2h-3a4 4 0 010-8h3V6H4v12h14zm-3-8a2 2 0 100 4h5v-4h-5z"/>
</symbol></svg>