<svg width="80" height="80" viewBox="0 0 80 80" fill="none" xmlns="http://www.w3.org/2000/svg">
<path fill-rule="evenodd" clip-rule="evenodd" d="M0 10C0 4.47715 4.47715 0 10 0H70C75.5229 0 80 4.47715 80 10V70C80 75.5229 75.5229 80 70 80H58.8649V63.2498C58.8649 59.2706 55.7073 56 51.747 56H46.4419C46.1902 54.854 45.1817 54 43.9336 54H42.9702V52H44.0355C45.427 52 46.5509 51.1064 46.5509 50H50.9834C54.8412 50 58.1632 47.2509 59.0205 43.4021L59.346 40.7776C59.7877 41.2671 60.2912 41.5512 60.8286 41.569V41.5699H60.8822H64.7354C66.555 41.5699 68 38.5173 68 34.7561C68 30.9949 66.555 27.9424 64.7354 27.9424H60.9614C61.7847 23.1832 58.5566 18.7317 54.0086 18.0814L56.7243 10.4453C57.0454 9.46416 56.5638 8.42847 55.654 8.10141C54.6907 7.77435 53.6738 8.26494 53.3527 9.19161L50.22 18H31.2249L28.0922 9.19161C27.7711 8.26494 26.7542 7.77435 25.7909 8.10141C24.8811 8.42847 24.3994 9.46416 24.7205 10.4453L27.4074 18H26.1219C20.9837 18 17.1281 22.791 18.0193 27.9424H15.2646C13.445 27.9424 12 30.9949 12 34.7561C12 38.5173 13.445 41.5699 15.2646 41.5699H19.1714H19.1714C19.359 41.5699 19.5427 41.5374 19.7211 41.4751L19.9601 43.4021C20.8174 47.2509 24.1394 50 27.9972 50H33.5996C33.6531 51.1064 34.777 52 36.1684 52H37.0833V54H36.0665C34.8646 54 33.8624 54.854 33.6116 56H28.2527C24.3459 56 21.1349 59.2161 21.1349 63.2498V80H10C4.47715 80 0 75.5229 0 70V10ZM30.1258 26.0898H49.9273C53.5666 26.0898 56.51 29.1424 56.5635 32.8491C56.5635 36.6103 53.5666 39.6083 49.9273 39.6083H30.1258C26.4866 39.5538 23.5431 36.5558 23.5431 32.8491C23.5431 29.1424 26.4866 26.0898 30.1258 26.0898ZM35.4244 43.8057C34.6751 43.8057 34.0864 44.4053 34.0864 45.1684C34.0864 45.9315 34.6751 46.5312 35.4244 46.5312C36.1736 46.5312 36.7623 45.9315 36.7623 45.1684C36.7623 44.4053 36.1736 43.8057 35.4244 43.8057ZM40.0269 43.8057C39.2776 43.8057 38.6889 44.4053 38.6889 45.1684C38.6889 45.9315 39.2776 46.5312 40.0269 46.5312C40.7761 46.5312 41.3648 45.9315 41.3648 45.1684C41.3648 44.4053 40.7761 43.8057 40.0269 43.8057ZM44.5759 43.8057C43.8267 43.8057 43.238 44.4053 43.238 45.1684C43.238 45.9315 43.8267 46.5312 44.5759 46.5312C45.3251 46.5312 45.9138 45.9315 45.9138 45.1684C45.9138 44.4053 45.3251 43.8057 44.5759 43.8057ZM30.1261 29.3613C28.253 29.3613 26.7009 30.8876 26.7009 32.85C26.7009 34.8123 28.1994 36.3386 30.1261 36.3386C31.9992 36.3386 33.5512 34.8123 33.5512 32.85C33.5512 30.8876 31.9992 29.3613 30.1261 29.3613ZM49.9276 29.3613C48.0545 29.3613 46.5025 30.8876 46.5025 32.85C46.5025 34.8123 48.001 36.3386 49.9276 36.3386C51.8008 36.3386 53.3528 34.8123 53.3528 32.85C53.3528 30.8876 51.8008 29.3613 49.9276 29.3613Z" fill="#264796"/>
</svg>
