<svg width="120" height="120" viewBox="0 0 120 120" fill="none" xmlns="http://www.w3.org/2000/svg">
<path fill-rule="evenodd" clip-rule="evenodd" d="M64.3708 12.5718C63.4889 10.9845 61.8158 10 60 10C58.1842 10 56.5111 10.9845 55.6292 12.5718L5.62921 102.572C4.76885 104.12 4.79222 106.009 5.69065 107.536C6.58907 109.063 8.2284 110 10 110H110C111.772 110 113.411 109.063 114.309 107.536C115.208 106.009 115.231 104.12 114.371 102.572L64.3708 12.5718ZM60 25.2956L101.502 100H18.4976L60 25.2956ZM55 50V75H65V50H55ZM60 93.75C56.5482 93.75 53.75 90.9518 53.75 87.5C53.75 84.0482 56.5482 81.25 60 81.25C63.4518 81.25 66.25 84.0482 66.25 87.5C66.25 90.9518 63.4518 93.75 60 93.75Z" fill="#2C2D31"/>
</svg>
