<svg width="120" height="120" viewBox="0 0 120 120" fill="none" xmlns="http://www.w3.org/2000/svg">
<path d="M58.2424 79.2424L88.2424 49.2424L79.7571 40.7571L53.9997 66.5144L37.2424 49.7571L28.7571 58.2424L49.7571 79.2424C52.1002 81.5855 55.8992 81.5855 58.2424 79.2424Z" fill="white"/>
<path fill-rule="evenodd" clip-rule="evenodd" d="M60 0C26.8629 0 0 26.8629 0 60C0 93.1371 26.8629 120 60 120C93.1371 120 120 93.1371 120 60C120 26.8629 93.1371 0 60 0ZM12 60C12 33.4903 33.4903 12 60 12C86.5097 12 108 33.4903 108 60C108 86.5097 86.5097 108 60 108C33.4903 108 12 86.5097 12 60Z" fill="white"/>
</svg>
