<svg width="352" height="128" viewBox="0 0 352 128" fill="none" xmlns="http://www.w3.org/2000/svg">
<path d="M347 0H5C2.23858 0 0 2.23858 0 5V123C0 125.761 2.23858 128 5 128H347C349.761 128 352 125.761 352 123V5C352 2.23858 349.761 0 347 0Z" fill="white"/>
<path fill-rule="evenodd" clip-rule="evenodd" d="M86.5169 64.7527C86.4424 56.4968 93.2935 52.4803 93.6068 52.2933C89.7267 46.6502 83.7128 45.8792 81.5994 45.8177C76.5484 45.2875 71.6489 48.8327 69.0759 48.8327C66.4515 48.8327 62.4893 45.869 58.2189 45.9561C52.7237 46.0406 47.5828 49.2143 44.7633 54.1428C38.9445 64.1917 43.2842 78.9591 48.859 87.0817C51.6477 91.0598 54.9064 95.5015 59.1716 95.3453C63.3444 95.1737 64.9031 92.6915 69.9387 92.6915C74.9281 92.6915 76.3918 95.3453 80.7418 95.2454C85.2201 95.1737 88.0397 91.2494 90.7308 87.2354C93.9535 82.6759 95.2477 78.1855 95.299 77.9549C95.1938 77.9191 86.6016 74.648 86.5169 64.7527Z" fill="black" fill-opacity="0.8"/>
<path fill-rule="evenodd" clip-rule="evenodd" d="M78.2997 40.4742C80.544 37.6744 82.0796 33.8654 81.6533 30C78.4049 30.1434 74.3426 32.2414 72.0032 34.9797C69.9335 37.3926 68.0847 41.3477 68.5623 45.067C72.2112 45.3386 75.9578 43.2304 78.2997 40.4742Z" fill="black" fill-opacity="0.8"/>
<path fill-rule="evenodd" clip-rule="evenodd" d="M310.351 49.8998C310.351 50.8211 310.291 51.5977 310.163 52.232H294.699C294.759 54.5184 295.506 56.267 296.942 57.4729C298.245 58.551 299.931 59.0913 302 59.0913C304.29 59.0913 306.379 58.7271 308.257 57.9963L309.065 61.5658C306.87 62.5209 304.278 62.996 301.287 62.996C297.689 62.996 294.865 61.9396 292.81 59.8293C290.76 57.7189 289.732 54.885 289.732 51.33C289.732 47.8401 290.687 44.9339 292.6 42.6161C294.602 40.1416 297.307 38.9043 300.712 38.9043C304.055 38.9043 306.587 40.1416 308.306 42.6161C309.667 44.5817 310.351 47.0128 310.351 49.8998ZM305.436 48.5663C305.47 47.042 305.134 45.7251 304.435 44.6133C303.543 43.1831 302.172 42.4692 300.327 42.4692C298.642 42.4692 297.271 43.1662 296.224 44.5651C295.366 45.6769 294.856 47.0106 294.698 48.5639H305.436V48.5663Z" fill="black" fill-opacity="0.8"/>
<path fill-rule="evenodd" clip-rule="evenodd" d="M287.297 43.9455C286.787 43.8514 286.243 43.8032 285.673 43.8032C283.859 43.8032 282.457 44.4857 281.471 45.8532C280.612 47.0591 280.182 48.5834 280.182 50.4236V62.5671H275.03L275.078 46.7118C275.078 44.0443 275.013 41.6156 274.885 39.4257H279.374L279.563 43.8538H279.706C280.25 42.3319 281.108 41.1067 282.283 40.1878C283.431 39.3606 284.672 38.9482 286.009 38.9482C286.485 38.9482 286.915 38.9819 287.297 39.0422V43.9455Z" fill="black" fill-opacity="0.8"/>
<path fill-rule="evenodd" clip-rule="evenodd" d="M270.542 50.8043C270.542 54.3617 269.522 57.2825 267.486 59.5665C265.351 61.918 262.517 63.0901 258.985 63.0901C255.581 63.0901 252.871 61.9638 250.849 59.7112C248.828 57.4585 247.817 54.615 247.817 51.1878C247.817 47.6014 248.857 44.6638 250.944 42.3798C253.025 40.0934 255.835 38.9502 259.367 38.9502C262.771 38.9502 265.511 40.0765 267.578 42.3316C269.556 44.5191 270.542 47.3433 270.542 50.8043ZM265.194 50.9705C265.194 48.8361 264.737 47.0055 263.811 45.4788C262.73 43.6314 261.185 42.71 259.183 42.71C257.111 42.71 255.537 43.6338 254.457 45.4788C253.531 47.0079 253.074 48.8674 253.074 51.067C253.074 53.2015 253.531 55.032 254.457 56.5563C255.571 58.4038 257.128 59.3251 259.138 59.3251C261.106 59.3251 262.651 58.3845 263.765 56.5081C264.715 54.9524 265.194 53.1026 265.194 50.9705Z" fill="black" fill-opacity="0.8"/>
<path fill-rule="evenodd" clip-rule="evenodd" d="M244.907 43.2818H239.225V54.5186C239.225 57.3766 240.226 58.8043 242.233 58.8043C243.154 58.8043 243.918 58.7247 244.522 58.5656L244.665 62.4703C243.65 62.849 242.313 63.0395 240.656 63.0395C238.621 63.0395 237.03 62.4198 235.881 61.1825C234.738 59.9428 234.162 57.8638 234.162 54.9431V43.2771H230.777V39.4181H234.162V35.1805L239.225 33.6562V39.4181H244.907V43.2818Z" fill="black" fill-opacity="0.8"/>
<path fill-rule="evenodd" clip-rule="evenodd" d="M227.864 53.5659C227.864 56.2961 226.914 58.5174 225.006 60.2322C222.91 62.1062 219.992 63.042 216.242 63.042C212.779 63.042 210.004 62.3763 207.903 61.0426L209.097 56.7568C211.36 58.1219 213.843 58.8068 216.549 58.8068C218.49 58.8068 220.001 58.3679 221.087 57.4948C222.168 56.6217 222.707 55.4496 222.707 53.988C222.707 52.6856 222.262 51.5882 221.37 50.6983C220.483 49.8083 219 48.981 216.931 48.2165C211.297 46.1206 208.483 43.0504 208.483 39.013C208.483 36.3744 209.47 34.211 211.445 32.5276C213.413 30.8417 216.039 30 219.322 30C222.25 30 224.682 30.5089 226.624 31.5243L225.335 35.716C223.522 34.732 221.471 34.24 219.177 34.24C217.364 34.24 215.947 34.6862 214.931 35.5737C214.073 36.3672 213.643 37.3344 213.643 38.48C213.643 39.7486 214.133 40.7977 215.12 41.6226C215.978 42.3847 217.538 43.2096 219.801 44.0995C222.569 45.2114 224.602 46.5113 225.91 48.0018C227.214 49.4875 227.864 51.347 227.864 53.5659Z" fill="black" fill-opacity="0.8"/>
<path fill-rule="evenodd" clip-rule="evenodd" d="M198.029 50.7106C198.029 54.6467 196.962 57.758 194.827 60.042C192.92 62.0751 190.548 63.0905 187.717 63.0905C184.661 63.0905 182.465 61.9955 181.131 59.8056H181.034V71.9974H175.879V47.0422C175.879 44.5677 175.814 42.0281 175.688 39.4233H180.222L180.509 43.0917H180.606C182.323 40.3277 184.931 38.9482 188.435 38.9482C191.169 38.9482 193.454 40.0262 195.287 42.1848C197.112 44.3458 198.029 47.1869 198.029 50.7106ZM192.777 50.8987C192.777 48.6461 192.267 46.789 191.247 45.3274C190.132 43.8031 188.64 43.041 186.762 43.041C185.488 43.041 184.334 43.4655 183.3 44.3024C182.265 45.1465 181.59 46.2487 181.274 47.6138C181.116 48.2505 181.034 48.7715 181.034 49.1815V53.0404C181.034 54.7239 181.552 56.1444 182.582 57.3045C183.616 58.4622 184.961 59.0434 186.619 59.0434C188.561 59.0434 190.072 58.2958 191.153 56.8053C192.236 55.3124 192.777 53.3443 192.777 50.8987Z" fill="black" fill-opacity="0.8"/>
<path fill-rule="evenodd" clip-rule="evenodd" d="M171.343 50.7106C171.343 54.6467 170.277 57.758 168.145 60.042C166.235 62.0751 163.863 63.0905 161.032 63.0905C157.976 63.0905 155.78 61.9955 154.443 59.8056H154.346V71.9974H149.192V47.0422C149.192 44.5677 149.126 42.0281 149.001 39.4233H153.534L153.822 43.0917H153.918C155.638 40.3277 158.246 38.9482 161.747 38.9482C164.484 38.9482 166.769 40.0262 168.597 42.1848C170.429 44.3458 171.343 47.1869 171.343 50.7106ZM166.092 50.8987C166.092 48.6461 165.584 46.789 164.564 45.3274C163.45 43.8031 161.953 43.041 160.077 43.041C158.805 43.041 157.649 43.4655 156.617 44.3024C155.582 45.1465 154.905 46.2487 154.588 47.6138C154.429 48.2505 154.349 48.7715 154.349 49.1815V53.0404C154.349 54.7239 154.866 56.1444 155.901 57.3045C156.936 58.4646 158.28 59.0434 159.934 59.0434C161.876 59.0434 163.387 58.2958 164.467 56.8053C165.551 55.3124 166.092 53.3443 166.092 50.8987Z" fill="black" fill-opacity="0.8"/>
<path fill-rule="evenodd" clip-rule="evenodd" d="M144.707 62.5662H139.216L136.208 53.1384H125.754L122.889 62.5662H117.543L127.901 30.4697H134.298L144.707 62.5662ZM135.301 49.1833L132.581 40.8022C132.294 39.946 131.754 37.9297 130.959 34.7557H130.862C130.546 36.1208 130.035 38.1371 129.334 40.8022L126.663 49.1833H135.301Z" fill="black" fill-opacity="0.8"/>
<path d="M122.766 78.9375L127.195 87.5039L131.637 78.9375H134.203L128.32 89.625V96H126.059V89.625L120.176 78.9375H122.766ZM144.075 93.0703V83.3203H146.255V96H144.181L144.075 93.0703ZM144.486 90.3984L145.388 90.375C145.388 91.2188 145.298 92 145.118 92.7188C144.947 93.4297 144.665 94.0469 144.275 94.5703C143.884 95.0938 143.372 95.5039 142.74 95.8008C142.107 96.0898 141.337 96.2344 140.431 96.2344C139.814 96.2344 139.247 96.1445 138.732 95.9648C138.224 95.7852 137.786 95.5078 137.419 95.1328C137.052 94.7578 136.767 94.2695 136.564 93.668C136.368 93.0664 136.271 92.3438 136.271 91.5V83.3203H138.439V91.5234C138.439 92.0938 138.501 92.5664 138.626 92.9414C138.759 93.3086 138.935 93.6016 139.154 93.8203C139.38 94.0312 139.63 94.1797 139.904 94.2656C140.185 94.3516 140.474 94.3945 140.771 94.3945C141.693 94.3945 142.423 94.2188 142.962 93.8672C143.501 93.5078 143.888 93.0273 144.122 92.4258C144.365 91.8164 144.486 91.1406 144.486 90.3984ZM152.46 78V96H150.28V78H152.46ZM160.206 83.3203L154.674 89.2383L151.581 92.4492L151.405 90.1406L153.62 87.4922L157.557 83.3203H160.206ZM158.225 96L153.702 89.9531L154.827 88.0195L160.78 96H158.225ZM165.519 78V96H163.34V78H165.519ZM177.196 93.832V87.3047C177.196 86.8047 177.095 86.3711 176.892 86.0039C176.696 85.6289 176.4 85.3398 176.001 85.1367C175.603 84.9336 175.11 84.832 174.525 84.832C173.978 84.832 173.497 84.9258 173.083 85.1133C172.677 85.3008 172.357 85.5469 172.122 85.8516C171.896 86.1562 171.782 86.4844 171.782 86.8359H169.614C169.614 86.3828 169.732 85.9336 169.966 85.4883C170.2 85.043 170.536 84.6406 170.974 84.2812C171.419 83.9141 171.95 83.625 172.568 83.4141C173.193 83.1953 173.888 83.0859 174.653 83.0859C175.575 83.0859 176.388 83.2422 177.091 83.5547C177.802 83.8672 178.357 84.3398 178.755 84.9727C179.161 85.5977 179.364 86.3828 179.364 87.3281V93.2344C179.364 93.6562 179.4 94.1055 179.47 94.582C179.548 95.0586 179.661 95.4688 179.81 95.8125V96H177.548C177.439 95.75 177.353 95.418 177.29 95.0039C177.228 94.582 177.196 94.1914 177.196 93.832ZM177.571 88.3125L177.595 89.8359H175.403C174.786 89.8359 174.235 89.8867 173.751 89.9883C173.267 90.082 172.86 90.2266 172.532 90.4219C172.204 90.6172 171.954 90.8633 171.782 91.1602C171.61 91.4492 171.525 91.7891 171.525 92.1797C171.525 92.5781 171.614 92.9414 171.794 93.2695C171.974 93.5977 172.243 93.8594 172.603 94.0547C172.97 94.2422 173.419 94.3359 173.95 94.3359C174.614 94.3359 175.2 94.1953 175.708 93.9141C176.216 93.6328 176.618 93.2891 176.915 92.8828C177.22 92.4766 177.384 92.082 177.407 91.6992L178.333 92.7422C178.278 93.0703 178.13 93.4336 177.888 93.832C177.646 94.2305 177.321 94.6133 176.915 94.9805C176.517 95.3398 176.04 95.6406 175.485 95.8828C174.939 96.1172 174.321 96.2344 173.634 96.2344C172.775 96.2344 172.021 96.0664 171.372 95.7305C170.732 95.3945 170.232 94.9453 169.872 94.3828C169.521 93.8125 169.345 93.1758 169.345 92.4727C169.345 91.793 169.478 91.1953 169.743 90.6797C170.009 90.1562 170.392 89.7227 170.892 89.3789C171.392 89.0273 171.993 88.7617 172.696 88.582C173.4 88.4023 174.185 88.3125 175.052 88.3125H177.571ZM183.483 78H185.662V93.5391L185.475 96H183.483V78ZM194.229 89.5547V89.8008C194.229 90.7227 194.12 91.5781 193.901 92.3672C193.682 93.1484 193.362 93.8281 192.94 94.4062C192.518 94.9844 192.002 95.4336 191.393 95.7539C190.784 96.0742 190.084 96.2344 189.295 96.2344C188.491 96.2344 187.784 96.0977 187.174 95.8242C186.573 95.543 186.065 95.1406 185.651 94.6172C185.237 94.0938 184.905 93.4609 184.655 92.7188C184.412 91.9766 184.245 91.1406 184.151 90.2109V89.1328C184.245 88.1953 184.412 87.3555 184.655 86.6133C184.905 85.8711 185.237 85.2383 185.651 84.7148C186.065 84.1836 186.573 83.7812 187.174 83.5078C187.776 83.2266 188.475 83.0859 189.272 83.0859C190.069 83.0859 190.776 83.2422 191.393 83.5547C192.01 83.8594 192.526 84.2969 192.94 84.8672C193.362 85.4375 193.682 86.1211 193.901 86.918C194.12 87.707 194.229 88.5859 194.229 89.5547ZM192.049 89.8008V89.5547C192.049 88.9219 191.991 88.3281 191.873 87.7734C191.756 87.2109 191.569 86.7188 191.311 86.2969C191.053 85.8672 190.713 85.5312 190.291 85.2891C189.87 85.0391 189.35 84.9141 188.733 84.9141C188.186 84.9141 187.709 85.0078 187.303 85.1953C186.905 85.3828 186.565 85.6367 186.284 85.957C186.002 86.2695 185.772 86.6289 185.592 87.0352C185.42 87.4336 185.291 87.8477 185.205 88.2773V91.1016C185.33 91.6484 185.534 92.1758 185.815 92.6836C186.104 93.1836 186.487 93.5938 186.963 93.9141C187.448 94.2344 188.045 94.3945 188.756 94.3945C189.342 94.3945 189.842 94.2773 190.256 94.043C190.678 93.8008 191.018 93.4688 191.276 93.0469C191.541 92.625 191.737 92.1367 191.862 91.582C191.987 91.0273 192.049 90.4336 192.049 89.8008ZM203.79 89.8008V89.5312C203.79 88.6172 203.923 87.7695 204.188 86.9883C204.454 86.1992 204.837 85.5156 205.337 84.9375C205.837 84.3516 206.442 83.8984 207.153 83.5781C207.864 83.25 208.661 83.0859 209.544 83.0859C210.435 83.0859 211.235 83.25 211.946 83.5781C212.665 83.8984 213.274 84.3516 213.774 84.9375C214.282 85.5156 214.669 86.1992 214.935 86.9883C215.2 87.7695 215.333 88.6172 215.333 89.5312V89.8008C215.333 90.7148 215.2 91.5625 214.935 92.3438C214.669 93.125 214.282 93.8086 213.774 94.3945C213.274 94.9727 212.669 95.4258 211.958 95.7539C211.255 96.0742 210.458 96.2344 209.567 96.2344C208.677 96.2344 207.876 96.0742 207.165 95.7539C206.454 95.4258 205.845 94.9727 205.337 94.3945C204.837 93.8086 204.454 93.125 204.188 92.3438C203.923 91.5625 203.79 90.7148 203.79 89.8008ZM205.958 89.5312V89.8008C205.958 90.4336 206.032 91.0312 206.181 91.5938C206.329 92.1484 206.552 92.6406 206.849 93.0703C207.153 93.5 207.532 93.8398 207.985 94.0898C208.438 94.332 208.966 94.4531 209.567 94.4531C210.161 94.4531 210.681 94.332 211.126 94.0898C211.579 93.8398 211.954 93.5 212.251 93.0703C212.548 92.6406 212.77 92.1484 212.919 91.5938C213.075 91.0312 213.153 90.4336 213.153 89.8008V89.5312C213.153 88.9062 213.075 88.3164 212.919 87.7617C212.77 87.1992 212.544 86.7031 212.239 86.2734C211.942 85.8359 211.567 85.4922 211.114 85.2422C210.669 84.9922 210.145 84.8672 209.544 84.8672C208.95 84.8672 208.427 84.9922 207.974 85.2422C207.528 85.4922 207.153 85.8359 206.849 86.2734C206.552 86.7031 206.329 87.1992 206.181 87.7617C206.032 88.3164 205.958 88.9062 205.958 89.5312ZM221.127 78V96H218.948V78H221.127ZM227.683 83.3203V96H225.503V83.3203H227.683ZM225.339 79.957C225.339 79.6055 225.445 79.3086 225.656 79.0664C225.875 78.8242 226.195 78.7031 226.617 78.7031C227.031 78.7031 227.347 78.8242 227.566 79.0664C227.793 79.3086 227.906 79.6055 227.906 79.957C227.906 80.293 227.793 80.582 227.566 80.8242C227.347 81.0586 227.031 81.1758 226.617 81.1758C226.195 81.1758 225.875 81.0586 225.656 80.8242C225.445 80.582 225.339 80.293 225.339 79.957ZM234.052 86.0273V96H231.884V83.3203H233.934L234.052 86.0273ZM233.536 89.1797L232.634 89.1445C232.641 88.2773 232.77 87.4766 233.02 86.7422C233.27 86 233.622 85.3555 234.075 84.8086C234.528 84.2617 235.067 83.8398 235.692 83.543C236.325 83.2383 237.024 83.0859 237.79 83.0859C238.415 83.0859 238.977 83.1719 239.477 83.3438C239.977 83.5078 240.403 83.7734 240.755 84.1406C241.114 84.5078 241.387 84.9844 241.575 85.5703C241.762 86.1484 241.856 86.8555 241.856 87.6914V96H239.677V87.668C239.677 87.0039 239.579 86.4727 239.384 86.0742C239.188 85.668 238.903 85.375 238.528 85.1953C238.153 85.0078 237.692 84.9141 237.145 84.9141C236.606 84.9141 236.114 85.0273 235.669 85.2539C235.231 85.4805 234.852 85.793 234.532 86.1914C234.22 86.5898 233.973 87.0469 233.794 87.5625C233.622 88.0703 233.536 88.6094 233.536 89.1797ZM254.084 83.3203H256.053V95.7305C256.053 96.8477 255.826 97.8008 255.373 98.5898C254.92 99.3789 254.287 99.9766 253.475 100.383C252.67 100.797 251.74 101.004 250.686 101.004C250.248 101.004 249.732 100.934 249.139 100.793C248.553 100.66 247.975 100.43 247.404 100.102C246.842 99.7812 246.369 99.3477 245.986 98.8008L247.123 97.5117C247.654 98.1523 248.209 98.5977 248.787 98.8477C249.373 99.0977 249.951 99.2227 250.522 99.2227C251.209 99.2227 251.803 99.0938 252.303 98.8359C252.803 98.5781 253.19 98.1953 253.463 97.6875C253.744 97.1875 253.885 96.5703 253.885 95.8359V86.1094L254.084 83.3203ZM245.354 89.8008V89.5547C245.354 88.5859 245.467 87.707 245.693 86.918C245.928 86.1211 246.26 85.4375 246.69 84.8672C247.127 84.2969 247.654 83.8594 248.272 83.5547C248.889 83.2422 249.584 83.0859 250.357 83.0859C251.154 83.0859 251.85 83.2266 252.443 83.5078C253.045 83.7812 253.553 84.1836 253.967 84.7148C254.389 85.2383 254.721 85.8711 254.963 86.6133C255.205 87.3555 255.373 88.1953 255.467 89.1328V90.2109C255.381 91.1406 255.213 91.9766 254.963 92.7188C254.721 93.4609 254.389 94.0938 253.967 94.6172C253.553 95.1406 253.045 95.543 252.443 95.8242C251.842 96.0977 251.139 96.2344 250.334 96.2344C249.576 96.2344 248.889 96.0742 248.272 95.7539C247.662 95.4336 247.139 94.9844 246.701 94.4062C246.264 93.8281 245.928 93.1484 245.693 92.3672C245.467 91.5781 245.354 90.7227 245.354 89.8008ZM247.522 89.5547V89.8008C247.522 90.4336 247.584 91.0273 247.709 91.582C247.842 92.1367 248.041 92.625 248.307 93.0469C248.58 93.4688 248.928 93.8008 249.35 94.043C249.772 94.2773 250.275 94.3945 250.861 94.3945C251.58 94.3945 252.174 94.2422 252.643 93.9375C253.111 93.6328 253.482 93.2305 253.756 92.7305C254.037 92.2305 254.256 91.6875 254.412 91.1016V88.2773C254.326 87.8477 254.193 87.4336 254.014 87.0352C253.842 86.6289 253.615 86.2695 253.334 85.957C253.061 85.6367 252.721 85.3828 252.315 85.1953C251.908 85.0078 251.432 84.9141 250.885 84.9141C250.291 84.9141 249.779 85.0391 249.35 85.2891C248.928 85.5312 248.58 85.8672 248.307 86.2969C248.041 86.7188 247.842 87.2109 247.709 87.7734C247.584 88.3281 247.522 88.9219 247.522 89.5547Z" fill="#2C2D31"/>
</svg>
