<svg width="80" height="80" viewBox="0 0 80 80" fill="none" xmlns="http://www.w3.org/2000/svg">
<path fill-rule="evenodd" clip-rule="evenodd" d="M10 0C4.47715 0 0 4.47715 0 10V70C0 75.5229 4.47715 80 10 80H70C75.5229 80 80 75.5229 80 70V10C80 4.47715 75.5229 0 70 0H10ZM30.1642 17.1119C32.5573 17.003 33.3222 16.9764 39.4131 16.9764C45.5058 16.9764 46.2679 17.003 48.661 17.1119C51.0498 17.2213 52.6813 17.5995 54.1118 18.1544C55.589 18.7271 56.8372 19.4937 58.0854 20.7419C59.3335 21.9891 60.1002 23.2411 60.6752 24.7169C61.2268 26.1436 61.6055 27.7742 61.7177 30.163C61.8252 32.5565 61.8533 33.3213 61.8533 39.4154C61.8533 45.5095 61.8252 46.2724 61.7177 48.6659C61.6055 51.0538 61.2268 52.6848 60.6752 54.112C60.1002 55.5874 59.3335 56.8393 58.0854 58.0865C56.8386 59.3347 55.5886 60.1032 54.1132 60.6764C52.6855 61.2313 51.0531 61.6095 48.6643 61.7188C46.2708 61.8278 45.5083 61.8544 39.4138 61.8544C33.3202 61.8544 32.5558 61.8278 30.1623 61.7188C27.774 61.6095 26.143 61.2313 24.7153 60.6764C23.2404 60.1032 21.9885 59.3347 20.7417 58.0865C19.494 56.8393 18.7273 55.5874 18.1537 54.1115C17.5993 52.6848 17.2211 51.0542 17.1112 48.6654C17.0028 46.2719 16.9757 45.5095 16.9757 39.4154C16.9757 33.3213 17.0037 32.5561 17.1108 30.1626C17.2183 27.7747 17.597 26.1436 18.1533 24.7164C18.7283 23.2411 19.4949 21.9891 20.7431 20.7419C21.9903 19.4942 23.2422 18.7275 24.7181 18.1544C26.1448 17.5995 27.7754 17.2213 30.1642 17.1119ZM39.4131 16.9764C39.4142 16.9764 39.4154 16.9764 39.4166 16.9764H39.4096C39.4107 16.9764 39.4119 16.9764 39.4131 16.9764ZM38.6687 21.0198C38.2149 21.0196 37.7945 21.0195 37.4036 21.0201V21.0145C33.2215 21.0191 32.4193 21.0472 30.3493 21.1407C28.1615 21.2412 26.9737 21.6058 26.1827 21.9144C25.1355 22.322 24.3876 22.8082 23.6022 23.5935C22.8168 24.3789 22.3297 25.1269 21.923 26.174C21.6159 26.965 21.2503 28.1524 21.1503 30.3402C21.0428 32.7057 21.0212 33.4125 21.0212 39.4046C21.0212 45.3968 21.0428 46.1074 21.1503 48.4728C21.2498 50.6606 21.6159 51.848 21.923 52.6381C22.3307 53.6857 22.8168 54.4318 23.6022 55.2171C24.3876 56.0025 25.1355 56.4887 26.1827 56.8954C26.9741 57.2025 28.1615 57.5681 30.3493 57.6691C32.7148 57.7766 33.4249 57.8 39.4166 57.8C45.4078 57.8 46.1184 57.7766 48.4838 57.6691C50.6716 57.569 51.8599 57.2044 52.65 56.8959C53.6976 56.4892 54.4432 56.003 55.2286 55.2176C56.014 54.4327 56.5011 53.6871 56.9078 52.6399C57.2149 51.8499 57.5805 50.6625 57.6805 48.4747C57.7881 46.1092 57.8114 45.3987 57.8114 39.4102C57.8114 33.4218 57.7881 32.7113 57.6805 30.3458C57.581 28.158 57.2149 26.9706 56.9078 26.1806C56.5001 25.1334 56.014 24.3855 55.2286 23.6001C54.4437 22.8147 53.6971 22.3285 52.65 21.9218C51.859 21.6147 50.6716 21.2491 48.4838 21.1491C46.1179 21.0416 45.4078 21.0201 39.4166 21.0201C39.1576 21.0201 38.9085 21.02 38.6687 21.0198ZM48.7017 27.4376C48.7017 25.9506 49.9078 24.7459 51.3943 24.7459V24.7449C52.8809 24.7449 54.087 25.951 54.087 27.4376C54.087 28.9242 52.8809 30.1303 51.3943 30.1303C49.9078 30.1303 48.7017 28.9242 48.7017 27.4376ZM27.8932 39.4154C27.8932 33.0517 33.0525 27.8923 39.4161 27.892C45.7799 27.892 50.9381 33.0516 50.9381 39.4154C50.9381 45.7792 45.7804 50.9364 39.4166 50.9364C33.0528 50.9364 27.8932 45.7792 27.8932 39.4154ZM46.8962 39.4154C46.8962 35.2843 43.5472 31.9357 39.4166 31.9357C35.2855 31.9357 31.9369 35.2843 31.9369 39.4154C31.9369 43.546 35.2855 46.8951 39.4166 46.8951C43.5472 46.8951 46.8962 43.546 46.8962 39.4154Z" fill="#264796"/>
</svg>
