<svg width="164" height="110" viewBox="0 0 164 110" fill="none" xmlns="http://www.w3.org/2000/svg">
<g clip-path="url(#clip0_29_79)">
<path fill-rule="evenodd" clip-rule="evenodd" d="M89.5402 0.856126C87.6304 0.391372 85.6471 0.097843 83.6149 0H81.1175C75.6819 0.220147 70.6136 1.9324 66.3043 4.72093H85.5492C88.4139 4.72093 90.7399 3.66911 90.7399 2.37269C90.7399 1.78563 90.2992 1.27196 89.5402 0.856126Z" fill="#264796"/>
<path fill-rule="evenodd" clip-rule="evenodd" d="M106.459 12.4261C105.235 10.7138 103.839 9.12386 102.297 7.70514H64.321C63.562 7.70514 62.852 7.77852 62.2154 7.90082C61.236 8.83033 60.3056 9.80876 59.4486 10.8606C60.1831 11.7656 62.0929 12.4016 64.321 12.4016L106.459 12.4261Z" fill="#264796"/>
<path fill-rule="evenodd" clip-rule="evenodd" d="M110.083 19.3485C109.618 18.0765 109.079 16.8535 108.442 15.6794C107.757 15.5326 106.998 15.4348 106.19 15.4348H56.3881C55.5801 16.9269 54.8945 18.5168 54.3314 20.1557H106.19C107.732 20.1557 109.128 19.8377 110.083 19.3485Z" fill="#264796"/>
<path fill-rule="evenodd" clip-rule="evenodd" d="M111.846 27.8608C111.748 26.2464 111.552 24.6809 111.209 23.1399H58.7386C55.8739 23.1399 53.5479 24.1917 53.5479 25.4881C53.5479 26.7845 55.8739 27.8364 58.7386 27.8364H111.846V27.8608Z" fill="#264796"/>
<path fill-rule="evenodd" clip-rule="evenodd" d="M52.8624 30.845C52.9358 32.4594 53.1317 34.0249 53.4745 35.5659H104.941C107.806 35.5659 110.132 34.5141 110.132 33.2177C110.132 31.9213 107.806 30.8695 104.941 30.8695L52.8624 30.845Z" fill="#264796"/>
<path fill-rule="evenodd" clip-rule="evenodd" d="M107.634 43.2955C108.442 41.8034 109.103 40.2135 109.642 38.5746H59.571C56.7063 38.5746 54.3802 39.6264 54.3802 40.9228V40.9962C54.5027 41.2653 54.6006 41.5343 54.723 41.779C55.4821 42.6595 57.3674 43.2955 59.5465 43.2955H107.634Z" fill="#264796"/>
<path fill-rule="evenodd" clip-rule="evenodd" d="M103.447 50.0956C103.815 49.7287 104.182 49.3373 104.525 48.9459C104.549 48.8481 104.574 48.7503 104.574 48.628C104.574 47.3315 102.248 46.2797 99.383 46.2797H58.1019C59.3017 47.992 60.6728 49.5819 62.1909 51.0006H99.383C101.023 51.0006 102.493 50.6582 103.447 50.0956Z" fill="#264796"/>
<path fill-rule="evenodd" clip-rule="evenodd" d="M86.1614 58.7058C90.7645 58.1187 95.0493 56.4554 98.7465 53.9849H79.1099C76.2452 53.9849 73.9191 55.0367 73.9191 56.3331C73.9191 57.1648 74.8495 57.8741 76.2697 58.3144C76.9797 58.4612 77.6898 58.5835 78.3998 58.6813C78.6202 58.7058 78.865 58.7058 79.1099 58.7058H86.1614Z" fill="#264796"/>
<path d="M163.557 62.9375H1.17523V60.9073H163.557V62.9375Z" fill="#264796"/>
<path d="M8.20234 66.1419L15.8905 82.6284H13.0013L10.9201 77.883H4.97038L2.74228 82.6529L0 82.6284L7.78611 66.1419H8.20234ZM8.03095 71.1563L5.97425 75.6082H10.0142L8.03095 71.1563ZM16.7475 79.5464L18.5349 78.4945C19.5142 80.3046 20.2733 80.9651 21.424 81.1118C21.9627 81.1852 22.4279 81.1608 22.9176 80.9162C23.4073 80.6715 23.7746 80.4269 24.0194 79.9867C24.2642 79.5464 24.4112 79.1061 24.4112 78.6168C24.4112 78.0543 24.2153 77.5161 23.848 77.0024C23.3338 76.2686 22.232 75.5348 20.8609 74.5074C19.4897 73.4556 18.6328 72.7218 18.29 72.2571C17.7024 71.4743 17.4086 70.6426 17.4086 69.7376C17.4086 69.0282 17.58 68.3678 17.9227 67.7807C18.2655 67.1937 19.0001 66.4843 19.6122 66.1419C20.2243 65.7994 21.1302 65.6526 21.8648 65.6526C22.6483 65.6526 23.3828 65.8483 24.0439 66.2397C24.7295 66.6311 25.4395 67.3404 26.1985 68.3678L24.607 69.5908C23.9949 68.7592 23.6766 68.3433 23.2359 68.0743C22.7952 67.8052 22.7217 67.7074 22.2075 67.7074C21.5465 67.7074 21.0813 67.8786 20.6405 68.27C20.2243 68.6613 19.906 69.0038 19.906 69.5908C19.906 69.9577 19.8815 70.3247 20.0284 70.6671C20.1753 71.0096 20.2977 71.2297 20.6895 71.6211C20.9099 71.8168 21.6199 72.3794 22.8197 73.2599C24.2398 74.3118 25.464 75.2657 26.0027 76.0974C26.5413 76.9291 26.6148 77.7852 26.6148 78.6168C26.6148 79.8154 26.1496 80.8428 25.2436 81.7234C24.3377 82.604 22.9911 83.0198 21.6934 83.0198C20.6895 83.0198 19.7836 82.7507 18.9756 82.2126C18.1676 81.6989 17.433 80.8183 16.7475 79.5464ZM29.6509 66.1419H31.9769L32.0259 82.6284H29.6264V66.1419H29.6509ZM41.7952 66.1419L49.4834 82.6284H46.7901L44.4885 77.883H38.5388L36.3107 82.6284H33.5929L41.379 66.1419H41.7952ZM41.6728 70.7649L39.5671 75.6082H43.6805L41.6728 70.7649ZM65.1536 66.1419L72.8417 82.6284H70.2219L67.9203 77.614L62.1909 77.6384L59.8894 82.6284H56.9512L64.7373 66.1419H65.1536ZM65.0311 70.8628L62.9499 75.5837H67.0634L65.0311 70.8628ZM75.3881 66.1419H77.9345V80.4514L83.3946 80.5003L83.3701 82.6284H75.3636V66.1419H75.3881ZM85.99 66.1419H88.4629L88.3895 80.5492L93.9964 80.5982V82.6284H85.99V66.1419ZM96.3714 66.1419H98.8444L98.8689 74.3851V82.6284H96.3714V66.1419ZM108.442 65.6526L116.204 82.6284H113.609L111.283 77.565H105.357L102.909 82.6284H100.338L108.124 66.1419L108.442 65.6526ZM108.393 70.4959L106.165 75.6082H110.499L108.393 70.4959ZM118.799 82.6284V66.1419H119.95L129.328 77.614L129.303 66.1419H131.752V82.6284H130.87L121.101 71.2786L121.223 82.6284H118.799ZM151.119 69.1995L149.283 70.398C148.573 69.4685 147.912 69.0527 146.908 68.5635C145.904 68.0743 145.439 67.9764 144.239 67.9764C142.917 67.9764 142.647 68.0498 141.423 68.4656C140.199 68.9059 139.415 69.6153 138.656 70.6426C137.824 71.5477 137.457 73.0153 137.53 74.3362C137.652 76.9535 137.995 77.4183 139.097 78.837C140.419 80.5248 142.305 81.0385 144.361 80.8183C146.589 80.5982 147.936 80.109 149.503 78.2989L151.144 79.742C150.311 80.7939 149.307 81.6011 148.058 82.1637C146.834 82.7263 145.463 83.0198 143.945 83.0198C141.056 83.0198 138.779 82.0658 137.114 80.1334C135.718 78.519 135.008 76.5621 135.008 74.2628C135.008 71.8412 135.865 69.8354 137.555 68.1721C139.244 66.5332 141.374 65.7016 143.921 65.7016C145.463 65.7016 146.859 66.0196 148.083 66.6066C149.307 67.2671 150.336 68.0987 151.119 69.1995ZM153.616 66.1419H163.876L163.851 68.1476H156.065V72.9175H163.851L163.827 74.9477H156.065V80.696H163.802V82.6284L153.592 82.5795L153.616 66.1419ZM53.3765 93.4645H57.0491C58.3468 93.4645 59.3507 93.6113 60.0608 93.9293C60.7708 94.2473 61.3095 94.712 61.7257 95.348C62.1419 95.984 62.3378 96.6933 62.3378 97.4761C62.3378 98.2099 62.1664 98.8704 61.7992 99.4819C61.4319 100.093 60.9177 100.583 60.2077 100.95C61.0646 101.243 61.7257 101.585 62.1909 101.977C62.6561 102.368 63.0234 102.833 63.2682 103.396C63.5131 103.958 63.66 104.545 63.66 105.206C63.66 106.527 63.1703 107.652 62.2154 108.557C61.236 109.462 59.669 109.951 58.3223 109.927L53.3765 109.878V93.4645ZM55.4087 95.2746V100.142H55.8249C56.9757 100.142 57.7837 100.216 58.2979 100.02C58.8365 99.7999 59.2528 99.4574 59.5711 99.0171C59.8894 98.5524 60.0363 98.0387 60.0363 97.4761C60.0363 96.7178 59.7669 96.1308 59.2528 95.6905C58.7141 95.2502 57.7347 95.2257 56.7553 95.2502L55.4087 95.2746ZM55.4087 102.026V108.165L57.0247 108.288C58.2244 108.288 59.2283 108.263 59.7914 108.043C60.3546 107.799 60.6729 107.456 61.0157 106.942C61.3584 106.453 61.5298 105.891 61.5298 105.328C61.5298 104.594 61.285 103.958 60.8198 103.42C60.3301 102.882 59.6935 102.491 58.861 102.295C58.2979 102.148 57.7592 102.05 56.3881 102.05L55.4087 102.026ZM73.6742 93.4645L81.3624 109.951H78.9874L76.7593 105.083H70.2953L67.9938 109.951H65.4963L73.2824 93.4645H73.6742ZM73.4783 97.7452L71.1033 102.931H75.7309L73.4783 97.7452ZM83.9822 109.951V93.4401H84.8637L94.4127 105.083V93.4645H96.6652V109.976H95.6124L86.2838 99.4085V110L83.9822 109.951ZM100.338 93.5134L102.566 93.4645V98.8214L108.516 93.5134H111.381L103.668 100.827L111.993 109.951L109.52 110L102.591 103.004L102.566 109.976H100.387L100.338 93.5134Z" fill="#264796"/>
</g>
<defs>
<clipPath id="clip0_29_79">
<rect width="163.9" height="110" fill="white"/>
</clipPath>
</defs>
</svg>
