<svg width="120" height="120" viewBox="0 0 120 120" fill="none" xmlns="http://www.w3.org/2000/svg">
<path d="M67.5 42.5C67.5 46.6421 64.1421 50 60 50C55.8579 50 52.5 46.6421 52.5 42.5C52.5 38.3579 55.8579 35 60 35C64.1421 35 67.5 38.3579 67.5 42.5Z" fill="white"/>
<path d="M47.5 85V75H55V65H50V55H60C62.7614 55 65 57.2386 65 60V75H72.5V85H47.5Z" fill="white"/>
<path fill-rule="evenodd" clip-rule="evenodd" d="M60 110C32.3858 110 10 87.6142 10 60C10 32.3858 32.3858 10 60 10C87.6142 10 110 32.3858 110 60C110 87.6142 87.6142 110 60 110ZM60 100C82.0914 100 100 82.0914 100 60C100 37.9086 82.0914 20 60 20C37.9086 20 20 37.9086 20 60C20 82.0914 37.9086 100 60 100Z" fill="white"/>
</svg>
