<svg width="80" height="80" viewBox="0 0 80 80" fill="none" xmlns="http://www.w3.org/2000/svg">
<mask id="mask0_981_44425" style="mask-type:alpha" maskUnits="userSpaceOnUse" x="0" y="0" width="80" height="80">
<rect width="80" height="80" rx="10" fill="#C4C4C4"/>
</mask>
<g mask="url(#mask0_981_44425)">
<path d="M40.0131 0C23.3134 0 18.4294 0.0172322 17.4801 0.0960081C14.053 0.380955 11.9205 0.920693 9.59724 2.07771C7.80681 2.96702 6.39476 3.99788 5.00118 5.44292C2.4632 8.07822 0.925023 11.3203 0.368204 15.1742C0.097486 17.0451 0.0187315 17.4267 0.00273453 26.9832C-0.00341816 30.1687 0.00273453 34.3611 0.00273453 39.9843C0.00273453 56.6749 0.0211926 61.5554 0.101178 62.5031C0.378049 65.8388 0.901027 67.9374 2.00851 70.233C4.12504 74.6272 8.16735 77.926 12.9295 79.1569C14.5785 79.5815 16.3997 79.8154 18.7377 79.9261C19.7283 79.9692 29.8248 80 39.9275 80C50.0302 80 60.133 79.9877 61.0989 79.9385C63.8061 79.8111 65.3781 79.6 67.1163 79.1507C71.9092 77.9137 75.8777 74.6642 78.0373 70.2084C79.1232 67.9682 79.6739 65.7896 79.9231 62.6281C79.9772 61.9388 80 50.9489 80 39.9738C80 28.9969 79.9754 18.0274 79.9213 17.3381C79.669 14.1255 79.1183 11.9653 77.9973 9.68205C77.0775 7.81297 76.0561 6.41716 74.5733 4.98996C71.9271 2.46175 68.6907 0.923155 64.8342 0.3668C62.9657 0.0966236 62.5934 0.0166168 53.0321 0H40.0131Z" fill="url(#paint0_radial_981_44425)"/>
<path d="M40.0131 0C23.3134 0 18.4294 0.0172322 17.4801 0.0960081C14.053 0.380955 11.9205 0.920693 9.59724 2.07771C7.80681 2.96702 6.39476 3.99788 5.00118 5.44292C2.4632 8.07822 0.925023 11.3203 0.368204 15.1742C0.0974859 17.0451 0.0187315 17.4267 0.00273453 26.9832C-0.00341816 30.1687 0.00273453 34.3611 0.00273453 39.9843C0.00273453 56.675 0.0211926 61.5554 0.101178 62.5031C0.378049 65.8388 0.901027 67.9374 2.00851 70.233C4.12504 74.6272 8.16735 77.926 12.9295 79.1569C14.5785 79.5815 16.3997 79.8154 18.7377 79.9262C19.7283 79.9692 29.8248 80 39.9275 80C50.0302 80 60.133 79.9877 61.0989 79.9385C63.8061 79.8111 65.3781 79.6 67.1163 79.1507C71.9092 77.9137 75.8777 74.6642 78.0373 70.2084C79.1232 67.9682 79.6739 65.7896 79.9231 62.6281C79.9772 61.9388 80 50.9489 80 39.9738C80 28.9969 79.9754 18.0274 79.9213 17.3381C79.669 14.1255 79.1183 11.9653 77.9973 9.68205C77.0775 7.81297 76.0561 6.41716 74.5733 4.98996C71.927 2.46175 68.6907 0.923155 64.8342 0.3668C62.9657 0.0966236 62.5934 0.0166168 53.0321 0H40.0131Z" fill="url(#paint1_radial_981_44425)"/>
</g>
<path d="M39.4165 16.9766C33.3224 16.9766 32.5576 17.0032 30.1641 17.1121C27.7753 17.2215 26.1447 17.5997 24.718 18.1546C23.2422 18.7277 21.9902 19.4944 20.743 20.7421C19.4948 21.9893 18.7282 23.2413 18.1532 24.7166C17.5969 26.1438 17.2182 27.7749 17.1107 30.1628C17.0036 32.5563 16.9756 33.3215 16.9756 39.4156C16.9756 45.5097 17.0027 46.2721 17.1112 48.6656C17.221 51.0544 17.5992 52.685 18.1536 54.1117C18.7272 55.5876 19.4939 56.8395 20.7416 58.0867C21.9884 59.3349 23.2403 60.1034 24.7152 60.6766C26.1429 61.2315 27.7739 61.6097 30.1623 61.719C32.5557 61.828 33.3201 61.8546 39.4137 61.8546C45.5082 61.8546 46.2707 61.828 48.6642 61.719C51.053 61.6097 52.6854 61.2315 54.1131 60.6766C55.5885 60.1034 56.8385 59.3349 58.0853 58.0867C59.3335 56.8395 60.1001 55.5876 60.6751 54.1122C61.2267 52.685 61.6054 51.054 61.7176 48.6661C61.8251 46.2726 61.8532 45.5097 61.8532 39.4156C61.8532 33.3215 61.8251 32.5567 61.7176 30.1632C61.6054 27.7744 61.2267 26.1438 60.6751 24.7171C60.1001 23.2413 59.3335 21.9893 58.0853 20.7421C56.8371 19.4939 55.5889 18.7273 54.1117 18.1546C52.6812 17.5997 51.0497 17.2215 48.6609 17.1121C46.2674 17.0032 45.5054 16.9766 39.4095 16.9766H39.4165ZM37.4035 21.0203C38.001 21.0193 38.6676 21.0203 39.4165 21.0203C45.4077 21.0203 46.1178 21.0418 48.4837 21.1493C50.6715 21.2493 51.8589 21.6149 52.6499 21.922C53.697 22.3287 54.4436 22.8149 55.2285 23.6003C56.0139 24.3856 56.5001 25.1336 56.9077 26.1808C57.2148 26.9708 57.5809 28.1582 57.6804 30.346C57.788 32.7115 57.8113 33.422 57.8113 39.4104C57.8113 45.3989 57.788 46.1094 57.6804 48.4749C57.5804 50.6627 57.2148 51.8501 56.9077 52.6401C56.501 53.6873 56.0139 54.4329 55.2285 55.2178C54.4431 56.0032 53.6975 56.4893 52.6499 56.8961C51.8599 57.2046 50.6715 57.5692 48.4837 57.6693C46.1183 57.7768 45.4077 57.8002 39.4165 57.8002C33.4248 57.8002 32.7147 57.7768 30.3492 57.6693C28.1614 57.5683 26.974 57.2027 26.1826 56.8956C25.1354 56.4889 24.3875 56.0027 23.6021 55.2173C22.8167 54.432 22.3306 53.6859 21.9229 52.6383C21.6158 51.8482 21.2498 50.6608 21.1502 48.473C21.0427 46.1076 21.0212 45.397 21.0212 39.4048C21.0212 33.4127 21.0427 32.7059 21.1502 30.3404C21.2502 28.1526 21.6158 26.9652 21.9229 26.1742C22.3296 25.1271 22.8167 24.3791 23.6021 23.5937C24.3875 22.8084 25.1354 22.3222 26.1826 21.9146C26.9736 21.606 28.1614 21.2414 30.3492 21.1409C32.4192 21.0474 33.2214 21.0193 37.4035 21.0147V21.0203ZM51.3942 24.7461C49.9077 24.7461 48.7016 25.9508 48.7016 27.4378C48.7016 28.9244 49.9077 30.1305 51.3942 30.1305C52.8808 30.1305 54.0869 28.9244 54.0869 27.4378C54.0869 25.9512 52.8808 24.7451 51.3942 24.7451V24.7461ZM39.4165 27.8922C33.0527 27.8922 27.8931 33.0518 27.8931 39.4156C27.8931 45.7794 33.0527 50.9366 39.4165 50.9366C45.7803 50.9366 50.938 45.7794 50.938 39.4156C50.938 33.0518 45.7798 27.8922 39.416 27.8922H39.4165ZM39.4165 31.9359C43.5471 31.9359 46.8962 35.2845 46.8962 39.4156C46.8962 43.5462 43.5471 46.8953 39.4165 46.8953C35.2854 46.8953 31.9368 43.5462 31.9368 39.4156C31.9368 35.2845 35.2854 31.9359 39.4165 31.9359V31.9359Z" fill="white"/>
<defs>
<radialGradient id="paint0_radial_981_44425" cx="0" cy="0" r="1" gradientUnits="userSpaceOnUse" gradientTransform="translate(21.2501 86.1617) rotate(-90) scale(79.2859 73.7421)">
<stop stop-color="#FFDD55"/>
<stop offset="0.1" stop-color="#FFDD55"/>
<stop offset="0.5" stop-color="#FF543E"/>
<stop offset="1" stop-color="#C837AB"/>
</radialGradient>
<radialGradient id="paint1_radial_981_44425" cx="0" cy="0" r="1" gradientUnits="userSpaceOnUse" gradientTransform="translate(-13.4004 5.76307) rotate(78.6806) scale(35.4411 146.09)">
<stop stop-color="#3771C8"/>
<stop offset="0.128" stop-color="#3771C8"/>
<stop offset="1" stop-color="#6600FF" stop-opacity="0"/>
</radialGradient>
</defs>
</svg>
